<mxfile host="65bd71144e">
    <diagram id="8yK9R3zvT8sRWchGTIiJ" name="generic-tentacle">
        <mxGraphModel dx="547" dy="593" grid="1" gridSize="10" guides="1" tooltips="1" connect="1" arrows="1" fold="1" page="1" pageScale="1" pageWidth="827" pageHeight="1169" math="0" shadow="0">
            <root>
                <mxCell id="0"/>
                <mxCell id="1" parent="0"/>
                <mxCell id="2" value="Generic Tentacle" style="rounded=0;whiteSpace=wrap;html=1;verticalAlign=top;strokeWidth=2;fillStyle=solid;fillColor=#99FFFF;strokeColor=#4040FF;fontColor=#000000;fontStyle=1" parent="1" vertex="1">
                    <mxGeometry x="240" y="90" width="129" height="130" as="geometry"/>
                </mxCell>
                <mxCell id="IrSCRaVFjGxWifBhCEHX-19" value="" style="rounded=0;whiteSpace=wrap;html=1;verticalAlign=top;strokeWidth=2;fillStyle=solid;fillColor=#d5e8d4;strokeColor=#008800;fontStyle=1" parent="1" vertex="1">
                    <mxGeometry x="240" y="222" width="129" height="210" as="geometry"/>
                </mxCell>
                <mxCell id="IrSCRaVFjGxWifBhCEHX-12" value="Inkbus" style="rounded=0;whiteSpace=wrap;html=1;fillColor=#ffe6cc;strokeColor=none;horizontal=1;verticalAlign=top;fontStyle=0;fontColor=#D08000;" parent="1" vertex="1">
                    <mxGeometry x="333" y="115.73" width="70" height="240" as="geometry"/>
                </mxCell>
                <mxCell id="6" value="&#10;USB" style="shape=mxgraph.electrical.electro-mechanical.singleSwitch;aspect=fixed;elSwitchState=off;labelBackgroundColor=none;fontColor=#000000;strokeColor=#000000;verticalAlign=top;" parent="1" vertex="1">
                    <mxGeometry x="344" y="272" width="59" height="15.73" as="geometry"/>
                </mxCell>
                <mxCell id="IrSCRaVFjGxWifBhCEHX-8" value="&#10;Boot DUT" style="shape=mxgraph.electrical.electro-mechanical.singleSwitch;aspect=fixed;elSwitchState=off;labelBackgroundColor=none;fontColor=#000000;strokeColor=#000000;verticalAlign=top;" parent="1" vertex="1">
                    <mxGeometry x="261" y="185" width="59" height="15.73" as="geometry"/>
                </mxCell>
                <mxCell id="IrSCRaVFjGxWifBhCEHX-9" value="" style="endArrow=none;dashed=1;html=1;dashPattern=1 3;strokeWidth=2;labelBackgroundColor=none;strokeColor=#FF0000;opacity=0;" parent="1" edge="1">
                    <mxGeometry width="50" height="50" relative="1" as="geometry">
                        <mxPoint x="280" y="230" as="sourcePoint"/>
                        <mxPoint x="330" y="180" as="targetPoint"/>
                    </mxGeometry>
                </mxCell>
                <mxCell id="IrSCRaVFjGxWifBhCEHX-11" value="" style="pointerEvents=1;shadow=0;dashed=0;html=1;strokeColor=none;fillColor=#4495D1;labelPosition=center;verticalLabelPosition=bottom;verticalAlign=top;align=center;outlineConnect=0;shape=mxgraph.veeam.cpu;" parent="1" vertex="1">
                    <mxGeometry x="272.1" y="130" width="44.8" height="44.8" as="geometry"/>
                </mxCell>
                <mxCell id="IrSCRaVFjGxWifBhCEHX-17" value="ATE" style="text;html=1;strokeColor=none;fillColor=none;align=center;verticalAlign=middle;whiteSpace=wrap;rounded=0;horizontal=0;fontColor=#4040FF;" parent="1" vertex="1">
                    <mxGeometry x="240" y="115.73" width="20" height="80" as="geometry"/>
                </mxCell>
                <mxCell id="IrSCRaVFjGxWifBhCEHX-18" value="DUT" style="text;html=1;strokeColor=none;fillColor=none;align=center;verticalAlign=middle;whiteSpace=wrap;rounded=0;horizontal=0;fontColor=#008800;" parent="1" vertex="1">
                    <mxGeometry x="241" y="223.73" width="20" height="66.27" as="geometry"/>
                </mxCell>
                <mxCell id="IrSCRaVFjGxWifBhCEHX-23" value="" style="endArrow=none;rounded=0;labelBackgroundColor=none;strokeColor=#4040FF;strokeWidth=2;fontColor=#FF8000;entryX=1;entryY=0.5;entryDx=0;entryDy=0;exitX=0;exitY=0.5;exitDx=0;exitDy=0;" parent="1" edge="1">
                    <mxGeometry width="50" height="50" relative="1" as="geometry">
                        <mxPoint x="333" y="220" as="sourcePoint"/>
                        <mxPoint x="403" y="220" as="targetPoint"/>
                    </mxGeometry>
                </mxCell>
                <mxCell id="IrSCRaVFjGxWifBhCEHX-24" value="" style="endArrow=none;rounded=0;labelBackgroundColor=none;strokeColor=#008800;strokeWidth=2;fontColor=#FF8000;entryX=1;entryY=0.5;entryDx=0;entryDy=0;exitX=0;exitY=0.5;exitDx=0;exitDy=0;" parent="1" edge="1">
                    <mxGeometry width="50" height="50" relative="1" as="geometry">
                        <mxPoint x="333" y="222" as="sourcePoint"/>
                        <mxPoint x="403" y="222" as="targetPoint"/>
                    </mxGeometry>
                </mxCell>
                <mxCell id="9" value="&#10;5V" style="shape=mxgraph.electrical.electro-mechanical.singleSwitch;aspect=fixed;elSwitchState=off;labelBackgroundColor=none;fontColor=#000000;strokeColor=#000000;verticalAlign=top;" parent="1" vertex="1">
                    <mxGeometry x="344" y="227.87" width="59" height="15.73" as="geometry"/>
                </mxCell>
                <mxCell id="10" value="&#10;IO" style="shape=mxgraph.electrical.electro-mechanical.singleSwitch;aspect=fixed;elSwitchState=off;labelBackgroundColor=none;fontColor=#000000;strokeColor=#000000;verticalAlign=top;" parent="1" vertex="1">
                    <mxGeometry x="344" y="319.13" width="59" height="15.73" as="geometry"/>
                </mxCell>
                <mxCell id="cH-c6EVKSbvFRIAWzT0g-10" value="" style="sketch=0;pointerEvents=1;shadow=0;dashed=0;html=1;strokeColor=none;fillColor=#434445;aspect=fixed;labelPosition=center;verticalLabelPosition=bottom;verticalAlign=top;align=center;outlineConnect=0;shape=mxgraph.vvd.cpu;" parent="1" vertex="1">
                    <mxGeometry x="260" y="301.99" width="50" height="50" as="geometry"/>
                </mxCell>
            </root>
        </mxGraphModel>
    </diagram>
    <diagram id="x0EXqisZxIAAFJiS7Ch1" name="Example testsetup">
        <mxGraphModel dx="547" dy="593" grid="1" gridSize="10" guides="1" tooltips="1" connect="1" arrows="1" fold="1" page="1" pageScale="1" pageWidth="827" pageHeight="1169" math="0" shadow="0">
            <root>
                <mxCell id="0"/>
                <mxCell id="1" parent="0"/>
                <mxCell id="9XvdeewJi5H3TVdUopXr-15" value="" style="endArrow=none;html=1;" parent="1" edge="1">
                    <mxGeometry width="50" height="50" relative="1" as="geometry">
                        <mxPoint x="108" y="699" as="sourcePoint"/>
                        <mxPoint x="800" y="696" as="targetPoint"/>
                    </mxGeometry>
                </mxCell>
                <mxCell id="9XvdeewJi5H3TVdUopXr-17" value="" style="endArrow=none;html=1;" parent="1" edge="1">
                    <mxGeometry width="50" height="50" relative="1" as="geometry">
                        <mxPoint x="108" y="654" as="sourcePoint"/>
                        <mxPoint x="800" y="651" as="targetPoint"/>
                    </mxGeometry>
                </mxCell>
                <mxCell id="6bS_RCBzzbipsxGdoiMo-2" value="" style="sketch=0;aspect=fixed;pointerEvents=1;shadow=0;dashed=0;html=1;strokeColor=none;labelPosition=center;verticalLabelPosition=bottom;verticalAlign=top;align=center;fillColor=#00188D;shape=mxgraph.azure.computer" parent="1" vertex="1">
                    <mxGeometry x="10" y="430" width="50" height="45" as="geometry"/>
                </mxCell>
                <mxCell id="6bS_RCBzzbipsxGdoiMo-3" value="USB" style="endArrow=none;html=1;strokeColor=#FF0000;strokeWidth=2;exitX=1.025;exitY=0.408;exitDx=0;exitDy=0;exitPerimeter=0;entryX=0.5;entryY=0;entryDx=0;entryDy=0;" parent="1" source="6bS_RCBzzbipsxGdoiMo-2" target="9XvdeewJi5H3TVdUopXr-1" edge="1">
                    <mxGeometry width="50" height="50" relative="1" as="geometry">
                        <mxPoint x="-20" y="250" as="sourcePoint"/>
                        <mxPoint x="177" y="603" as="targetPoint"/>
                    </mxGeometry>
                </mxCell>
                <mxCell id="6bS_RCBzzbipsxGdoiMo-5" value="" style="endArrow=none;html=1;strokeWidth=2;strokeColor=#FF0000;exitX=0.944;exitY=0.722;exitDx=0;exitDy=0;exitPerimeter=0;" parent="1" source="6bS_RCBzzbipsxGdoiMo-2" target="9XvdeewJi5H3TVdUopXr-18" edge="1">
                    <mxGeometry width="50" height="50" relative="1" as="geometry">
                        <mxPoint x="-20" y="250" as="sourcePoint"/>
                        <mxPoint x="80" y="670" as="targetPoint"/>
                    </mxGeometry>
                </mxCell>
                <mxCell id="9XvdeewJi5H3TVdUopXr-2" value="" style="group" parent="1" vertex="1" connectable="0">
                    <mxGeometry x="200" y="501" width="166" height="344" as="geometry"/>
                </mxCell>
                <mxCell id="9XvdeewJi5H3TVdUopXr-1" value="DUT: rp2040" style="shape=image;imageAspect=0;aspect=fixed;verticalLabelPosition=bottom;verticalAlign=top;image=data:image/svg+xml,PHN2ZyB4bWxuczp4bGluaz0iaHR0cDovL3d3dy53My5vcmcvMTk5OS94bGluayIgeG1sbnM9Imh0dHA6Ly93d3cudzMub3JnLzIwMDAvc3ZnIiBjb250ZW50PSImbHQ7bXhmaWxlJmd0OyZsdDtkaWFncmFtIGlkPSZxdW90Ozh5SzlSM3p2VDhzUldjaEdUSWlKJnF1b3Q7IG5hbWU9JnF1b3Q7Z2VuZXJpYy10ZW50YWNsZSZxdW90OyZndDs3VmxiYzZNMkdQMDFmZ3pEelFZZVk4ZE9NbTJubVhVMlNSOFZrRUVOSUkrUUw4bXZyd1RpSWlRN2NZTzN1NTM0d1lPT2J1Zzc1N3ZJSGptemJIOU53RHI1QTBjd0hkbG10Qjg1VnlQYnRqMlhmWFBnVlFDQlZ3RXhRVkVGV1Myd1JHOVFnS1pBTnlpQ2hUU1FZcHhTdEpiQkVPYzVES21FQVVMd1RoNjJ3cW04NnhyRVVBR1dJVWhWOUJGRk5LbFEzL1phL0FhaU9LbDN0aVpCMVpPQmVyQTRTWkdBQ084NmtETWZPVE9DTWEyZXN2ME1wdHgydFYycWVZc0R2YzJMRVpqVGoweXdxd2xia0c3RTJhNWhEZ2tLR1hqUDFnQWhPM1AxcHZTMVBqN0JtenlDZkFWejVFeDNDYUp3dVFZaDc5MHh2aG1XMEN4bExZczliaUdoaUpudU1rVnh6akNLK1lDQ0V2elNHSThkZTdwQ2Fib1VleFE0NVM5WVlqT2NZbEx1NndUQmduMmEyWjBlMTNUTnNtZUZjOXJCemZJajhIcDFqWkVFeE44VjdqdVFNTm8xeEJtazVKVU5xU1hzQ2dLRmdnUFIzTFZ5c0d4QmV0S1ZnaU1HQWlIQnVGbTZaWWs5Q0tMMHBOMlM1ZXdiZUZqOGZiMS9SS3RwTXB2ZlBGMVlnVUxsVDBOY05JWis1T3FJTTAzZi95RUVOVkovajZFbXlBelBrT3BzdC9uTDg2YjRIRTg5VzY5V2NCS0dpcTF6bkVNK0R4UDB4a3dOanJQY1pjTlUzZXJLOUN1M0dvQW94M0Vrb2l4cmJIaU93cFZuYXFoeUI2QnFvbkViaGprV1A5LzM1VlFoaDRYc05YL005akZQYmdaTVdZb2gzSWJpRVY5a01FeEFYa0lGeXVNVUxuZUlodXdrVTFDc3E0UzBRbnRPOEJTbVZkK1NBc3BYeGFzVlExUHdETk1wQ0YvaVVnbzlFZzhGT1kxM2lSNDl5ME93NTdxeW0zbXFtNDExY2JBbGVYQS84NDh4T3VXcDFUYXZ2dDkvRVhzMGZrNHMyUzM5OFg5TzdBY3lITXlqUzE3Z3RUYU5RSkdVb2RTU3d5Ykg3d0Nsa09SVnlqRWRiWG83enBqQ3pHSWhtTUVzWUNQNktnTG9RVVpnSkpXYUtoOWRlMnRpWUkwUm1BS0t0bktCcW1OQTdIQ0hVVTQ3ZFB1OWRObXZVd3E4SVNFVXM3b0ZaVzhoeDVFWHN2emVRaFNRR0ZKbG9WSVF6YkUva1dTdDkwV3k1cHRETXQ4eU1nb2hoNllRTjd1YU1XWE5hRk5xTC8rNmJqQXVCNWZDdWNNRm9naHppWVdRYjlyeDJkOTdBNTR4cFRnNzZOUkF0SnAxOElhbUtHZXZVMTl5ek9vY1VoRGJRZ2d5STF4dkJnb0xubTMwQW9PamxyNnVhL2lxVkZ0MCtOTEtVMWkvdko4cnhMTkQwaE1aRlpCaS9ENUhHWW9pdm8yMldwUHJPYWtHMDFSWHpXVm1DTDU2WmZDQjZzcldSSmErNHc1SGxwcWdkZW40MXlDcnVjQU1RcGJzV2l5YWZwU3N5Y1NvZjMwWW5DL2IrVGQ1VnpiamlWbTBjUUhOZFZPMi8ySWhyaUxNN09UMVNTaWxiUHpGOXpiR2RmTnFMOTZsYXRXWkdlNFJmZW84ZDJheFZqdUpOMzZWYk42L1V6V1NPVFdidStZN0M1MDVtOXZ1RDVkZTQ5QmYwaHRHZXZaUTByUFBKVDNkdmFLNU1JNGZGTVg5M3k2S1NvYlNDT3pqdndEWW51RjdTdEk2NDEyeC9zRk96OS90bjEvOG5jS2ZZd1dHcFJZZForUXZ2TGtJSi9PSDM1YlAyOFczMjh2SHQzc3p2dENTMnVmeEJaYWNsSUh4dkpjNlppVjNyR1AvSjdubGJTUHBqdmNwUmRnVCtjN2dtSllSQktvaWppU1JFK1RBbXUzZlhWWHdidjh6ZE9iL0FBPT0mbHQ7L2RpYWdyYW0mZ3Q7Jmx0O2RpYWdyYW0gaWQ9JnF1b3Q7eDBFWHFpc1p4SUFBRkppUzdDaDEmcXVvdDsgbmFtZT0mcXVvdDtFeGFtcGxlIHRlc3RzZXR1cCZxdW90OyZndDs3WDFaazZNNHMvYXZtY3Q1ZzdXbWZWazJZRU1adVZna0REY25XUHdhczlpMEM5dkFyLzlTZ0JmYzFkUDl6Wm5wT1JkTVJJY3RXYVJTbVk5eUVaV2EzL2haWHMyUGZoSHJoMmlUL2NZeFVmVWJMLzNHY1N6L2h3QWZ0S2Z1ZXNRSjMzVnNqN3VvSDNUdnNIYk5wdTlrK3Q3VEx0cDhEQWFXaDBOVzdvcGhaM2pZN3pkaE9lanpqOGZEWlRqc3Y0ZHNPR3ZoYnpmZmRGaWhuMzNiNit5aU11NTZ2M0IvM1BzWG05MDJ2czdNdmt5NlgzTC9PcmhmeVVmc1I0ZkxReGN2LzhiUGpvZEQyWDNMcTlrbW84Szd5cVY3VHZuT3J6ZkdqcHQ5K1RNUDFMKy9YYUtkTDZIS2VPV1NCVW9iMGZ1OVY4Ylp6MDc5Z250bXkvb3FBZUM3b0Y5M2VTdXFhZnY1K2xGMDBtYWd4NzgyL3J1ck5qRGI5THc1bGp1UTRkSVBOdG43NFdOWDdnNTcrRDA0bE9VaGZ4andtdTIyOUlmeVVGd3BReXZ5Uy84My9yVnJjc3JIZWZzYk42MXlXTXpzZllFNHI1NEtnVk9kd3FZUWdubDI4aHRtNXk5TUpwUU81eVVmOFZFdDhub3Ruc004UE90MktxNnNTVGV1VnJlYk9mc1I3UFdKbXNkTXRIaDlXZFlUZUNJOFJZMStDbmh0djJ6VWl5Njlua1BlMjZ1N2FSSndJdU01SXZOdXFYbXdNUDRJMW5IdU8xV201Ukd6cXIyUFNDcFQzMUgyWWE2VTZqeEwzeTJ2aXB3SnMycGkwV295UytjTGpraHhnN01vOGVVSVcwNzJwdTBWTnVDTlA5UzVHQWNPbmx6YkhrZE8zbG9yM0pwdDUzUWQ5T0ZkNmRYZVBwSStlQ2V2ZG01REdpUjdtckdiZk1XN2lXNWdWdE56N3h4eDV2dEtVcEMzS09KTlpqSlJNaVVZZXdjZEsxOTlodVFXYjNKNlkzNllXQU5lSnI2SEk4YmVreFJodEREblJZbTRTVzV6cU1TeXNyU2xTUFZUbHpIbnF1amJjV3c1aFJvMXlBaWFhSW9jOUZWbnA5Z2c3aGxsOFQ2VUZjdklvcW5mYUxMdG1FdVlyeVoxT2ZVVVpBWno4dzM0T1poY2pGMmlFSDMraGRGNVVodGM5dTdZcEFqenFQUWE4d1huMFF0YW9ETWhadTRwU3FQejJjemdrYWJQWTRReUwzR2JMWTlaZElnUzl4SW9XOUYweUJ0V29uZWdoUWxucnNraWNzTjE5TzV6ckJYeDA3MkhKNFhGUjZxRnlUeG9pT1VvaGhnczRyM2pGTVNaeTdVelZ4akVLOWlzSnkrT0U3MEVzNG5zczhiWjVEWEpXa3lYbmp4aFF0WVRmVG1HZmszMm5Pd3J5YU0zMnlaSmxLSGpzbEVTYnk2bVZ1NnBtUG5nUGE1b1RDaytta3o1cmp0VjQ2eXpGS1VHWXpUSzBlTDBJekNnQm5tV09IYnNiYVRwbTQ0OUh1Kzl4TWZ4VjVMS1RNQk1samFaZnZYU1NnazVrbGhwVVdMZUVIMG5PdnVzTGdLOWcwdW9kRFRXYUxSNGsxZTV2OUQ4SURjNHd5blNpRTlabEdJMjNFZGZQY0Ria2luaUZZbVpqUk8vK1E2eFFiZWxuY1lYSzFOclg0a0trNWtBR2d2TlhXdXV1WWd0Z3hTSnVUNVVaSkZlMEpySWdJa1RZSHFGU2JRMzh2SXRtRWVYYU01d1RxN1lIdllrcjRsV0JvOXJaNkVKNW13aWJxenloR3o1YkswVjdEbmF4WEc4ZXBPRWpHMVBVYUM4Q2s2T0RKTmtCMGYyOW9aVlppakxjbCt1cHFZU2xVc3V0bjI1YUR5R3hhdjU5aEl0Q0xlU1RCZVJtTE5zMEsrVWdaeWp3c2swMytaQ0xseUFiR0IvK2FscElBVlZhRTdleVpvQWh2UUxTcWFzem1tenpWcmh6VlNaWWl4ZkNENHdPbWRXYnFwNHB1Slc5bHdwREVaeGpGVFV6Y2I4NnFTc1JDUjhqdXo0QkhhRXh5bjcxVnRuamJkSHJKWEdiNXVNek0zMWRPWnhiT282RWVVOXNZbG1CeWxyNnppYXJSWmhaU1NnenpsN0pQUGl6Wksxblp1V2hlbGNqZ1lYelRiN2VCSE9Tc1p4VUJMbVpVVVVUWVAxNW9aRFlEeUxySGtSQjNLWll5YzZlYndwbW5zc1luYnFBZzF6aFJYZFdCdU52WjlXcnFOOUpZMGloRXhHVmd2eTlzWjRYemR5bEc3c0RJZHJ6SHFPdHdOYk44UHorTHhrRGl6aXlVZUV0MHdrbWFzVjBjNU9hbWJPSWpvWVRTUVFmdnBpcnZXTG41WUViRTN0T0pWaE9acG96cXZDSTRXeklmRUM1TE5EVW94dE95NWdMNXdEaHAxalRIWXJpU0NMbXl3OFhKek5QS3BoK290SFlsZDNOQy9BQ3VQWTVnRXd5UUZLOW9TYmZBMllPRWJ6Q2ZaelVmVVc4Y0dXNUVaUFhCYURKUUM3ck9pNEZDS2lwTUZja3d5c2loYlJ6eUZUSmRqWjFodXNzYmJzbVM3UlZMeEF3SmZtbzBZNytvbVdoS21va0wzSEdsa21HQnhMN013czdJV1pCamFhNnc0RDFvNnB6Q1E4bWtxbU8zc3kyOHpSSW16TWxhMllzcVY0YjZHU0hXd1dsWlp5T0VQbkxGcEVlSk96SnozenlpQ1BxekR6YWhNTFRaQk9aaTRQMXN6T1JFZU9hcmZSRGthdWFTdEZlYkgyOFRsYXgwM0FWTXBHeWk0d2grY3gzZ21sMnRra1poazZXb3k1U1JMdHRkakJJZXhqYnhjcXl0ekQ4WnRWVDhBMlJMYkpvVHBLR1NGY1JLcTlCaitXaW11WHhNMXFQVjA1ZWZZUk9ldzV3c3dGTHdEN1NqeHpFdThjSmtpd3NzTXhhQXpla2hHL3laUTB5blRCU2VKWmFFY25BNXRUSzYwQUcxT0xLQWZCWHFSbk80a3Z5eVlVYkd6dUkyWjczc2dNRXluYjZvMEIveUZwbkk5bDFrMjhpMkVyUlNRcGN4MWp6a3EwRlBGVE81eFhtcjcya3NET1RvNXNKbEYrT0laenN3cm1vTGUxcWVCa3kwZnBKTkZ6c25aeHRTWks4VzVuVTl0elhCRTNpdU9uckxqQ0FvdmtMYitSeVZ1VWl3ZzFLV1BsWk9jc2lJR1RrSE5zOU5YbUJCYmJwUFNzTDRCMzFrYzhFcUs5bWRtTzZJY1o0Sk1oYTRNdlJDOVJ1RkJDeFdvdWVyYWpDcGozRm80c3h2WkNaK3o4SXBqcitHTWxNeldlZlRUMkFqUzdCejhqd1Y1SW94UHMwYjF1bGJyT3hRS1NEYzYzUGRHVDlMTXpkL2tsSDJjUkY0cElaZ1NYTDZyVlFqdThNZGxIWUpXOG5VVno0Qkg0alZRakFmb1MwOFlFUzg0c3dDN1Vyc1BrSHZoeExhK1kxYjF2Nnp2R3pjZUQ3VmVjaFFMN3FSQXNyRXpOdENod0UwbStKT2ZobXB6QngyOERpQ1U4bStuYnBiS1pLeVhJUDFNWFpoYnladU90VFRhY0RlTUNrcHNyMkFCTnhCQkRseFFqbEV2QUI0ek5WTllpY3UwM251K3hwaFpKa1Jjb0ttK1RlRzFoajQxd05YVTVrVU1Oc1cxNWV6UzVFaG1ZWER6T0JOL2pyWFd3ejBFQ01aY1N4K2IrbFRmM2NVeWNLSFlVYzI3WTJwVHc2SXdCZjJBTGRRQmFocFhZSUp4NGRKVG96Y1BheW1XVXl1U2lQWkc5Q3ZZRitDakZ4SE5sRmpiS3hjRGV5VktJYXN1VE45TlcrWUJoamtUVzFFMVc4T0NUelNWVGZvUkoxaGhaa2E0Y1FscC9JU0VqeEpoMzhhR3gwMktHODh4RHJGYlpPRHdiR05aSlpUY1gzdzJ1T29GTjA1eWN1ZmpyckRDSUlZUkVjWDNnTmNxbU01c2pvcGRtbFExZTBPQk16dUFtSEhLMDJzeEZKa2c4ejhBWllCZUpSbVBtdHFTZVE4NXNvclY1QkR1WW9iUUVmSmpZYXNDcnNJREJoUWJyQnh2TXdINW40N25MRnFLUmtOa2JWNXlKclZJOUhFUGlmUVR6clJnd1NoTHU0NVhONG92UG9tbEVQRFpneVhzRXNVekVrNHRsWjE2SUZkOUt3MXBuWk1iSDBRN0xwVzJzMWFQQm1JYk5rN21SWnJ3dmY2bDB0ckJ4V3V5TXZYWUtaTy9OYzVRM2o0RTRhVitzM0pSSUVITjgrRFp4WWIyd1I5Z1BoR1BWbGt6d1p4b3g3VXdMOWdUa3hYNVlDd1AySlJISkhsZWhuSzAzdWZZUzVHQW5KT1BvTnQ3Snp3c3RVbVFPNHFLWm5WYWxPUStGVFY2c1ZnNWFlbUJIbzczTzZiWjJjREZSd0Q3NEh2aFpoTFVpek1pTGJVZXJJTXRFc0RrazRqUUo4N0ZqYzhVeWJMSXBoRE1NWG11QTllbk9VcFJFWDc4eTdsNWhDR042NEh1ZFRUb3h6RVdoMkFTZGJCN1o3dHI3NnV4VGRzbDhzSVFwRHFFdEN5dUNLOEpVWXNpVkJHTEt5NUpqR2tkeWo0NVZycU1tbm03eUx3M0lIZlJNMGpDRkhUQlhCQ01qbHJzbXZwNW9id2hpTFY4eTlXQWZndDJOa1lVbkRNU3U0b3BrTXp2UExqWldKUEFSZGJoL2JUWnlqSWpEV2pyRXpFNFdYalp5SmtFc1VQbEo1dmgydFBRd0s0YU9lZFFicEpwejlpc2hYa3BTa1VXU2R3UmRLeGFPRTVmVExKS1poMlVqMXlhSmowRktISWpwbG1EalBsWUVsYjVqQ2xqUkxoRDdGcHZkaEFGLzYra094RmxZZk5jVDlJYlNPTEZrcjQ3V0JyZEowQnJseG5HRlJRUHNLTEwyNUFMeHZ3Kys0a3pXRUZmeU1zVFprYi9rV1AyTkU1ZzNwb3hOTzlaTjJUaGJYRndzdVhKdjVnTGtQMU9Jc1NJZUw4elMzYnZuTjY3a0lqbGtTRUppSWlFR2JPWE9rcVkxN09zbTVOeDZROHdFL0o1QjhyaUIrTEpCVE9VYmdEbVVSeGhpQUlpLzRnd3hMbzNoR0h2dGlxR2tpNlprSHIwa1MwSTJBdDFNZHFqeDBvZ2NqajRqZm13azhOa054RFNZK0poaEliNUNSU1NqTjh4NHJpbVJENXN2Vm1helBlclpWRFd6S2Y5dS80bmRyU2ZsWnU0VndSeTNmWkREY1JELzhrWStFU0NISy9XWndLb3o1ckpNOEZhM1hVNlZkQWJOMUswL0o0WEh4VFRQYTVCa1hqYlFGM0ZaR3MyM0V6V1JPYlNmQ3BRVzVHZU43MHhPTUs1YUp2THVQYWxTaUx1YVpTTjg4ZUJmbUVOK01KczIwVUk3K3h3dTd6VFVuYnBBVEpoUGptRGJkMnBqWEpBMHpiMmR1dlhBeHdjUzdVdEZML2ZhdmdkK0tyMTVoV2Vqd2x1WWg3YWRwTkJPS1YvdzJmSzNhK2V2cDBCZk9ZVWN4QWM1TTFIM0pzaEdCUHdyakdkdEg5ZGVxQW53eWtkRk5FY0hXQVBqcldOR25VT010emVBNSt2YzJpN2dxaFRXM2Y2K2RKU1R5OFVRZXpDN3dNbFNqL3FrM1RTbk9mSnlEWGpOTWVXbERoZmIzWldXQi9ZWThtVVJhS21lVTRIOFFHZWNUSDhISFYwbTZrNm4rVGI5MTY5SnZRQk5xaXNPN1ZUSSs4MWJWanpGdDZ6WXZweWpPUkVpU2ZpeTVCSHZyMDNZeGZDZEMrR0o5NFdXdWJ5eEJWOVpCMXlaTGRjMzJkVkErNnFiZnU2dDBNNTk0d2VseU1HQ0p4blFGMmVRZngwaTBJMmV5SlF2SHZZbjQ5TzJyWXJRRmp2OTZBTTlQR0Znb3ViaU9jang0eHlnWmN5NW5QNDBoekdZQXpVM21YRExKR3g2dVlpQTF6UG9iQS94UUt0Zkw1L1VBV0FLNW91RFBmcHcxMmIyMW1OOGFiK2VrSlZTbkRhQVJkaVYyMVpDWnJaWkdOdFdoak0yRG5KMENIZ1ZPR1VMYjI1K2VCWkY1ZVFFdnpYK3VzamFWWFk3b05PMjQ4V0FnSThOekdyTkljdklDZU03S0thL2c3WS9ZSHhpU3E5VXNwZGVTZ3hvYzd1NVNpNFJ0U0F2ZDlGYUIvMjF2RkN1WnBOSEhtZVRQWEI5Z2RVY2JqdkhZa3ZRZFJibVZRSHpkN3NEZHVwVjAzVGVIazJYT3kvZ0hUbVJJaldGNzBpVjVBdXlYcXVWalNGajNXN3QyV3NGbHVDMG1qMzB3ZS9JVmsvNmJqZ09KUVpZRGZCQUNSWlVtWUh2MUFyZ0dtaUNWZ1RvdTBDZklTNlRMUU45Z2w2M21zb0N5S3JDQmNxR0ZxRGprL0ovdFFCaEh1M2VKQlZTUXFDVFlIWTVlNjJSRGJ0MU42MnByUFdkMENDWXYyMUxmUnZrNnZLdE5SQ1JKYkNyR1cyM2FHUldsaUQwYVBtM2VLaUFod3ArN3hEYlc0V1F5MTdvL0JBMWRKYjJ4empNSVJzb0Fyb2IwamdMRmg3RTRsbmlXby9XODdhV0I0UzNISU1rUUV2WFBkcWdkZ1FoYUFZWWF5M2JlM0k1dDlZYkxLWC9ZTDBweHNEMmZQZ3dkN3REN2RmZGorUVhBTDh0My9BZGNGUlRESUdWdVdLbzBXdkFDV0J3TmFOeW1nSWVYY0NMQ3JoNUZUcGNYYllyU1g1b0E4NGErbnc3aGdkc1VUcGdIYWx1WDhWZXRyOUt2ejNmVi8yNlhJdjEzUmNxYzdBRWtNOWZRZzcvYUVmV0hxY2VIbWIvVUZ1T3FGL1RxTFdvbDRuT3dzNmpiYUZ2Yy9ROHR1WHdLaG5hcGh3MjdnbDI4TlVIZnU2UE9qeVVZQzhUZno2cGdRY2FhNlVRSi93bFgzWHptWjBmcmxFdHNMMTloa1NJNGdzaWpqTjRBWmtRWTJqalByTnFxYnRHQjNldDFlNjZ0ZmRiS3ZHYi82TG9tNU1hWkF2V3oyaTE4T0RIUG84eExQWU1hRTdBV2xKNVhvWitEL3hQMHZ2YzY5cHVQZ3JvcDh3V3RRZzBxaGFOa0JqQ3Y1L3piYmYyM2E4aHlUaXRCdkdVQWZ0eDIvczJtS09URzkwWlZZK2t4VFNHa1E4b3V0bndtMzhCcWlKeTJxZDd1KzVTbElBdER1SFRGVlZaMzZJRXZGOFRibEdqbmxDU2JnSFg4T2xDV3o0aHlYMW92NTUwYUJ2MUt3djJDdmJXS3djNEYra25SRTNncDJHL2dZYjFHdHF3SCs3dHFRVHpOb0JHc1BjdTdFM2N3Q2RkSGZEaEFrb045dDRPd1NPL2NoMWZJQkZKdmZPUjZNRG45czVuQXI2blVXOXR1dC83ZVhuNDVGYlcxS2QyQVNVaFBFZkhnWThDMUxSMm9SWmd6Q3VnVUlDOU90VlZ5YUQ4OGFxRXdWZTl0dllGU1RDZkhYNzJIQS8yRyticTZVc3E5WXM4eUtLQk9XR3RCdEFJSVdvT1lXMjZDTzBMdFVjZ1krQkRodkd2N1hpd1RaQTF0SE4zdjBNVW9zUHZJRjlHcDM1U011RDVyZGpSZy9XQ2ZkVGI1Mkc5alh0clU3Nm92ZW5HNjFVbnU3U1QwZlVaMEIyU1lDMVNldEl0a005TVlCRG9FVDRCVVpRSEtuY0QxaCtDclZMNWxrYjdUTnJ4VFhWdGRXdnYxdG5PU1QrdjY2YnJxTHQxMGpuVHJiT2pkcHZpeklDMWhCQVBkRHVsMVpmVTZ4RndaMU5aMUlMWWpRMzVia3g0b3JSQnpyMk1udWdvQnhwL1VEMHpWSmF3am1vNGp1SU1jSFduUlhYSG9HNE0zOHFUNHRsdTVmZE1wOVBybFUrS3c4NHZYY2RSbkRHUHRKL2JFT2VJSGE1dS9BQytVK0dKYjdxUHhDSGZtTy9rZjZNRmViVUFsdk9CYjlpUHF5SGZWenBEdm0wRE1EQWNCM2lIL2ZwSVN3WmE3b01PTVBEcER2WFUwK24wcWNNK2tSOXBkeGFwM1RjcDE4WjJyUi9HajdRYmlrOUUxMEx0Ukx2ZUlaMGg3ZHY2cnJSdk1yblREazk2RWc1bzMyVTVwRE9nZmRkbFQ1dmFRK09SemsyWHQ3bStmZVpSbDMwZjNUOXkxVDJuMHozMmdEZWRlbUwyRVpNMzJuY01EdWtNYWQvMlRrK2I2cFB2TUhHbGZkODdkOXBndDZRQjdjZTlBeG05Y0FFYndGQTcxUEZKUGM0clQrMU5aLy9jRS8yOXQxRTB1K3I2SkV4cFBqL2YyMEt3TDQweEdBZDZnV2p5U3FmRmlYaWJvOFZJK3VuNEFWMktFMmxBbDJLSmVhQUxzbjFsNzNRQkh6RHVzL0ZEdW1BbnJVY1pZSkZtaEwzY0tCWXFzSG45SEJRcmN0M0pvcmN0dytkN2Z3TzhOb081cVQzZzZiaWVEc1hCYlE2S2t3SE5wK2M3L0ZMTWhiQytMWHVMYlR1YUF0aXNldlZBZHdYK1JlLzlZVWY3MjJmQXJsN3hTL2ZOSTkxckczQUlPV2pMRC9oWmlLc2Y2Zlp5NmVqYzVUQ2cyOHY3WVV5bnd3YzYxTFpkaG11NDZ2SE96NEJPajkwZUkzZmFQZTRlYVZOYnR4clM3ckYzb3oya005d1hEN1FOd0ZMNFNKdnFteC9JcU5zcm56eUR3ZGNETHZxSWJYam04bTNFZG1zZlBDZmIrd3NheDI2SFp5ckpwK2NkMTVod0htNzdFNDQ4NExVU0tQYW5YUlhFaXZqUW5YUzh0cWRjYjJ2dEhQV25YaXY3ZFV2dEVNUjVnTDFiQk4vL1V6OC9DZnVKYk9FNWgvMzVQTFU5K1p1YjlEekV2cDd5ZExteW1vaFRJdU1mblluVW5vT1l4enp2bG5NKzVhQ0RVMFI2bnBHRWp5ZUpOYzBMdTR4S1p4NGtYdjhkRXFmWmFrcWpQKzdmT1g4Qy9RcXIrL2xUdGJLTnE1eHJrUE8zZWRuLzh1enBUMDRaR1IzaVlDOTN2NXR0QVc4Z0xiM3pnN1pMejQ0YXlDTFBmeU1QMzU1MGZzNURNK0NoTzcvNkszaGoydk93eDlQTVBndnM4TmJHNHIwK2pQOVYxa2VqQ2xpdHBJSmxFNFF1UzZHWmw4dmYrN3BzRFNMOVdxZldqR1o4TkhPQ0NBNXNEbGhNdGMvS2JuMndHMlN1bzROYjJqUXFnZXlQUnRIMFJBZm8wQWhmcHhrTkQ5YVlXdkZiWHhmOXE1UU9SR2J1TllMcGVMUWc0dDFSSGgvNmRtM0dTZWxBNWtIcFFIUXM5VkY4MHRMaDIyeXBqVnlmK3Zxb3U4dmE0Rm5Za3pTemJLUGVycTlhd1pyMTN1TzB2TmFmOW4zMjdLMnY4OVQ0UWlNbFBaRnBSdGxsMkZLWFFkLzYya3l0SFFQclM2dUhkbldMdnVscFdNc0RQVm50c2tLSVVIbDZZa285MUtyemdrSjNnZ3BadHRWbWMxUkc4SXplUG1QM1dlWjlUQ3RUdnVQaDlseWJ3WFZ6Z2RlcUg5dDBicjJsMC9mQld1VTJrelRxV3laWVU2dTU2aktJWGg1MGZxb2J0L1dZZDFsYzJpeTNvOU9ONldSR1Bha09hNkU3OVpvaDNQb29Qc1V1MnUwOGQ2ZlhsTzlPQWFtSDdYVFFaeVRVNHplUGZVOXpVSHcxejNQUUU0TXVBcnpOVWJlNGZKd0RQdnVNK3o1SDMvYzhCODBrdXd6dzJpZUxWRDRQOU1EYTBzeDZNQ2VOL3Z2VFRYb2E4TkRYWWZnNmIzdmkzbWNPRDMxcXF4djdHdEhBbkRTYkdjaXVQWm52TXBYYkhOZSs1emtBdHl2cGFRN1lkM3FYMVYzbkVHQmQxV0FkOXBhZTdqL04wZmYxVVpadURlajM3UnZ0UHFMK1h0L3pjMTI3MHdIWVBhazlZZTlQQkxyMlhRNTlwUDJkdnVmbituYWYzY2dESFhYbmZ5bGc4WW0vbTE2dmRCL3hRT25lMm85MDJlNzA1bkp0My9CM3pRUyswL2Y4WE5lK3kvbHhiM1J0YWp2dDhKSG56L3Vlbnh2c3B6YWFidTBSdGNub0htSFRQbXAzNmx2VUR6YXB0UVd0VE5vVEJvcUg2cmFXTmdzTTczM1hESUtlZkxTWUE1dVQ0R3ZHMFBZOTBCTzdVN0xIT2RQV053em5vQ2NHeHZNYzdZbmgweHkzdnZzY2JjYlBEdVpvVHdYd2NJNzJSUExiT2JvczdGRk9YYWJXZS9qdWhBWnN1ajZRVTNzU1duLyszSUErMzltdXdScHVmUS8wS0M0R2MxSTdPS1FmZHZpNjk5MVBsT2pmQWlUcS9XU29iY3YwUktIM3VaajZEc0FJYms4TjcvUWhnaDdRYnR2M2sxbHFRNVBIVEZpdDZLbGZsN0ZkWmZCcFgvMllUYmU4RFhWNm8zdHIzM2xyVCtnNmpIL1M5L3pjSGZQMEpJcTV6MzFyUC9CM3hlT25mYy9QM1dWeDNRTlhHZC9hRHpMdTl0SWp6KzJKMmdQZGZ2LzFkRCtOR0gvd3BtVDQxd2JmaVlQQkVsQ1VkRkZSTzdOYzBYZHREMzJvL1U1M3kzQWMxKzZzTm9yQTdUdGtXR0gvM281R1RpNy85SDZZbnN1QmgvbWw3Kzk2ZnYvVmQ4VFBQUHhmZUVkczA3Mm44OWN6QjdCMWtMTVM1eGU4SWE3MDF0ZlJOd3hobndIS1hCY3pYZnNvS25IZHZpVWVqS05abXNxMHVVbUhTdGdiRVBmQ1BnSi9DWHRNNy81cW9ZMGhxQjNScVg5dmZ2SGIyaXZIMTdlMVYvei95MXpJWXB2ajNVNDZ2blBlOE9PL2ZQcTVzNGh1Tllud3BjTnhleVpSSTJvZkV2M3BMeE1zL09XYk44WTkrdTduVkh2Nk50YTFwb3k3MXZZZXRYWFpaQmZNbGI3S3FTcUMvT1BGWDJpWmwvVFZVUXY5VnUza3piUFk0N1U0V091bkFQaGRjdWJaclNlNXU1YmJ5cWVsUTRSd1BxbEJIdDM2MTFQUWpQYmhPU3c5SS9xenZ6SzdMR2NNKzJaOXU3OWVMNXJWL1FVUTVFbWYvZDNZNVVmdjZkK3pqcDYvMXJld2h4aFZRWTVadjVicUhJRlZFT25iOXRSZm93dHdJajd1VzlkKytpc3hIbkVnVFZyZHhrLzcrcmZOc2R4VTN5MnNZMi9sZW5rMTN4enlUWG1zWVVqL0FNZjBGWDU5aWFNdzZkdVhlOEVnKy9MUzljVVB4WUs4MEJkSCtuMlI0dlpHKzE3SEIxLzZVcjdQeS9wZUF1dC9UTEJJVGJBclBxcDVkTmpwaDkrNW55anJTemRsR0grdmdxODQ3UGJsNWlpZlFRYVVPUmI2YmdXTTlJbkkvNGpweUxZUmwzbDJIVlFlRCtsbWRzZ09SK2paSC9hMFpEQjdxZ01NTjVUNFh5OFU5UHZXamM1L2QxbDJuZk0zam1jWTlzc1hxV081clYzTXF5MHRULzJQMzV5T20vK0VoN3c0MFFjL1YvUW5jUGl1N24vL010VDlDL2V0N2tYbVc5VUw0aitrK1o4bzZOenNvMWRhR1h2WHozZjFCN0pVRkFiK3UvMXlMWUlGbVV3MzFhNWM5OC9SN3k2RnczL0V2aVZWUFRyYVJ2M1FlTjhjZDdCYXFybTI3N3Q2K0RpY2p1SG14empmUklNaTNtKzE5UU50WFB1T204d3ZkK2RoNmU5bkt1cG5lS2U3NUFFTTNCQU1ON3BYRXQxNitxY2VTM1dmQ0xGLy9ERkVGY01QQ1pYK2Nic3B2eUhVSXVhMjdMOE9JdkZ2QWRFalZMNFBxeEZFL3hpSUprTVFpZUl2QmRFZi81OCs2TzkxT1U4ZVFRQmZLNGlmZWJwLzNEY2RUbVcyMndOLzF3c0ttRThjMC9rYy9TY3NUbitHNDU5M1Noei9NdEQ4SDFmTi95U0MvM2FuTlBtRjl1Uzc4dnMvc3IrNUwwL2JjdkprMjM5MmY0TmFuN1Q4YTUwRXk0NWF2U3ZqaGYxelpmeTBWaWZjazlWKythZTBhaEIvcWpMTzduKzIvdGM2aTRNWUc5cnZ3cWpVdXk1RTVrbXAzRjlVS3M4UGxjcHgvNVJTUDczbDVTZDI2bmpMeTNqTHkzakx5M2pMeTNqTHkzakx5M2pMeTNqTHkzakx5M2pMeTNqTHkzakx5M2pMeTNqTHkzakx5M2pMeTNqTHkzakx5M2pMeTNqTHkzakx5M2pMeTNqTHkzakx5M2pMeTNqTHkzakx5M2pMeTNqTHkzakx5M2pMeTNqTHkzakx5M2pMeTNqTHkzakx5M2pMeTNqTHkzakx5M2pMeTNqTHkzakx5M2pMeTNqTHkzakx5M2pMeTNqTHkzakx5M2pMeTNqTHk3Ly9qbmk4NVdXODVXVzg1V1c4NWVVdjNQTHlPL3RVbUM5OCtaWFh2SHhhMS9jejE3eU1kWDFqWGQ5WTF6Zlc5WTExZldOZDMxalhOOWIxalhWOVkxM2ZXTmMzMXZXTmRYMWpYZDlZMXpmVzlZMTFmV05kMzFqWE45YjFqWFY5WTEzZldOYzMxdldOZFgxalhkOVkxemZXOVkxMWZXTmQzMWpYTjliMWpYVjlZMTNmV05jMzF2V05kWDFqWGQ5WTF6Zlc5WTExZldOZDMxalhOOWIxalhWOVkxM2ZXTmMzMXZXTmRYMWpYZCsvL281NHJPc2I2L3JHdXI2eHJ1OHYxZld4di9CLzN3N040K0ZRUHY3di9lai8vMVUvUkJzNjR2OEImbHQ7L2RpYWdyYW0mZ3Q7Jmx0Oy9teGZpbGUmZ3Q7IiB2aWV3Qm94PSItMC41IC0wLjUgMTY2IDM0NCIgaGVpZ2h0PSIzNDRweCIgd2lkdGg9IjE2NnB4IiB2ZXJzaW9uPSIxLjEiPjxkZWZzLz48Zz48cmVjdCBzdHJva2Utd2lkdGg9IjIiIHN0cm9rZT0iIzQwNDBmZiIgZmlsbD0iIzk5ZmZmZiIgaGVpZ2h0PSIxMzAiIHdpZHRoPSIxMjkiIHk9IjEiIHg9IjEiLz48ZyB0cmFuc2Zvcm09InRyYW5zbGF0ZSgtMC41IC0wLjUpIj48c3dpdGNoPjx0ZXh0IGZvbnQtd2VpZ2h0PSJib2xkIiB0ZXh0LWFuY2hvcj0ibWlkZGxlIiBmb250LXNpemU9IjEycHgiIGZvbnQtZmFtaWx5PSJIZWx2ZXRpY2EiIGZpbGw9IiMwMDAwMDAiIHk9IjIwIiB4PSI2NiI+R2VuZXJpYyBUZW50YWNsZTwvdGV4dD48L3N3aXRjaD48L2c+PHJlY3Qgc3Ryb2tlLXdpZHRoPSIyIiBzdHJva2U9IiMwMDg4MDAiIGZpbGw9IiNkNWU4ZDQiIGhlaWdodD0iMjEwIiB3aWR0aD0iMTI5IiB5PSIxMzMiIHg9IjEiLz48cmVjdCBzdHJva2U9Im5vbmUiIGZpbGw9IiNmZmU2Y2MiIGhlaWdodD0iMjQwIiB3aWR0aD0iNzAiIHk9IjI2LjczIiB4PSI5NCIvPjxnIHRyYW5zZm9ybT0idHJhbnNsYXRlKC0wLjUgLTAuNSkiPjxzd2l0Y2g+PHRleHQgdGV4dC1hbmNob3I9Im1pZGRsZSIgZm9udC1zaXplPSIxMnB4IiBmb250LWZhbWlseT0iSGVsdmV0aWNhIiBmaWxsPSIjRDA4MDAwIiB5PSI0NiIgeD0iMTI5Ij5JbmtidXM8L3RleHQ+PC9zd2l0Y2g+PC9nPjxwYXRoIHN0cm9rZS1taXRlcmxpbWl0PSIxMCIgc3Ryb2tlPSIjMDAwMDAwIiBmaWxsPSJub25lIiBkPSJNIDEwNSAxOTUuNTggTCAxMTYuOCAxOTUuNTggTSAxNTIuMiAxOTUuNTggTCAxNjQgMTk1LjU4IE0gMTIxLjUyIDE5NC44IEwgMTQ5Ljg0IDE4MyIvPjxlbGxpcHNlIHN0cm9rZT0iIzAwMDAwMCIgZmlsbD0icmdiKDI1NSwgMjU1LCAyNTUpIiByeT0iMi4zNTk1IiByeD0iMi4zNiIgY3k9IjE5NS41OCIgY3g9IjE0OS44NCIvPjxlbGxpcHNlIHN0cm9rZT0iIzAwMDAwMCIgZmlsbD0icmdiKDI1NSwgMjU1LCAyNTUpIiByeT0iMi4zNTk1IiByeD0iMi4zNiIgY3k9IjE5NS41OCIgY3g9IjExOS4xNiIvPjxnIGZvbnQtc2l6ZT0iMTJweCIgdGV4dC1hbmNob3I9Im1pZGRsZSIgZm9udC1mYW1pbHk9IkhlbHZldGljYSIgZmlsbD0iIzAwMDAwMCI+PHRleHQgeT0iMjE0LjUiIHg9IjEzNCI+VVNCPC90ZXh0PjwvZz48cGF0aCBzdHJva2UtbWl0ZXJsaW1pdD0iMTAiIHN0cm9rZT0iIzAwMDAwMCIgZmlsbD0ibm9uZSIgZD0iTSAyMiAxMDguNTggTCAzMy44IDEwOC41OCBNIDY5LjIgMTA4LjU4IEwgODEgMTA4LjU4IE0gMzguNTIgMTA3LjggTCA2Ni44NCA5NiIvPjxlbGxpcHNlIHN0cm9rZT0iIzAwMDAwMCIgZmlsbD0icmdiKDI1NSwgMjU1LCAyNTUpIiByeT0iMi4zNTk1IiByeD0iMi4zNiIgY3k9IjEwOC41OCIgY3g9IjY2Ljg0Ii8+PGVsbGlwc2Ugc3Ryb2tlPSIjMDAwMDAwIiBmaWxsPSJyZ2IoMjU1LCAyNTUsIDI1NSkiIHJ5PSIyLjM1OTUiIHJ4PSIyLjM2IiBjeT0iMTA4LjU4IiBjeD0iMzYuMTYiLz48ZyBmb250LXNpemU9IjEycHgiIHRleHQtYW5jaG9yPSJtaWRkbGUiIGZvbnQtZmFtaWx5PSJIZWx2ZXRpY2EiIGZpbGw9IiMwMDAwMDAiPjx0ZXh0IHk9IjEyNy41IiB4PSI1MSI+Qm9vdCBEVVQ8L3RleHQ+PC9nPjxwYXRoIHN0cm9rZS1kYXNoYXJyYXk9IjIgNiIgc3Ryb2tlLW1pdGVybGltaXQ9IjEwIiBzdHJva2Utd2lkdGg9IjIiIHN0cm9rZS1vcGFjaXR5PSIwIiBzdHJva2U9IiNmZjAwMDAiIGZpbGw9Im5vbmUiIGQ9Ik0gNDEgMTQxIEwgOTEgOTEiLz48cmVjdCBzdHJva2U9Im5vbmUiIGZpbGw9Im5vbmUiIGhlaWdodD0iNDQuOCIgd2lkdGg9IjQ0LjgiIHk9IjQxIiB4PSIzMy4xIi8+PHBhdGggc3Ryb2tlPSJub25lIiBmaWxsPSIjNDQ5NWQxIiBkPSJNIDYyLjMyIDcyLjY5IEMgNjAuNzcgNzIuNjkgNTkuNjYgNzEuNDYgNTkuNjYgNzAuMDYgQyA1OS42NiA2OC45NiA2MC42MiA2Ny41MyA2Mi4zMiA2Ny41MyBDIDYzLjU0IDY3LjUzIDY0LjgyIDY4LjQ1IDY0LjgyIDcwLjA2IEMgNjQuODIgNzEuNDYgNjMuNzggNzIuNjkgNjIuMzIgNzIuNjkgTCA2Mi4zMiA3Mi42OSBaIE0gNjcuNzIgNzUuNjIgTCA2Ny43MiA1MS4wOCBMIDQzLjU3IDUxLjA4IEwgNDMuNTcgNzUuNjIgTCA2Ny43MiA3NS42MiBaIE0gNDIuOCA3OC4zOSBDIDQxLjc2IDc4LjM5IDQwLjggNzcuNzEgNDAuOCA3Ni40MSBMIDQwLjggNTAuMzEgQyA0MC44IDQ4Ljg5IDQxLjkgNDguMzEgNDIuNzYgNDguMzEgTCA2OC41IDQ4LjMxIEMgNjkuNjkgNDguMzEgNzAuNDcgNDkuMSA3MC40NyA1MC4zMyBMIDcwLjQ3IDc2LjI3IEMgNzAuNDkgNzcuNiA2OS43MiA3OC4zOSA2OC4zOSA3OC4zOSBMIDQyLjggNzguMzkgWiBNIDcyLjQ4IDc1LjQxIEwgNzIuNDggNzIuNzcgTCA3Ny45IDcyLjc3IEwgNzcuOSA3NS40MSBMIDcyLjQ4IDc1LjQxIFogTSA3Mi40OCA3MC4xMSBMIDcyLjQ4IDY3LjQ1IEwgNzcuOSA2Ny40NSBMIDc3LjkgNzAuMTEgTCA3Mi40OCA3MC4xMSBaIE0gNzIuNDggNjQuOTggTCA3Mi40OCA2Mi40IEwgNzcuOSA2Mi40IEwgNzcuOSA2NC45OCBMIDcyLjQ4IDY0Ljk4IFogTSA3Mi40OCA1OS45MSBMIDcyLjQ4IDU3LjI3IEwgNzcuOSA1Ny4yNyBMIDc3LjkgNTkuOTEgTCA3Mi40OCA1OS45MSBaIE0gNzIuNDggNTQuNjEgTCA3Mi40OCA1MS45NiBMIDc3LjkgNTEuOTYgTCA3Ny45IDU0LjYxIEwgNzIuNDggNTQuNjEgWiBNIDMzLjEgNTQuNjEgTCAzMy4xIDUxLjk2IEwgMzguNTUgNTEuOTYgTCAzOC41NSA1NC42MSBMIDMzLjEgNTQuNjEgWiBNIDMzLjEgNTkuOTEgTCAzMy4xIDU3LjI3IEwgMzguNTUgNTcuMjcgTCAzOC41NSA1OS45MSBMIDMzLjEgNTkuOTEgWiBNIDMzLjEgNjQuOTggTCAzMy4xIDYyLjQgTCAzOC41NSA2Mi40IEwgMzguNTUgNjQuOTggTCAzMy4xIDY0Ljk4IFogTSAzMy4xIDcwLjExIEwgMzMuMSA2Ny40NSBMIDM4LjU1IDY3LjQ1IEwgMzguNTUgNzAuMTEgTCAzMy4xIDcwLjExIFogTSAzMy4xIDc1LjQxIEwgMzMuMSA3Mi43NyBMIDM4LjU1IDcyLjc3IEwgMzguNTUgNzUuNDEgTCAzMy4xIDc1LjQxIFogTSA0NC4wNyA0Ni40NSBMIDQ0LjA3IDQxIEwgNDYuNyA0MSBMIDQ2LjcgNDYuNDUgTCA0NC4wNyA0Ni40NSBaIE0gNDkuMzQgNDYuNDUgTCA0OS4zNCA0MSBMIDUxLjk5IDQxIEwgNTEuOTkgNDYuNDUgTCA0OS4zNCA0Ni40NSBaIE0gNTQuNDQgNDYuNDUgTCA1NC40NCA0MSBMIDU3LjA1IDQxIEwgNTcuMDUgNDYuNDUgTCA1NC40NCA0Ni40NSBaIE0gNTkuNSA0Ni40NSBMIDU5LjUgNDEgTCA2Mi4xMiA0MSBMIDYyLjEyIDQ2LjQ1IEwgNTkuNSA0Ni40NSBaIE0gNjQuNzUgNDYuNDUgTCA2NC43NSA0MSBMIDY3LjQgNDEgTCA2Ny40IDQ2LjQ1IEwgNjQuNzUgNDYuNDUgWiBNIDY0Ljc1IDg1LjggTCA2NC43NSA4MC4yOSBMIDY3LjQgODAuMjkgTCA2Ny40IDg1LjggTCA2NC43NSA4NS44IFogTSA1OS41IDg1LjggTCA1OS41IDgwLjI5IEwgNjIuMTIgODAuMjkgTCA2Mi4xMiA4NS44IEwgNTkuNSA4NS44IFogTSA1NC40NCA4NS44IEwgNTQuNDQgODAuMjkgTCA1Ny4wNSA4MC4yOSBMIDU3LjA1IDg1LjggTCA1NC40NCA4NS44IFogTSA0OS4zNCA4NS44IEwgNDkuMzQgODAuMjkgTCA1MS45OSA4MC4yOSBMIDUxLjk5IDg1LjggTCA0OS4zNCA4NS44IFogTSA0NC4wNyA4NS44IEwgNDQuMDcgODAuMjkgTCA0Ni43IDgwLjI5IEwgNDYuNyA4NS44IEwgNDQuMDcgODUuOCBaIi8+PHJlY3Qgc3Ryb2tlPSJub25lIiBmaWxsPSJub25lIiBoZWlnaHQ9IjgwIiB3aWR0aD0iMjAiIHk9IjI2LjczIiB4PSIxIi8+PGcgdHJhbnNmb3JtPSJ0cmFuc2xhdGUoLTAuNSAtMC41KXJvdGF0ZSgtOTAgMTEgNjYuNzMwMDAwMDAwMDAwMDIpIj48c3dpdGNoPjx0ZXh0IHRleHQtYW5jaG9yPSJtaWRkbGUiIGZvbnQtc2l6ZT0iMTJweCIgZm9udC1mYW1pbHk9IkhlbHZldGljYSIgZmlsbD0iIzQwNDBGRiIgeT0iNzAiIHg9IjExIj5BVEU8L3RleHQ+PC9zd2l0Y2g+PC9nPjxyZWN0IHN0cm9rZT0ibm9uZSIgZmlsbD0ibm9uZSIgaGVpZ2h0PSI2Ni4yNyIgd2lkdGg9IjIwIiB5PSIxMzQuNzMiIHg9IjIiLz48ZyB0cmFuc2Zvcm09InRyYW5zbGF0ZSgtMC41IC0wLjUpcm90YXRlKC05MCAxMiAxNjcuODY1KSI+PHN3aXRjaD48dGV4dCB0ZXh0LWFuY2hvcj0ibWlkZGxlIiBmb250LXNpemU9IjEycHgiIGZvbnQtZmFtaWx5PSJIZWx2ZXRpY2EiIGZpbGw9IiMwMDg4MDAiIHk9IjE3MSIgeD0iMTIiPkRVVDwvdGV4dD48L3N3aXRjaD48L2c+PHBhdGggc3Ryb2tlLW1pdGVybGltaXQ9IjEwIiBzdHJva2Utd2lkdGg9IjIiIHN0cm9rZT0iIzQwNDBmZiIgZmlsbD0ibm9uZSIgZD0iTSA5NCAxMzEgTCAxNjQgMTMxIi8+PHBhdGggc3Ryb2tlLW1pdGVybGltaXQ9IjEwIiBzdHJva2Utd2lkdGg9IjIiIHN0cm9rZT0iIzAwODgwMCIgZmlsbD0ibm9uZSIgZD0iTSA5NCAxMzMgTCAxNjQgMTMzIi8+PHBhdGggc3Ryb2tlLW1pdGVybGltaXQ9IjEwIiBzdHJva2U9IiMwMDAwMDAiIGZpbGw9Im5vbmUiIGQ9Ik0gMTA1IDE1MS40NSBMIDExNi44IDE1MS40NSBNIDE1Mi4yIDE1MS40NSBMIDE2NCAxNTEuNDUgTSAxMjEuNTIgMTUwLjY3IEwgMTQ5Ljg0IDEzOC44NyIvPjxlbGxpcHNlIHN0cm9rZT0iIzAwMDAwMCIgZmlsbD0icmdiKDI1NSwgMjU1LCAyNTUpIiByeT0iMi4zNTk1IiByeD0iMi4zNiIgY3k9IjE1MS40NSIgY3g9IjE0OS44NCIvPjxlbGxpcHNlIHN0cm9rZT0iIzAwMDAwMCIgZmlsbD0icmdiKDI1NSwgMjU1LCAyNTUpIiByeT0iMi4zNTk1IiByeD0iMi4zNiIgY3k9IjE1MS40NSIgY3g9IjExOS4xNiIvPjxnIGZvbnQtc2l6ZT0iMTJweCIgdGV4dC1hbmNob3I9Im1pZGRsZSIgZm9udC1mYW1pbHk9IkhlbHZldGljYSIgZmlsbD0iIzAwMDAwMCI+PHRleHQgeT0iMTcwLjM3IiB4PSIxMzQiPjVWPC90ZXh0PjwvZz48cGF0aCBzdHJva2UtbWl0ZXJsaW1pdD0iMTAiIHN0cm9rZT0iIzAwMDAwMCIgZmlsbD0ibm9uZSIgZD0iTSAxMDUgMjQyLjcxIEwgMTE2LjggMjQyLjcxIE0gMTUyLjIgMjQyLjcxIEwgMTY0IDI0Mi43MSBNIDEyMS41MiAyNDEuOTMgTCAxNDkuODQgMjMwLjEzIi8+PGVsbGlwc2Ugc3Ryb2tlPSIjMDAwMDAwIiBmaWxsPSJyZ2IoMjU1LCAyNTUsIDI1NSkiIHJ5PSIyLjM1OTUiIHJ4PSIyLjM2IiBjeT0iMjQyLjcxIiBjeD0iMTQ5Ljg0Ii8+PGVsbGlwc2Ugc3Ryb2tlPSIjMDAwMDAwIiBmaWxsPSJyZ2IoMjU1LCAyNTUsIDI1NSkiIHJ5PSIyLjM1OTUiIHJ4PSIyLjM2IiBjeT0iMjQyLjcxIiBjeD0iMTE5LjE2Ii8+PGcgZm9udC1zaXplPSIxMnB4IiB0ZXh0LWFuY2hvcj0ibWlkZGxlIiBmb250LWZhbWlseT0iSGVsdmV0aWNhIiBmaWxsPSIjMDAwMDAwIj48dGV4dCB5PSIyNjEuNjMiIHg9IjEzNCI+SU88L3RleHQ+PC9nPjxyZWN0IHN0cm9rZT0ibm9uZSIgZmlsbD0ibm9uZSIgaGVpZ2h0PSI1MCIgd2lkdGg9IjUwIiB5PSIyMTIuOTkiIHg9IjIxIi8+PHBhdGggc3Ryb2tlPSJub25lIiBmaWxsPSIjNDM0NDQ1IiBkPSJNIDM3LjQyIDIxMi45OSBDIDM2Ljg1IDIxMyAzNi4zOSAyMTMuNDcgMzYuNCAyMTQuMDMgTCAzNi40IDIxOC44OSBMIDI5LjU1IDIxOC44OSBDIDI4LjE1IDIxOC44OSAyNyAyMjAuMDQgMjcgMjIxLjQzIEwgMjcgMjI4LjUxIEwgMjIuMDkgMjI4LjUxIEMgMjEuNzIgMjI4LjUgMjEuMzcgMjI4LjY5IDIxLjE4IDIyOS4wMSBDIDIwLjk5IDIyOS4zMyAyMC45OSAyMjkuNzMgMjEuMTggMjMwLjA1IEMgMjEuMzcgMjMwLjM3IDIxLjcyIDIzMC41NyAyMi4wOSAyMzAuNTYgTCAyNyAyMzAuNTYgTCAyNyAyMzQuMTkgTCAyMi4wOSAyMzQuMTkgQyAyMS41MiAyMzQuMTkgMjEuMDYgMjM0LjY1IDIxLjA2IDIzNS4yMiBDIDIxLjA2IDIzNS43OSAyMS41MiAyMzYuMjUgMjIuMDkgMjM2LjI1IEwgMjcgMjM2LjI1IEwgMjcgMjM5Ljg4IEwgMjIuMDkgMjM5Ljg4IEMgMjEuNzIgMjM5Ljg3IDIxLjM3IDI0MC4wNyAyMS4xOCAyNDAuMzkgQyAyMC45OSAyNDAuNzEgMjAuOTkgMjQxLjExIDIxLjE4IDI0MS40MyBDIDIxLjM3IDI0MS43NSAyMS43MiAyNDEuOTQgMjIuMDkgMjQxLjkzIEwgMjcgMjQxLjkzIEwgMjcgMjQ1LjU3IEwgMjIuMDkgMjQ1LjU3IEMgMjEuNzIgMjQ1LjU3IDIxLjM4IDI0NS43NiAyMS4yIDI0Ni4wOCBDIDIxLjAyIDI0Ni40IDIxLjAyIDI0Ni43OSAyMS4yIDI0Ny4xMSBDIDIxLjM4IDI0Ny40MyAyMS43MiAyNDcuNjIgMjIuMDkgMjQ3LjYyIEwgMjcgMjQ3LjYyIEwgMjcgMjU0LjIyIEMgMjcgMjU1LjYxIDI4LjE1IDI1Ni43NiAyOS41NSAyNTYuNzYgTCAzNi40IDI1Ni43NiBMIDM2LjQgMjYxLjkgQyAzNi40IDI2Mi4yNiAzNi42IDI2Mi42IDM2LjkyIDI2Mi43OSBDIDM3LjI0IDI2Mi45NyAzNy42MyAyNjIuOTcgMzcuOTUgMjYyLjc5IEMgMzguMjcgMjYyLjYgMzguNDYgMjYyLjI2IDM4LjQ2IDI2MS45IEwgMzguNDYgMjU2Ljc2IEwgNDIuMTIgMjU2Ljc2IEwgNDIuMTIgMjYxLjkgQyA0Mi4xMiAyNjIuMjYgNDIuMzIgMjYyLjYgNDIuNjQgMjYyLjc5IEMgNDIuOTYgMjYyLjk3IDQzLjM1IDI2Mi45NyA0My42NyAyNjIuNzkgQyA0My45OSAyNjIuNiA0NC4xOCAyNjIuMjYgNDQuMTggMjYxLjkgTCA0NC4xOCAyNTYuNzYgTCA0Ny44NCAyNTYuNzYgTCA0Ny44NCAyNjEuOSBDIDQ3Ljg0IDI2Mi40NiA0OC4zIDI2Mi45MiA0OC44NyAyNjIuOTIgQyA0OS40NCAyNjIuOTIgNDkuOSAyNjIuNDYgNDkuOSAyNjEuOSBMIDQ5LjkgMjU2Ljc2IEwgNTMuNTYgMjU2Ljc2IEwgNTMuNTYgMjYxLjkgQyA1My41NiAyNjIuNDYgNTQuMDIgMjYyLjkyIDU0LjU5IDI2Mi45MiBDIDU1LjE2IDI2Mi45MiA1NS42MiAyNjIuNDYgNTUuNjIgMjYxLjkgTCA1NS42MiAyNTYuNzYgTCA2Mi41MSAyNTYuNzYgQyA2My45IDI1Ni43NiA2NS4wNSAyNTUuNjEgNjUuMDUgMjU0LjIyIEwgNjUuMDUgMjQ3LjYyIEwgNjkuOTEgMjQ3LjYyIEMgNzAuMjggMjQ3LjYyIDcwLjYyIDI0Ny40MyA3MC44IDI0Ny4xMSBDIDcwLjk4IDI0Ni43OSA3MC45OCAyNDYuNCA3MC44IDI0Ni4wOCBDIDcwLjYyIDI0NS43NiA3MC4yOCAyNDUuNTcgNjkuOTEgMjQ1LjU3IEwgNjUuMDUgMjQ1LjU3IEwgNjUuMDUgMjQxLjkzIEwgNjkuOTEgMjQxLjkzIEMgNzAuMjggMjQxLjk0IDcwLjYzIDI0MS43NSA3MC44MiAyNDEuNDMgQyA3MS4wMSAyNDEuMTEgNzEuMDEgMjQwLjcxIDcwLjgyIDI0MC4zOSBDIDcwLjYzIDI0MC4wNyA3MC4yOCAyMzkuODcgNjkuOTEgMjM5Ljg4IEwgNjUuMDUgMjM5Ljg4IEwgNjUuMDUgMjM2LjI1IEwgNjkuOTEgMjM2LjI1IEMgNzAuNDggMjM2LjI1IDcwLjk0IDIzNS43OSA3MC45NCAyMzUuMjIgQyA3MC45NCAyMzQuNjUgNzAuNDggMjM0LjE5IDY5LjkxIDIzNC4xOSBMIDY1LjA1IDIzNC4xOSBMIDY1LjA1IDIzMC41NiBMIDY5LjkxIDIzMC41NiBDIDcwLjI4IDIzMC41NyA3MC42MyAyMzAuMzcgNzAuODIgMjMwLjA1IEMgNzEuMDEgMjI5LjczIDcxLjAxIDIyOS4zMyA3MC44MiAyMjkuMDEgQyA3MC42MyAyMjguNjkgNzAuMjggMjI4LjUgNjkuOTEgMjI4LjUxIEwgNjUuMDUgMjI4LjUxIEwgNjUuMDUgMjIxLjQzIEMgNjUuMDUgMjIwLjA0IDYzLjkgMjE4Ljg5IDYyLjUxIDIxOC44OSBMIDU1LjYyIDIxOC44OSBMIDU1LjYyIDIxNC4wMyBDIDU1LjYyIDIxMy43NiA1NS41MiAyMTMuNDkgNTUuMzIgMjEzLjI5IEMgNTUuMTIgMjEzLjEgNTQuODUgMjEyLjk5IDU0LjU3IDIxMi45OSBDIDU0LjAxIDIxMyA1My41NSAyMTMuNDcgNTMuNTYgMjE0LjAzIEwgNTMuNTYgMjE4Ljg5IEwgNDkuOSAyMTguODkgTCA0OS45IDIxNC4wMyBDIDQ5LjkxIDIxMy43NiA0OS44IDIxMy40OSA0OS42IDIxMy4yOSBDIDQ5LjQgMjEzLjEgNDkuMTMgMjEyLjk5IDQ4Ljg2IDIxMi45OSBDIDQ4LjI5IDIxMyA0Ny44MyAyMTMuNDcgNDcuODQgMjE0LjAzIEwgNDcuODQgMjE4Ljg5IEwgNDQuMTggMjE4Ljg5IEwgNDQuMTggMjE0LjAzIEMgNDQuMTkgMjEzLjc2IDQ0LjA4IDIxMy40OSA0My44OCAyMTMuMjkgQyA0My42OCAyMTMuMSA0My40MSAyMTIuOTkgNDMuMTQgMjEyLjk5IEMgNDIuNTcgMjEzIDQyLjExIDIxMy40NyA0Mi4xMiAyMTQuMDMgTCA0Mi4xMiAyMTguODkgTCAzOC40NiAyMTguODkgTCAzOC40NiAyMTQuMDMgQyAzOC40NyAyMTMuNzYgMzguMzYgMjEzLjQ5IDM4LjE2IDIxMy4yOSBDIDM3Ljk2IDIxMy4xIDM3LjcgMjEyLjk5IDM3LjQyIDIxMi45OSBaIE0gMjkuNTUgMjIwLjk0IEwgNjIuNTEgMjIwLjk0IEMgNjIuNzkgMjIwLjk0IDYyLjk5IDIyMS4xNCA2Mi45OSAyMjEuNDMgTCA2Mi45OSAyNTQuMjIgQyA2Mi45OSAyNTQuNTEgNjIuNzkgMjU0LjcgNjIuNTEgMjU0LjcgTCAyOS41NSAyNTQuNyBDIDI5LjI2IDI1NC43IDI5LjA2IDI1NC41MSAyOS4wNiAyNTQuMjIgTCAyOS4wNiAyMjEuNDMgQyAyOS4wNiAyMjEuMTQgMjkuMjYgMjIwLjk0IDI5LjU1IDIyMC45NCBaIE0gNTAuNzYgMjIzLjE2IEMgNTAuMTkgMjIzLjE2IDQ5LjcyIDIyMy42MiA0OS43MiAyMjQuMTkgQyA0OS43MiAyMjQuNzUgNTAuMTkgMjI1LjIxIDUwLjc2IDIyNS4yMSBMIDU4LjMzIDIyNS4yMSBMIDU4LjMzIDIzMi44NCBDIDU4LjMyIDIzMy4yMiA1OC41MSAyMzMuNTYgNTguODQgMjMzLjc1IEMgNTkuMTYgMjMzLjk0IDU5LjU2IDIzMy45NCA1OS44OCAyMzMuNzUgQyA2MC4yIDIzMy41NiA2MC40IDIzMy4yMiA2MC4zOSAyMzIuODQgTCA2MC4zOSAyMjQuMTkgQyA2MC4zOSAyMjMuOTIgNjAuMjggMjIzLjY1IDYwLjA5IDIyMy40NiBDIDU5Ljg5IDIyMy4yNyA1OS42MyAyMjMuMTYgNTkuMzYgMjIzLjE2IFogTSAzMi41MyAyMjMuMiBDIDMxLjk3IDIyMy4yIDMxLjUgMjIzLjY2IDMxLjUgMjI0LjIzIEwgMzEuNSAyMzIuOCBDIDMxLjUgMjMzLjM3IDMxLjk3IDIzMy44MyAzMi41MyAyMzMuODMgQyAzMy4xIDIzMy44MyAzMy41NiAyMzMuMzcgMzMuNTYgMjMyLjggTCAzMy41NiAyMjUuMjYgTCA0MS4yMiAyMjUuMjYgQyA0MS42IDIyNS4yNyA0MS45NSAyMjUuMDcgNDIuMTQgMjI0Ljc1IEMgNDIuMzMgMjI0LjQzIDQyLjMzIDIyNC4wMyA0Mi4xNCAyMjMuNzEgQyA0MS45NSAyMjMuMzkgNDEuNiAyMjMuMTkgNDEuMjIgMjIzLjIgWiBNIDMyLjU2IDI0MS42NiBDIDMxLjk5IDI0MS42NyAzMS41NCAyNDIuMTQgMzEuNTUgMjQyLjcgTCAzMS41NSAyNTEuMzYgQyAzMS41NSAyNTEuOTIgMzIuMDEgMjUyLjM4IDMyLjU4IDI1Mi4zOCBMIDQxLjE4IDI1Mi4zOCBDIDQxLjU1IDI1Mi4zOCA0MS44OSAyNTIuMTkgNDIuMDcgMjUxLjg3IEMgNDIuMjYgMjUxLjU1IDQyLjI2IDI1MS4xNiA0Mi4wNyAyNTAuODQgQyA0MS44OSAyNTAuNTMgNDEuNTUgMjUwLjMzIDQxLjE4IDI1MC4zMyBMIDMzLjYxIDI1MC4zMyBMIDMzLjYxIDI0Mi43IEMgMzMuNjEgMjQyLjQzIDMzLjUgMjQyLjE2IDMzLjMgMjQxLjk2IEMgMzMuMTEgMjQxLjc3IDMyLjg0IDI0MS42NiAzMi41NiAyNDEuNjYgWiBNIDU5LjM5IDI0MS43IEMgNTguODIgMjQxLjcxIDU4LjM2IDI0Mi4xOCA1OC4zNyAyNDIuNzUgTCA1OC4zNyAyNTAuMjkgTCA1MC43MSAyNTAuMjkgQyA1MC4xNCAyNTAuMjkgNDkuNjggMjUwLjc1IDQ5LjY4IDI1MS4zMSBDIDQ5LjY4IDI1MS44OCA1MC4xNCAyNTIuMzQgNTAuNzEgMjUyLjM0IEwgNTkuNCAyNTIuMzQgQyA1OS45NyAyNTIuMzQgNjAuNDMgMjUxLjg4IDYwLjQzIDI1MS4zMSBMIDYwLjQzIDI0Mi43NSBDIDYwLjQ0IDI0Mi40NyA2MC4zMyAyNDIuMiA2MC4xMyAyNDIgQyA1OS45MyAyNDEuODEgNTkuNjYgMjQxLjcgNTkuMzkgMjQxLjcgWiIvPjwvZz48c3dpdGNoPjxnLz48YSB0YXJnZXQ9Il9ibGFuayIgeGxpbms6aHJlZj0iaHR0cHM6Ly93d3cuZGlhZ3JhbXMubmV0L2RvYy9mYXEvc3ZnLWV4cG9ydC10ZXh0LXByb2JsZW1zIiB0cmFuc2Zvcm09InRyYW5zbGF0ZSgwLC01KSI+PHRleHQgeT0iMTAwJSIgeD0iNTAlIiBmb250LXNpemU9IjEwcHgiIHRleHQtYW5jaG9yPSJtaWRkbGUiPlRleHQgaXMgbm90IFNWRyAtIGNhbm5vdCBkaXNwbGF5PC90ZXh0PjwvYT48L3N3aXRjaD48L3N2Zz4=;" parent="9XvdeewJi5H3TVdUopXr-2" vertex="1">
                    <mxGeometry width="166" height="344" as="geometry"/>
                </mxCell>
                <mxCell id="6bS_RCBzzbipsxGdoiMo-9" value="" style="endArrow=none;html=1;strokeWidth=2;strokeColor=#FF0000;" parent="9XvdeewJi5H3TVdUopXr-2" edge="1">
                    <mxGeometry width="50" height="50" relative="1" as="geometry">
                        <mxPoint x="104" y="195" as="sourcePoint"/>
                        <mxPoint x="63" y="245" as="targetPoint"/>
                    </mxGeometry>
                </mxCell>
                <mxCell id="6bS_RCBzzbipsxGdoiMo-11" value="" style="endArrow=none;html=1;strokeWidth=2;strokeColor=#FF0000;" parent="9XvdeewJi5H3TVdUopXr-2" edge="1">
                    <mxGeometry width="50" height="50" relative="1" as="geometry">
                        <mxPoint x="63" y="232" as="sourcePoint"/>
                        <mxPoint x="105" y="151" as="targetPoint"/>
                    </mxGeometry>
                </mxCell>
                <mxCell id="QVaBI0Wi_gaqylhbhUQJ-4" value="" style="endArrow=none;html=1;strokeWidth=2;strokeColor=#FF0000;" parent="9XvdeewJi5H3TVdUopXr-2" edge="1">
                    <mxGeometry width="50" height="50" relative="1" as="geometry">
                        <mxPoint x="45" y="219" as="sourcePoint"/>
                        <mxPoint x="21" y="110" as="targetPoint"/>
                    </mxGeometry>
                </mxCell>
                <mxCell id="9XvdeewJi5H3TVdUopXr-3" value="" style="group" parent="1" vertex="1" connectable="0">
                    <mxGeometry x="420" y="500" width="166" height="344" as="geometry"/>
                </mxCell>
                <mxCell id="9XvdeewJi5H3TVdUopXr-4" value="DUT: ESP32" style="shape=image;imageAspect=0;aspect=fixed;verticalLabelPosition=bottom;verticalAlign=top;image=data:image/svg+xml,PHN2ZyB4bWxuczp4bGluaz0iaHR0cDovL3d3dy53My5vcmcvMTk5OS94bGluayIgeG1sbnM9Imh0dHA6Ly93d3cudzMub3JnLzIwMDAvc3ZnIiBjb250ZW50PSImbHQ7bXhmaWxlJmd0OyZsdDtkaWFncmFtIGlkPSZxdW90Ozh5SzlSM3p2VDhzUldjaEdUSWlKJnF1b3Q7IG5hbWU9JnF1b3Q7Z2VuZXJpYy10ZW50YWNsZSZxdW90OyZndDs3VmxiYzZNMkdQMDFmZ3pEelFZZVk4ZE9NbTJubVhVMlNSOFZrRUVOSUkrUUw4bXZyd1RpSWlRN2NZTzN1NTM0d1lPT2J1Zzc1N3ZJSGptemJIOU53RHI1QTBjd0hkbG10Qjg1VnlQYnRqMlhmWFBnVlFDQlZ3RXhRVkVGV1Myd1JHOVFnS1pBTnlpQ2hUU1FZcHhTdEpiQkVPYzVES21FQVVMd1RoNjJ3cW04NnhyRVVBR1dJVWhWOUJGRk5LbFEzL1phL0FhaU9LbDN0aVpCMVpPQmVyQTRTWkdBQ084NmtETWZPVE9DTWEyZXN2ME1wdHgydFYycWVZc0R2YzJMRVpqVGoweXdxd2xia0c3RTJhNWhEZ2tLR1hqUDFnQWhPM1AxcHZTMVBqN0JtenlDZkFWejVFeDNDYUp3dVFZaDc5MHh2aG1XMEN4bExZczliaUdoaUpudU1rVnh6akNLK1lDQ0V2elNHSThkZTdwQ2Fib1VleFE0NVM5WVlqT2NZbEx1NndUQmduMmEyWjBlMTNUTnNtZUZjOXJCemZJajhIcDFqWkVFeE44VjdqdVFNTm8xeEJtazVKVU5xU1hzQ2dLRmdnUFIzTFZ5c0d4QmV0S1ZnaU1HQWlIQnVGbTZaWWs5Q0tMMHBOMlM1ZXdiZUZqOGZiMS9SS3RwTXB2ZlBGMVlnVUxsVDBOY05JWis1T3FJTTAzZi95RUVOVkovajZFbXlBelBrT3BzdC9uTDg2YjRIRTg5VzY5V2NCS0dpcTF6bkVNK0R4UDB4a3dOanJQY1pjTlUzZXJLOUN1M0dvQW94M0Vrb2l4cmJIaU93cFZuYXFoeUI2QnFvbkViaGprV1A5LzM1VlFoaDRYc05YL005akZQYmdaTVdZb2gzSWJpRVY5a01FeEFYa0lGeXVNVUxuZUlodXdrVTFDc3E0UzBRbnRPOEJTbVZkK1NBc3BYeGFzVlExUHdETk1wQ0YvaVVnbzlFZzhGT1kxM2lSNDl5ME93NTdxeW0zbXFtNDExY2JBbGVYQS84NDh4T3VXcDFUYXZ2dDkvRVhzMGZrNHMyUzM5OFg5TzdBY3lITXlqUzE3Z3RUYU5RSkdVb2RTU3d5Ykg3d0Nsa09SVnlqRWRiWG83enBqQ3pHSWhtTUVzWUNQNktnTG9RVVpnSkpXYUtoOWRlMnRpWUkwUm1BS0t0bktCcW1OQTdIQ0hVVTQ3ZFB1OWRObXZVd3E4SVNFVXM3b0ZaVzhoeDVFWHN2emVRaFNRR0ZKbG9WSVF6YkUva1dTdDkwV3k1cHRETXQ4eU1nb2hoNllRTjd1YU1XWE5hRk5xTC8rNmJqQXVCNWZDdWNNRm9naHppWVdRYjlyeDJkOTdBNTR4cFRnNzZOUkF0SnAxOElhbUtHZXZVMTl5ek9vY1VoRGJRZ2d5STF4dkJnb0xubTMwQW9PamxyNnVhL2lxVkZ0MCtOTEtVMWkvdko4cnhMTkQwaE1aRlpCaS9ENUhHWW9pdm8yMldwUHJPYWtHMDFSWHpXVm1DTDU2WmZDQjZzcldSSmErNHc1SGxwcWdkZW40MXlDcnVjQU1RcGJzV2l5YWZwU3N5Y1NvZjMwWW5DL2IrVGQ1VnpiamlWbTBjUUhOZFZPMi8ySWhyaUxNN09UMVNTaWxiUHpGOXpiR2RmTnFMOTZsYXRXWkdlNFJmZW84ZDJheFZqdUpOMzZWYk42L1V6V1NPVFdidStZN0M1MDVtOXZ1RDVkZTQ5QmYwaHRHZXZaUTByUFBKVDNkdmFLNU1JNGZGTVg5M3k2S1NvYlNDT3pqdndEWW51RjdTdEk2NDEyeC9zRk96OS90bjEvOG5jS2ZZd1dHcFJZZForUXZ2TGtJSi9PSDM1YlAyOFczMjh2SHQzc3p2dENTMnVmeEJaYWNsSUh4dkpjNlppVjNyR1AvSjdubGJTUHBqdmNwUmRnVCtjN2dtSllSQktvaWppU1JFK1RBbXUzZlhWWHdidjh6ZE9iL0FBPT0mbHQ7L2RpYWdyYW0mZ3Q7Jmx0O2RpYWdyYW0gaWQ9JnF1b3Q7eDBFWHFpc1p4SUFBRkppUzdDaDEmcXVvdDsgbmFtZT0mcXVvdDtFeGFtcGxlIHRlc3RzZXR1cCZxdW90OyZndDs3WDFaazZNNHMvYXZtY3Q1ZzdXbWZWazJZRU1adVZna0REY25XUHdhczlpMEM5dkFyLzlTZ0JmYzFkUDl6Wm5wT1JkTVJJY3RXYVJTbVk5eUVaV2EzL2haWHMyUGZoSHJoMmlUL2NZeFVmVWJMLzNHY1N6L2h3QWZ0S2Z1ZXNRSjMzVnNqN3VvSDNUdnNIYk5wdTlrK3Q3VEx0cDhEQWFXaDBOVzdvcGhaM2pZN3pkaE9lanpqOGZEWlRqc3Y0ZHNPR3ZoYnpmZmRGaWhuMzNiNit5aU11NTZ2M0IvM1BzWG05MDJ2czdNdmt5NlgzTC9PcmhmeVVmc1I0ZkxReGN2LzhiUGpvZEQyWDNMcTlrbW84Szd5cVY3VHZuT3J6ZkdqcHQ5K1RNUDFMKy9YYUtkTDZIS2VPV1NCVW9iMGZ1OVY4Ylp6MDc5Z250bXkvb3FBZUM3b0Y5M2VTdXFhZnY1K2xGMDBtYWd4NzgyL3J1ck5qRGI5THc1bGp1UTRkSVBOdG43NFdOWDdnNTcrRDA0bE9VaGZ4andtdTIyOUlmeVVGd3BReXZ5Uy84My9yVnJjc3JIZWZzYk42MXlXTXpzZllFNHI1NEtnVk9kd3FZUWdubDI4aHRtNXk5TUpwUU81eVVmOFZFdDhub3Ruc004UE90MktxNnNTVGV1VnJlYk9mc1I3UFdKbXNkTXRIaDlXZFlUZUNJOFJZMStDbmh0djJ6VWl5Njlua1BlMjZ1N2FSSndJdU01SXZOdXFYbXdNUDRJMW5IdU8xV201Ukd6cXIyUFNDcFQzMUgyWWE2VTZqeEwzeTJ2aXB3SnMycGkwV295UytjTGpraHhnN01vOGVVSVcwNzJwdTBWTnVDTlA5UzVHQWNPbmx6YkhrZE8zbG9yM0pwdDUzUWQ5T0ZkNmRYZVBwSStlQ2V2ZG01REdpUjdtckdiZk1XN2lXNWdWdE56N3h4eDV2dEtVcEMzS09KTlpqSlJNaVVZZXdjZEsxOTlodVFXYjNKNlkzNllXQU5lSnI2SEk4YmVreFJodEREblJZbTRTVzV6cU1TeXNyU2xTUFZUbHpIbnF1amJjV3c1aFJvMXlBaWFhSW9jOUZWbnA5Z2c3aGxsOFQ2VUZjdklvcW5mYUxMdG1FdVlyeVoxT2ZVVVpBWno4dzM0T1poY2pGMmlFSDMraGRGNVVodGM5dTdZcEFqenFQUWE4d1huMFF0YW9ETWhadTRwU3FQejJjemdrYWJQWTRReUwzR2JMWTlaZElnUzl4SW9XOUYweUJ0V29uZWdoUWxucnNraWNzTjE5TzV6ckJYeDA3MkhKNFhGUjZxRnlUeG9pT1VvaGhnczRyM2pGTVNaeTdVelZ4akVLOWlzSnkrT0U3MEVzNG5zczhiWjVEWEpXa3lYbmp4aFF0WVRmVG1HZmszMm5Pd3J5YU0zMnlaSmxLSGpzbEVTYnk2bVZ1NnBtUG5nUGE1b1RDaytta3o1cmp0VjQ2eXpGS1VHWXpUSzBlTDBJekNnQm5tV09IYnNiYVRwbTQ0OUh1Kzl4TWZ4VjVMS1RNQk1samFaZnZYU1NnazVrbGhwVVdMZUVIMG5PdnVzTGdLOWcwdW9kRFRXYUxSNGsxZTV2OUQ4SURjNHd5blNpRTlabEdJMjNFZGZQY0Ria2luaUZZbVpqUk8vK1E2eFFiZWxuY1lYSzFOclg0a0trNWtBR2d2TlhXdXV1WWd0Z3hTSnVUNVVaSkZlMEpySWdJa1RZSHFGU2JRMzh2SXRtRWVYYU01d1RxN1lIdllrcjRsV0JvOXJaNkVKNW13aWJxenloR3o1YkswVjdEbmF4WEc4ZXBPRWpHMVBVYUM4Q2s2T0RKTmtCMGYyOW9aVlppakxjbCt1cHFZU2xVc3V0bjI1YUR5R3hhdjU5aEl0Q0xlU1RCZVJtTE5zMEsrVWdaeWp3c2swMytaQ0xseUFiR0IvK2FscElBVlZhRTdleVpvQWh2UUxTcWFzem1tenpWcmh6VlNaWWl4ZkNENHdPbWRXYnFwNHB1Slc5bHdwREVaeGpGVFV6Y2I4NnFTc1JDUjhqdXo0QkhhRXh5bjcxVnRuamJkSHJKWEdiNXVNek0zMWRPWnhiT282RWVVOXNZbG1CeWxyNnppYXJSWmhaU1NnenpsN0pQUGl6Wksxblp1V2hlbGNqZ1lYelRiN2VCSE9Tc1p4VUJMbVpVVVVUWVAxNW9aRFlEeUxySGtSQjNLWll5YzZlYndwbW5zc1luYnFBZzF6aFJYZFdCdU52WjlXcnFOOUpZMGloRXhHVmd2eTlzWjRYemR5bEc3c0RJZHJ6SHFPdHdOYk44UHorTHhrRGl6aXlVZUV0MHdrbWFzVjBjNU9hbWJPSWpvWVRTUVFmdnBpcnZXTG41WUViRTN0T0pWaE9acG96cXZDSTRXeklmRUM1TE5EVW94dE95NWdMNXdEaHAxalRIWXJpU0NMbXl3OFhKek5QS3BoK290SFlsZDNOQy9BQ3VQWTVnRXd5UUZLOW9TYmZBMllPRWJ6Q2ZaelVmVVc4Y0dXNUVaUFhCYURKUUM3ck9pNEZDS2lwTUZja3d5c2loYlJ6eUZUSmRqWjFodXNzYmJzbVM3UlZMeEF3SmZtbzBZNytvbVdoS21va0wzSEdsa21HQnhMN013czdJV1pCamFhNnc0RDFvNnB6Q1E4bWtxbU8zc3kyOHpSSW16TWxhMllzcVY0YjZHU0hXd1dsWlp5T0VQbkxGcEVlSk96SnozenlpQ1BxekR6YWhNTFRaQk9aaTRQMXN6T1JFZU9hcmZSRGthdWFTdEZlYkgyOFRsYXgwM0FWTXBHeWk0d2grY3gzZ21sMnRra1poazZXb3k1U1JMdHRkakJJZXhqYnhjcXl0ekQ4WnRWVDhBMlJMYkpvVHBLR1NGY1JLcTlCaitXaW11WHhNMXFQVjA1ZWZZUk9ldzV3c3dGTHdEN1NqeHpFdThjSmtpd3NzTXhhQXpla2hHL3laUTB5blRCU2VKWmFFY25BNXRUSzYwQUcxT0xLQWZCWHFSbk80a3Z5eVlVYkd6dUkyWjczc2dNRXluYjZvMEIveUZwbkk5bDFrMjhpMkVyUlNRcGN4MWp6a3EwRlBGVE81eFhtcjcya3NET1RvNXNKbEYrT0laenN3cm1vTGUxcWVCa3kwZnBKTkZ6c25aeHRTWks4VzVuVTl0elhCRTNpdU9uckxqQ0FvdmtMYitSeVZ1VWl3ZzFLV1BsWk9jc2lJR1RrSE5zOU5YbUJCYmJwUFNzTDRCMzFrYzhFcUs5bWRtTzZJY1o0Sk1oYTRNdlJDOVJ1RkJDeFdvdWVyYWpDcGozRm80c3h2WkNaK3o4SXBqcitHTWxNeldlZlRUMkFqUzdCejhqd1Y1SW94UHMwYjF1bGJyT3hRS1NEYzYzUGRHVDlMTXpkL2tsSDJjUkY0cElaZ1NYTDZyVlFqdThNZGxIWUpXOG5VVno0Qkg0alZRakFmb1MwOFlFUzg0c3dDN1Vyc1BrSHZoeExhK1kxYjF2Nnp2R3pjZUQ3VmVjaFFMN3FSQXNyRXpOdENod0UwbStKT2ZobXB6QngyOERpQ1U4bStuYnBiS1pLeVhJUDFNWFpoYnladU90VFRhY0RlTUNrcHNyMkFCTnhCQkRseFFqbEV2QUI0ek5WTllpY3UwM251K3hwaFpKa1Jjb0ttK1RlRzFoajQxd05YVTVrVU1Oc1cxNWV6UzVFaG1ZWER6T0JOL2pyWFd3ejBFQ01aY1N4K2IrbFRmM2NVeWNLSFlVYzI3WTJwVHc2SXdCZjJBTGRRQmFocFhZSUp4NGRKVG96Y1BheW1XVXl1U2lQWkc5Q3ZZRitDakZ4SE5sRmpiS3hjRGV5VktJYXN1VE45TlcrWUJoamtUVzFFMVc4T0NUelNWVGZvUkoxaGhaa2E0Y1FscC9JU0VqeEpoMzhhR3gwMktHODh4RHJGYlpPRHdiR05aSlpUY1gzdzJ1T29GTjA1eWN1ZmpyckRDSUlZUkVjWDNnTmNxbU01c2pvcGRtbFExZTBPQk16dUFtSEhLMDJzeEZKa2c4ejhBWllCZUpSbVBtdHFTZVE4NXNvclY1QkR1WW9iUUVmSmpZYXNDcnNJREJoUWJyQnh2TXdINW40N25MRnFLUmtOa2JWNXlKclZJOUhFUGlmUVR6clJnd1NoTHU0NVhONG92UG9tbEVQRFpneVhzRXNVekVrNHRsWjE2SUZkOUt3MXBuWk1iSDBRN0xwVzJzMWFQQm1JYk5rN21SWnJ3dmY2bDB0ckJ4V3V5TXZYWUtaTy9OYzVRM2o0RTRhVitzM0pSSUVITjgrRFp4WWIyd1I5Z1BoR1BWbGt6d1p4b3g3VXdMOWdUa3hYNVlDd1AySlJISkhsZWhuSzAzdWZZUzVHQW5KT1BvTnQ3Snp3c3RVbVFPNHFLWm5WYWxPUStGVFY2c1ZnNWFlbUJIbzczTzZiWjJjREZSd0Q3NEh2aFpoTFVpek1pTGJVZXJJTXRFc0RrazRqUUo4N0ZqYzhVeWJMSXBoRE1NWG11QTllbk9VcFJFWDc4eTdsNWhDR042NEh1ZFRUb3h6RVdoMkFTZGJCN1o3dHI3NnV4VGRzbDhzSVFwRHFFdEN5dUNLOEpVWXNpVkJHTEt5NUpqR2tkeWo0NVZycU1tbm03eUx3M0lIZlJNMGpDRkhUQlhCQ01qbHJzbXZwNW9id2hpTFY4eTlXQWZndDJOa1lVbkRNU3U0b3BrTXp2UExqWldKUEFSZGJoL2JUWnlqSWpEV2pyRXpFNFdYalp5SmtFc1VQbEo1dmgydFBRd0s0YU9lZFFicEpwejlpc2hYa3BTa1VXU2R3UmRLeGFPRTVmVExKS1poMlVqMXlhSmowRktISWpwbG1EalBsWUVsYjVqQ2xqUkxoRDdGcHZkaEFGLzYra094RmxZZk5jVDlJYlNPTEZrcjQ3V0JyZEowQnJseG5HRlJRUHNLTEwyNUFMeHZ3Kys0a3pXRUZmeU1zVFprYi9rV1AyTkU1ZzNwb3hOTzlaTjJUaGJYRndzdVhKdjVnTGtQMU9Jc1NJZUw4elMzYnZuTjY3a0lqbGtTRUppSWlFR2JPWE9rcVkxN09zbTVOeDZROHdFL0o1QjhyaUIrTEpCVE9VYmdEbVVSeGhpQUlpLzRnd3hMbzNoR0h2dGlxR2tpNlprSHIwa1MwSTJBdDFNZHFqeDBvZ2NqajRqZm13azhOa054RFNZK0poaEliNUNSU1NqTjh4NHJpbVJENXN2Vm1helBlclpWRFd6S2Y5dS80bmRyU2ZsWnU0VndSeTNmWkREY1JELzhrWStFU0NISy9XWndLb3o1ckpNOEZhM1hVNlZkQWJOMUswL0o0WEh4VFRQYTVCa1hqYlFGM0ZaR3MyM0V6V1JPYlNmQ3BRVzVHZU43MHhPTUs1YUp2THVQYWxTaUx1YVpTTjg4ZUJmbUVOK01KczIwVUk3K3h3dTd6VFVuYnBBVEpoUGptRGJkMnBqWEpBMHpiMmR1dlhBeHdjUzdVdEZML2ZhdmdkK0tyMTVoV2Vqd2x1WWg3YWRwTkJPS1YvdzJmSzNhK2V2cDBCZk9ZVWN4QWM1TTFIM0pzaEdCUHdyakdkdEg5ZGVxQW53eWtkRk5FY0hXQVBqcldOR25VT010emVBNSt2YzJpN2dxaFRXM2Y2K2RKU1R5OFVRZXpDN3dNbFNqL3FrM1RTbk9mSnlEWGpOTWVXbERoZmIzWldXQi9ZWThtVVJhS21lVTRIOFFHZWNUSDhISFYwbTZrNm4rVGI5MTY5SnZRQk5xaXNPN1ZUSSs4MWJWanpGdDZ6WXZweWpPUkVpU2ZpeTVCSHZyMDNZeGZDZEMrR0o5NFdXdWJ5eEJWOVpCMXlaTGRjMzJkVkErNnFiZnU2dDBNNTk0d2VseU1HQ0p4blFGMmVRZngwaTBJMmV5SlF2SHZZbjQ5TzJyWXJRRmp2OTZBTTlQR0Znb3ViaU9jang0eHlnWmN5NW5QNDBoekdZQXpVM21YRExKR3g2dVlpQTF6UG9iQS94UUt0Zkw1L1VBV0FLNW91RFBmcHcxMmIyMW1OOGFiK2VrSlZTbkRhQVJkaVYyMVpDWnJaWkdOdFdoak0yRG5KMENIZ1ZPR1VMYjI1K2VCWkY1ZVFFdnpYK3VzamFWWFk3b05PMjQ4V0FnSThOekdyTkljdklDZU03S0thL2c3WS9ZSHhpU3E5VXNwZGVTZ3hvYzd1NVNpNFJ0U0F2ZDlGYUIvMjF2RkN1WnBOSEhtZVRQWEI5Z2RVY2JqdkhZa3ZRZFJibVZRSHpkN3NEZHVwVjAzVGVIazJYT3kvZ0hUbVJJaldGNzBpVjVBdXlYcXVWalNGajNXN3QyV3NGbHVDMG1qMzB3ZS9JVmsvNmJqZ09KUVpZRGZCQUNSWlVtWUh2MUFyZ0dtaUNWZ1RvdTBDZklTNlRMUU45Z2w2M21zb0N5S3JDQmNxR0ZxRGprL0ovdFFCaEh1M2VKQlZTUXFDVFlIWTVlNjJSRGJ0MU42MnByUFdkMENDWXYyMUxmUnZrNnZLdE5SQ1JKYkNyR1cyM2FHUldsaUQwYVBtM2VLaUFod3ArN3hEYlc0V1F5MTdvL0JBMWRKYjJ4empNSVJzb0Fyb2IwamdMRmg3RTRsbmlXby9XODdhV0I0UzNISU1rUUV2WFBkcWdkZ1FoYUFZWWF5M2JlM0k1dDlZYkxLWC9ZTDBweHNEMmZQZ3dkN3REN2RmZGorUVhBTDh0My9BZGNGUlRESUdWdVdLbzBXdkFDV0J3TmFOeW1nSWVYY0NMQ3JoNUZUcGNYYllyU1g1b0E4NGErbnc3aGdkc1VUcGdIYWx1WDhWZXRyOUt2ejNmVi8yNlhJdjEzUmNxYzdBRWtNOWZRZzcvYUVmV0hxY2VIbWIvVUZ1T3FGL1RxTFdvbDRuT3dzNmpiYUZ2Yy9ROHR1WHdLaG5hcGh3MjdnbDI4TlVIZnU2UE9qeVVZQzhUZno2cGdRY2FhNlVRSi93bFgzWHptWjBmcmxFdHNMMTloa1NJNGdzaWpqTjRBWmtRWTJqalByTnFxYnRHQjNldDFlNjZ0ZmRiS3ZHYi82TG9tNU1hWkF2V3oyaTE4T0RIUG84eExQWU1hRTdBV2xKNVhvWitEL3hQMHZ2YzY5cHVQZ3JvcDh3V3RRZzBxaGFOa0JqQ3Y1L3piYmYyM2E4aHlUaXRCdkdVQWZ0eDIvczJtS09URzkwWlZZK2t4VFNHa1E4b3V0bndtMzhCcWlKeTJxZDd1KzVTbElBdER1SFRGVlZaMzZJRXZGOFRibEdqbmxDU2JnSFg4T2xDV3o0aHlYMW92NTUwYUJ2MUt3djJDdmJXS3djNEYra25SRTNncDJHL2dZYjFHdHF3SCs3dHFRVHpOb0JHc1BjdTdFM2N3Q2RkSGZEaEFrb045dDRPd1NPL2NoMWZJQkZKdmZPUjZNRG45czVuQXI2blVXOXR1dC83ZVhuNDVGYlcxS2QyQVNVaFBFZkhnWThDMUxSMm9SWmd6Q3VnVUlDOU90VlZ5YUQ4OGFxRXdWZTl0dllGU1RDZkhYNzJIQS8yRyticTZVc3E5WXM4eUtLQk9XR3RCdEFJSVdvT1lXMjZDTzBMdFVjZ1krQkRodkd2N1hpd1RaQTF0SE4zdjBNVW9zUHZJRjlHcDM1U011RDVyZGpSZy9XQ2ZkVGI1Mkc5alh0clU3Nm92ZW5HNjFVbnU3U1QwZlVaMEIyU1lDMVNldEl0a005TVlCRG9FVDRCVVpRSEtuY0QxaCtDclZMNWxrYjdUTnJ4VFhWdGRXdnYxdG5PU1QrdjY2YnJxTHQxMGpuVHJiT2pkcHZpeklDMWhCQVBkRHVsMVpmVTZ4RndaMU5aMUlMWWpRMzVia3g0b3JSQnpyMk1udWdvQnhwL1VEMHpWSmF3am1vNGp1SU1jSFduUlhYSG9HNE0zOHFUNHRsdTVmZE1wOVBybFUrS3c4NHZYY2RSbkRHUHRKL2JFT2VJSGE1dS9BQytVK0dKYjdxUHhDSGZtTy9rZjZNRmViVUFsdk9CYjlpUHF5SGZWenBEdm0wRE1EQWNCM2lIL2ZwSVN3WmE3b01PTVBEcER2WFUwK24wcWNNK2tSOXBkeGFwM1RjcDE4WjJyUi9HajdRYmlrOUUxMEx0Ukx2ZUlaMGg3ZHY2cnJSdk1yblREazk2RWc1bzMyVTVwRE9nZmRkbFQ1dmFRK09SemsyWHQ3bStmZVpSbDMwZjNUOXkxVDJuMHozMmdEZWRlbUwyRVpNMzJuY01EdWtNYWQvMlRrK2I2cFB2TUhHbGZkODdkOXBndDZRQjdjZTlBeG05Y0FFYndGQTcxUEZKUGM0clQrMU5aLy9jRS8yOXQxRTB1K3I2SkV4cFBqL2YyMEt3TDQweEdBZDZnV2p5U3FmRmlYaWJvOFZJK3VuNEFWMktFMmxBbDJLSmVhQUxzbjFsNzNRQkh6RHVzL0ZEdW1BbnJVY1pZSkZtaEwzY0tCWXFzSG45SEJRcmN0M0pvcmN0dytkN2Z3TzhOb081cVQzZzZiaWVEc1hCYlE2S2t3SE5wK2M3L0ZMTWhiQytMWHVMYlR1YUF0aXNldlZBZHdYK1JlLzlZVWY3MjJmQXJsN3hTL2ZOSTkxckczQUlPV2pMRC9oWmlLc2Y2Zlp5NmVqYzVUQ2cyOHY3WVV5bnd3YzYxTFpkaG11NDZ2SE96NEJPajkwZUkzZmFQZTRlYVZOYnR4clM3ckYzb3oya005d1hEN1FOd0ZMNFNKdnFteC9JcU5zcm56eUR3ZGNETHZxSWJYam04bTNFZG1zZlBDZmIrd3NheDI2SFp5ckpwK2NkMTVod0htNzdFNDQ4NExVU0tQYW5YUlhFaXZqUW5YUzh0cWRjYjJ2dEhQV25YaXY3ZFV2dEVNUjVnTDFiQk4vL1V6OC9DZnVKYk9FNWgvMzVQTFU5K1p1YjlEekV2cDd5ZExteW1vaFRJdU1mblluVW5vT1l4enp2bG5NKzVhQ0RVMFI2bnBHRWp5ZUpOYzBMdTR4S1p4NGtYdjhkRXFmWmFrcWpQKzdmT1g4Qy9RcXIrL2xUdGJLTnE1eHJrUE8zZWRuLzh1enBUMDRaR1IzaVlDOTN2NXR0QVc4Z0xiM3pnN1pMejQ0YXlDTFBmeU1QMzU1MGZzNURNK0NoTzcvNkszaGoydk93eDlQTVBndnM4TmJHNHIwK2pQOVYxa2VqQ2xpdHBJSmxFNFF1UzZHWmw4dmYrN3BzRFNMOVdxZldqR1o4TkhPQ0NBNXNEbGhNdGMvS2JuMndHMlN1bzROYjJqUXFnZXlQUnRIMFJBZm8wQWhmcHhrTkQ5YVlXdkZiWHhmOXE1UU9SR2J1TllMcGVMUWc0dDFSSGgvNmRtM0dTZWxBNWtIcFFIUXM5VkY4MHRMaDIyeXBqVnlmK3Zxb3U4dmE0Rm5Za3pTemJLUGVycTlhd1pyMTN1TzB2TmFmOW4zMjdLMnY4OVQ0UWlNbFBaRnBSdGxsMkZLWFFkLzYya3l0SFFQclM2dUhkbldMdnVscFdNc0RQVm50c2tLSVVIbDZZa285MUtyemdrSjNnZ3BadHRWbWMxUkc4SXplUG1QM1dlWjlUQ3RUdnVQaDlseWJ3WFZ6Z2RlcUg5dDBicjJsMC9mQld1VTJrelRxV3laWVU2dTU2aktJWGg1MGZxb2J0L1dZZDFsYzJpeTNvOU9ONldSR1Bha09hNkU3OVpvaDNQb29Qc1V1MnUwOGQ2ZlhsTzlPQWFtSDdYVFFaeVRVNHplUGZVOXpVSHcxejNQUUU0TXVBcnpOVWJlNGZKd0RQdnVNK3o1SDMvYzhCODBrdXd6dzJpZUxWRDRQOU1EYTBzeDZNQ2VOL3Z2VFRYb2E4TkRYWWZnNmIzdmkzbWNPRDMxcXF4djdHdEhBbkRTYkdjaXVQWm52TXBYYkhOZSs1emtBdHl2cGFRN1lkM3FYMVYzbkVHQmQxV0FkOXBhZTdqL04wZmYxVVpadURlajM3UnZ0UHFMK1h0L3pjMTI3MHdIWVBhazlZZTlQQkxyMlhRNTlwUDJkdnVmbituYWYzY2dESFhYbmZ5bGc4WW0vbTE2dmRCL3hRT25lMm85MDJlNzA1bkp0My9CM3pRUyswL2Y4WE5lK3kvbHhiM1J0YWp2dDhKSG56L3Vlbnh2c3B6YWFidTBSdGNub0htSFRQbXAzNmx2VUR6YXB0UVd0VE5vVEJvcUg2cmFXTmdzTTczM1hESUtlZkxTWUE1dVQ0R3ZHMFBZOTBCTzdVN0xIT2RQV053em5vQ2NHeHZNYzdZbmgweHkzdnZzY2JjYlBEdVpvVHdYd2NJNzJSUExiT2JvczdGRk9YYWJXZS9qdWhBWnN1ajZRVTNzU1duLyszSUErMzltdXdScHVmUS8wS0M0R2MxSTdPS1FmZHZpNjk5MVBsT2pmQWlUcS9XU29iY3YwUktIM3VaajZEc0FJYms4TjcvUWhnaDdRYnR2M2sxbHFRNVBIVEZpdDZLbGZsN0ZkWmZCcFgvMllUYmU4RFhWNm8zdHIzM2xyVCtnNmpIL1M5L3pjSGZQMEpJcTV6MzFyUC9CM3hlT25mYy9QM1dWeDNRTlhHZC9hRHpMdTl0SWp6KzJKMmdQZGZ2LzFkRCtOR0gvd3BtVDQxd2JmaVlQQkVsQ1VkRkZSTzdOYzBYZHREMzJvL1U1M3kzQWMxKzZzTm9yQTdUdGtXR0gvM281R1RpNy85SDZZbnN1QmgvbWw3Kzk2ZnYvVmQ4VFBQUHhmZUVkczA3Mm44OWN6QjdCMWtMTVM1eGU4SWE3MDF0ZlJOd3hobndIS1hCY3pYZnNvS25IZHZpVWVqS05abXNxMHVVbUhTdGdiRVBmQ1BnSi9DWHRNNy81cW9ZMGhxQjNScVg5dmZ2SGIyaXZIMTdlMVYvei95MXpJWXB2ajNVNDZ2blBlOE9PL2ZQcTVzNGh1Tllud3BjTnhleVpSSTJvZkV2M3BMeE1zL09XYk44WTkrdTduVkh2Nk50YTFwb3k3MXZZZXRYWFpaQmZNbGI3S3FTcUMvT1BGWDJpWmwvVFZVUXY5VnUza3piUFk0N1U0V091bkFQaGRjdWJaclNlNXU1YmJ5cWVsUTRSd1BxbEJIdDM2MTFQUWpQYmhPU3c5SS9xenZ6SzdMR2NNKzJaOXU3OWVMNXJWL1FVUTVFbWYvZDNZNVVmdjZkK3pqcDYvMXJld2h4aFZRWTVadjVicUhJRlZFT25iOXRSZm93dHdJajd1VzlkKytpc3hIbkVnVFZyZHhrLzcrcmZOc2R4VTN5MnNZMi9sZW5rMTN4enlUWG1zWVVqL0FNZjBGWDU5aWFNdzZkdVhlOEVnKy9MUzljVVB4WUs4MEJkSCtuMlI0dlpHKzE3SEIxLzZVcjdQeS9wZUF1dC9UTEJJVGJBclBxcDVkTmpwaDkrNW55anJTemRsR0grdmdxODQ3UGJsNWlpZlFRYVVPUmI2YmdXTTlJbkkvNGpweUxZUmwzbDJIVlFlRCtsbWRzZ09SK2paSC9hMFpEQjdxZ01NTjVUNFh5OFU5UHZXamM1L2QxbDJuZk0zam1jWTlzc1hxV081clYzTXF5MHRULzJQMzV5T20vK0VoN3c0MFFjL1YvUW5jUGl1N24vL010VDlDL2V0N2tYbVc5VUw0aitrK1o4bzZOenNvMWRhR1h2WHozZjFCN0pVRkFiK3UvMXlMWUlGbVV3MzFhNWM5OC9SN3k2RnczL0V2aVZWUFRyYVJ2M1FlTjhjZDdCYXFybTI3N3Q2K0RpY2p1SG14empmUklNaTNtKzE5UU50WFB1T204d3ZkK2RoNmU5bkt1cG5lS2U3NUFFTTNCQU1ON3BYRXQxNitxY2VTM1dmQ0xGLy9ERkVGY01QQ1pYK2Nic3B2eUhVSXVhMjdMOE9JdkZ2QWRFalZMNFBxeEZFL3hpSUprTVFpZUl2QmRFZi81OCs2TzkxT1U4ZVFRQmZLNGlmZWJwLzNEY2RUbVcyMndOLzF3c0ttRThjMC9rYy9TY3NUbitHNDU5M1Noei9NdEQ4SDFmTi95U0MvM2FuTlBtRjl1Uzc4dnMvc3IrNUwwL2JjdkprMjM5MmY0TmFuN1Q4YTUwRXk0NWF2U3ZqaGYxelpmeTBWaWZjazlWKythZTBhaEIvcWpMTzduKzIvdGM2aTRNWUc5cnZ3cWpVdXk1RTVrbXAzRjlVS3M4UGxjcHgvNVJTUDczbDVTZDI2bmpMeTNqTHkzakx5M2pMeTNqTHkzakx5M2pMeTNqTHkzakx5M2pMeTNqTHkzakx5M2pMeTNqTHkzakx5M2pMeTNqTHkzakx5M2pMeTNqTHkzakx5M2pMeTNqTHkzakx5M2pMeTNqTHkzakx5M2pMeTNqTHkzakx5M2pMeTNqTHkzakx5M2pMeTNqTHkzakx5M2pMeTNqTHkzakx5M2pMeTNqTHkzakx5M2pMeTNqTHkzakx5M2pMeTNqTHkzakx5M2pMeTNqTHk3Ly9qbmk4NVdXODVXVzg1V1c4NWVVdjNQTHlPL3RVbUM5OCtaWFh2SHhhMS9jejE3eU1kWDFqWGQ5WTF6Zlc5WTExZldOZDMxalhOOWIxalhWOVkxM2ZXTmMzMXZXTmRYMWpYZDlZMXpmVzlZMTFmV05kMzFqWE45YjFqWFY5WTEzZldOYzMxdldOZFgxalhkOVkxemZXOVkxMWZXTmQzMWpYTjliMWpYVjlZMTNmV05jMzF2V05kWDFqWGQ5WTF6Zlc5WTExZldOZDMxalhOOWIxalhWOVkxM2ZXTmMzMXZXTmRYMWpYZCsvL281NHJPc2I2L3JHdXI2eHJ1OHYxZld4di9CLzN3N040K0ZRUHY3di9lai8vMVUvUkJzNjR2OEImbHQ7L2RpYWdyYW0mZ3Q7Jmx0Oy9teGZpbGUmZ3Q7IiB2aWV3Qm94PSItMC41IC0wLjUgMTY2IDM0NCIgaGVpZ2h0PSIzNDRweCIgd2lkdGg9IjE2NnB4IiB2ZXJzaW9uPSIxLjEiPjxkZWZzLz48Zz48cmVjdCBzdHJva2Utd2lkdGg9IjIiIHN0cm9rZT0iIzQwNDBmZiIgZmlsbD0iIzk5ZmZmZiIgaGVpZ2h0PSIxMzAiIHdpZHRoPSIxMjkiIHk9IjEiIHg9IjEiLz48ZyB0cmFuc2Zvcm09InRyYW5zbGF0ZSgtMC41IC0wLjUpIj48c3dpdGNoPjx0ZXh0IGZvbnQtd2VpZ2h0PSJib2xkIiB0ZXh0LWFuY2hvcj0ibWlkZGxlIiBmb250LXNpemU9IjEycHgiIGZvbnQtZmFtaWx5PSJIZWx2ZXRpY2EiIGZpbGw9IiMwMDAwMDAiIHk9IjIwIiB4PSI2NiI+R2VuZXJpYyBUZW50YWNsZTwvdGV4dD48L3N3aXRjaD48L2c+PHJlY3Qgc3Ryb2tlLXdpZHRoPSIyIiBzdHJva2U9IiMwMDg4MDAiIGZpbGw9IiNkNWU4ZDQiIGhlaWdodD0iMjEwIiB3aWR0aD0iMTI5IiB5PSIxMzMiIHg9IjEiLz48cmVjdCBzdHJva2U9Im5vbmUiIGZpbGw9IiNmZmU2Y2MiIGhlaWdodD0iMjQwIiB3aWR0aD0iNzAiIHk9IjI2LjczIiB4PSI5NCIvPjxnIHRyYW5zZm9ybT0idHJhbnNsYXRlKC0wLjUgLTAuNSkiPjxzd2l0Y2g+PHRleHQgdGV4dC1hbmNob3I9Im1pZGRsZSIgZm9udC1zaXplPSIxMnB4IiBmb250LWZhbWlseT0iSGVsdmV0aWNhIiBmaWxsPSIjRDA4MDAwIiB5PSI0NiIgeD0iMTI5Ij5JbmtidXM8L3RleHQ+PC9zd2l0Y2g+PC9nPjxwYXRoIHN0cm9rZS1taXRlcmxpbWl0PSIxMCIgc3Ryb2tlPSIjMDAwMDAwIiBmaWxsPSJub25lIiBkPSJNIDEwNSAxOTUuNTggTCAxMTYuOCAxOTUuNTggTSAxNTIuMiAxOTUuNTggTCAxNjQgMTk1LjU4IE0gMTIxLjUyIDE5NC44IEwgMTQ5Ljg0IDE4MyIvPjxlbGxpcHNlIHN0cm9rZT0iIzAwMDAwMCIgZmlsbD0icmdiKDI1NSwgMjU1LCAyNTUpIiByeT0iMi4zNTk1IiByeD0iMi4zNiIgY3k9IjE5NS41OCIgY3g9IjE0OS44NCIvPjxlbGxpcHNlIHN0cm9rZT0iIzAwMDAwMCIgZmlsbD0icmdiKDI1NSwgMjU1LCAyNTUpIiByeT0iMi4zNTk1IiByeD0iMi4zNiIgY3k9IjE5NS41OCIgY3g9IjExOS4xNiIvPjxnIGZvbnQtc2l6ZT0iMTJweCIgdGV4dC1hbmNob3I9Im1pZGRsZSIgZm9udC1mYW1pbHk9IkhlbHZldGljYSIgZmlsbD0iIzAwMDAwMCI+PHRleHQgeT0iMjE0LjUiIHg9IjEzNCI+VVNCPC90ZXh0PjwvZz48cGF0aCBzdHJva2UtbWl0ZXJsaW1pdD0iMTAiIHN0cm9rZT0iIzAwMDAwMCIgZmlsbD0ibm9uZSIgZD0iTSAyMiAxMDguNTggTCAzMy44IDEwOC41OCBNIDY5LjIgMTA4LjU4IEwgODEgMTA4LjU4IE0gMzguNTIgMTA3LjggTCA2Ni44NCA5NiIvPjxlbGxpcHNlIHN0cm9rZT0iIzAwMDAwMCIgZmlsbD0icmdiKDI1NSwgMjU1LCAyNTUpIiByeT0iMi4zNTk1IiByeD0iMi4zNiIgY3k9IjEwOC41OCIgY3g9IjY2Ljg0Ii8+PGVsbGlwc2Ugc3Ryb2tlPSIjMDAwMDAwIiBmaWxsPSJyZ2IoMjU1LCAyNTUsIDI1NSkiIHJ5PSIyLjM1OTUiIHJ4PSIyLjM2IiBjeT0iMTA4LjU4IiBjeD0iMzYuMTYiLz48ZyBmb250LXNpemU9IjEycHgiIHRleHQtYW5jaG9yPSJtaWRkbGUiIGZvbnQtZmFtaWx5PSJIZWx2ZXRpY2EiIGZpbGw9IiMwMDAwMDAiPjx0ZXh0IHk9IjEyNy41IiB4PSI1MSI+Qm9vdCBEVVQ8L3RleHQ+PC9nPjxwYXRoIHN0cm9rZS1kYXNoYXJyYXk9IjIgNiIgc3Ryb2tlLW1pdGVybGltaXQ9IjEwIiBzdHJva2Utd2lkdGg9IjIiIHN0cm9rZS1vcGFjaXR5PSIwIiBzdHJva2U9IiNmZjAwMDAiIGZpbGw9Im5vbmUiIGQ9Ik0gNDEgMTQxIEwgOTEgOTEiLz48cmVjdCBzdHJva2U9Im5vbmUiIGZpbGw9Im5vbmUiIGhlaWdodD0iNDQuOCIgd2lkdGg9IjQ0LjgiIHk9IjQxIiB4PSIzMy4xIi8+PHBhdGggc3Ryb2tlPSJub25lIiBmaWxsPSIjNDQ5NWQxIiBkPSJNIDYyLjMyIDcyLjY5IEMgNjAuNzcgNzIuNjkgNTkuNjYgNzEuNDYgNTkuNjYgNzAuMDYgQyA1OS42NiA2OC45NiA2MC42MiA2Ny41MyA2Mi4zMiA2Ny41MyBDIDYzLjU0IDY3LjUzIDY0LjgyIDY4LjQ1IDY0LjgyIDcwLjA2IEMgNjQuODIgNzEuNDYgNjMuNzggNzIuNjkgNjIuMzIgNzIuNjkgTCA2Mi4zMiA3Mi42OSBaIE0gNjcuNzIgNzUuNjIgTCA2Ny43MiA1MS4wOCBMIDQzLjU3IDUxLjA4IEwgNDMuNTcgNzUuNjIgTCA2Ny43MiA3NS42MiBaIE0gNDIuOCA3OC4zOSBDIDQxLjc2IDc4LjM5IDQwLjggNzcuNzEgNDAuOCA3Ni40MSBMIDQwLjggNTAuMzEgQyA0MC44IDQ4Ljg5IDQxLjkgNDguMzEgNDIuNzYgNDguMzEgTCA2OC41IDQ4LjMxIEMgNjkuNjkgNDguMzEgNzAuNDcgNDkuMSA3MC40NyA1MC4zMyBMIDcwLjQ3IDc2LjI3IEMgNzAuNDkgNzcuNiA2OS43MiA3OC4zOSA2OC4zOSA3OC4zOSBMIDQyLjggNzguMzkgWiBNIDcyLjQ4IDc1LjQxIEwgNzIuNDggNzIuNzcgTCA3Ny45IDcyLjc3IEwgNzcuOSA3NS40MSBMIDcyLjQ4IDc1LjQxIFogTSA3Mi40OCA3MC4xMSBMIDcyLjQ4IDY3LjQ1IEwgNzcuOSA2Ny40NSBMIDc3LjkgNzAuMTEgTCA3Mi40OCA3MC4xMSBaIE0gNzIuNDggNjQuOTggTCA3Mi40OCA2Mi40IEwgNzcuOSA2Mi40IEwgNzcuOSA2NC45OCBMIDcyLjQ4IDY0Ljk4IFogTSA3Mi40OCA1OS45MSBMIDcyLjQ4IDU3LjI3IEwgNzcuOSA1Ny4yNyBMIDc3LjkgNTkuOTEgTCA3Mi40OCA1OS45MSBaIE0gNzIuNDggNTQuNjEgTCA3Mi40OCA1MS45NiBMIDc3LjkgNTEuOTYgTCA3Ny45IDU0LjYxIEwgNzIuNDggNTQuNjEgWiBNIDMzLjEgNTQuNjEgTCAzMy4xIDUxLjk2IEwgMzguNTUgNTEuOTYgTCAzOC41NSA1NC42MSBMIDMzLjEgNTQuNjEgWiBNIDMzLjEgNTkuOTEgTCAzMy4xIDU3LjI3IEwgMzguNTUgNTcuMjcgTCAzOC41NSA1OS45MSBMIDMzLjEgNTkuOTEgWiBNIDMzLjEgNjQuOTggTCAzMy4xIDYyLjQgTCAzOC41NSA2Mi40IEwgMzguNTUgNjQuOTggTCAzMy4xIDY0Ljk4IFogTSAzMy4xIDcwLjExIEwgMzMuMSA2Ny40NSBMIDM4LjU1IDY3LjQ1IEwgMzguNTUgNzAuMTEgTCAzMy4xIDcwLjExIFogTSAzMy4xIDc1LjQxIEwgMzMuMSA3Mi43NyBMIDM4LjU1IDcyLjc3IEwgMzguNTUgNzUuNDEgTCAzMy4xIDc1LjQxIFogTSA0NC4wNyA0Ni40NSBMIDQ0LjA3IDQxIEwgNDYuNyA0MSBMIDQ2LjcgNDYuNDUgTCA0NC4wNyA0Ni40NSBaIE0gNDkuMzQgNDYuNDUgTCA0OS4zNCA0MSBMIDUxLjk5IDQxIEwgNTEuOTkgNDYuNDUgTCA0OS4zNCA0Ni40NSBaIE0gNTQuNDQgNDYuNDUgTCA1NC40NCA0MSBMIDU3LjA1IDQxIEwgNTcuMDUgNDYuNDUgTCA1NC40NCA0Ni40NSBaIE0gNTkuNSA0Ni40NSBMIDU5LjUgNDEgTCA2Mi4xMiA0MSBMIDYyLjEyIDQ2LjQ1IEwgNTkuNSA0Ni40NSBaIE0gNjQuNzUgNDYuNDUgTCA2NC43NSA0MSBMIDY3LjQgNDEgTCA2Ny40IDQ2LjQ1IEwgNjQuNzUgNDYuNDUgWiBNIDY0Ljc1IDg1LjggTCA2NC43NSA4MC4yOSBMIDY3LjQgODAuMjkgTCA2Ny40IDg1LjggTCA2NC43NSA4NS44IFogTSA1OS41IDg1LjggTCA1OS41IDgwLjI5IEwgNjIuMTIgODAuMjkgTCA2Mi4xMiA4NS44IEwgNTkuNSA4NS44IFogTSA1NC40NCA4NS44IEwgNTQuNDQgODAuMjkgTCA1Ny4wNSA4MC4yOSBMIDU3LjA1IDg1LjggTCA1NC40NCA4NS44IFogTSA0OS4zNCA4NS44IEwgNDkuMzQgODAuMjkgTCA1MS45OSA4MC4yOSBMIDUxLjk5IDg1LjggTCA0OS4zNCA4NS44IFogTSA0NC4wNyA4NS44IEwgNDQuMDcgODAuMjkgTCA0Ni43IDgwLjI5IEwgNDYuNyA4NS44IEwgNDQuMDcgODUuOCBaIi8+PHJlY3Qgc3Ryb2tlPSJub25lIiBmaWxsPSJub25lIiBoZWlnaHQ9IjgwIiB3aWR0aD0iMjAiIHk9IjI2LjczIiB4PSIxIi8+PGcgdHJhbnNmb3JtPSJ0cmFuc2xhdGUoLTAuNSAtMC41KXJvdGF0ZSgtOTAgMTEgNjYuNzMwMDAwMDAwMDAwMDIpIj48c3dpdGNoPjx0ZXh0IHRleHQtYW5jaG9yPSJtaWRkbGUiIGZvbnQtc2l6ZT0iMTJweCIgZm9udC1mYW1pbHk9IkhlbHZldGljYSIgZmlsbD0iIzQwNDBGRiIgeT0iNzAiIHg9IjExIj5BVEU8L3RleHQ+PC9zd2l0Y2g+PC9nPjxyZWN0IHN0cm9rZT0ibm9uZSIgZmlsbD0ibm9uZSIgaGVpZ2h0PSI2Ni4yNyIgd2lkdGg9IjIwIiB5PSIxMzQuNzMiIHg9IjIiLz48ZyB0cmFuc2Zvcm09InRyYW5zbGF0ZSgtMC41IC0wLjUpcm90YXRlKC05MCAxMiAxNjcuODY1KSI+PHN3aXRjaD48dGV4dCB0ZXh0LWFuY2hvcj0ibWlkZGxlIiBmb250LXNpemU9IjEycHgiIGZvbnQtZmFtaWx5PSJIZWx2ZXRpY2EiIGZpbGw9IiMwMDg4MDAiIHk9IjE3MSIgeD0iMTIiPkRVVDwvdGV4dD48L3N3aXRjaD48L2c+PHBhdGggc3Ryb2tlLW1pdGVybGltaXQ9IjEwIiBzdHJva2Utd2lkdGg9IjIiIHN0cm9rZT0iIzQwNDBmZiIgZmlsbD0ibm9uZSIgZD0iTSA5NCAxMzEgTCAxNjQgMTMxIi8+PHBhdGggc3Ryb2tlLW1pdGVybGltaXQ9IjEwIiBzdHJva2Utd2lkdGg9IjIiIHN0cm9rZT0iIzAwODgwMCIgZmlsbD0ibm9uZSIgZD0iTSA5NCAxMzMgTCAxNjQgMTMzIi8+PHBhdGggc3Ryb2tlLW1pdGVybGltaXQ9IjEwIiBzdHJva2U9IiMwMDAwMDAiIGZpbGw9Im5vbmUiIGQ9Ik0gMTA1IDE1MS40NSBMIDExNi44IDE1MS40NSBNIDE1Mi4yIDE1MS40NSBMIDE2NCAxNTEuNDUgTSAxMjEuNTIgMTUwLjY3IEwgMTQ5Ljg0IDEzOC44NyIvPjxlbGxpcHNlIHN0cm9rZT0iIzAwMDAwMCIgZmlsbD0icmdiKDI1NSwgMjU1LCAyNTUpIiByeT0iMi4zNTk1IiByeD0iMi4zNiIgY3k9IjE1MS40NSIgY3g9IjE0OS44NCIvPjxlbGxpcHNlIHN0cm9rZT0iIzAwMDAwMCIgZmlsbD0icmdiKDI1NSwgMjU1LCAyNTUpIiByeT0iMi4zNTk1IiByeD0iMi4zNiIgY3k9IjE1MS40NSIgY3g9IjExOS4xNiIvPjxnIGZvbnQtc2l6ZT0iMTJweCIgdGV4dC1hbmNob3I9Im1pZGRsZSIgZm9udC1mYW1pbHk9IkhlbHZldGljYSIgZmlsbD0iIzAwMDAwMCI+PHRleHQgeT0iMTcwLjM3IiB4PSIxMzQiPjVWPC90ZXh0PjwvZz48cGF0aCBzdHJva2UtbWl0ZXJsaW1pdD0iMTAiIHN0cm9rZT0iIzAwMDAwMCIgZmlsbD0ibm9uZSIgZD0iTSAxMDUgMjQyLjcxIEwgMTE2LjggMjQyLjcxIE0gMTUyLjIgMjQyLjcxIEwgMTY0IDI0Mi43MSBNIDEyMS41MiAyNDEuOTMgTCAxNDkuODQgMjMwLjEzIi8+PGVsbGlwc2Ugc3Ryb2tlPSIjMDAwMDAwIiBmaWxsPSJyZ2IoMjU1LCAyNTUsIDI1NSkiIHJ5PSIyLjM1OTUiIHJ4PSIyLjM2IiBjeT0iMjQyLjcxIiBjeD0iMTQ5Ljg0Ii8+PGVsbGlwc2Ugc3Ryb2tlPSIjMDAwMDAwIiBmaWxsPSJyZ2IoMjU1LCAyNTUsIDI1NSkiIHJ5PSIyLjM1OTUiIHJ4PSIyLjM2IiBjeT0iMjQyLjcxIiBjeD0iMTE5LjE2Ii8+PGcgZm9udC1zaXplPSIxMnB4IiB0ZXh0LWFuY2hvcj0ibWlkZGxlIiBmb250LWZhbWlseT0iSGVsdmV0aWNhIiBmaWxsPSIjMDAwMDAwIj48dGV4dCB5PSIyNjEuNjMiIHg9IjEzNCI+SU88L3RleHQ+PC9nPjxyZWN0IHN0cm9rZT0ibm9uZSIgZmlsbD0ibm9uZSIgaGVpZ2h0PSI1MCIgd2lkdGg9IjUwIiB5PSIyMTIuOTkiIHg9IjIxIi8+PHBhdGggc3Ryb2tlPSJub25lIiBmaWxsPSIjNDM0NDQ1IiBkPSJNIDM3LjQyIDIxMi45OSBDIDM2Ljg1IDIxMyAzNi4zOSAyMTMuNDcgMzYuNCAyMTQuMDMgTCAzNi40IDIxOC44OSBMIDI5LjU1IDIxOC44OSBDIDI4LjE1IDIxOC44OSAyNyAyMjAuMDQgMjcgMjIxLjQzIEwgMjcgMjI4LjUxIEwgMjIuMDkgMjI4LjUxIEMgMjEuNzIgMjI4LjUgMjEuMzcgMjI4LjY5IDIxLjE4IDIyOS4wMSBDIDIwLjk5IDIyOS4zMyAyMC45OSAyMjkuNzMgMjEuMTggMjMwLjA1IEMgMjEuMzcgMjMwLjM3IDIxLjcyIDIzMC41NyAyMi4wOSAyMzAuNTYgTCAyNyAyMzAuNTYgTCAyNyAyMzQuMTkgTCAyMi4wOSAyMzQuMTkgQyAyMS41MiAyMzQuMTkgMjEuMDYgMjM0LjY1IDIxLjA2IDIzNS4yMiBDIDIxLjA2IDIzNS43OSAyMS41MiAyMzYuMjUgMjIuMDkgMjM2LjI1IEwgMjcgMjM2LjI1IEwgMjcgMjM5Ljg4IEwgMjIuMDkgMjM5Ljg4IEMgMjEuNzIgMjM5Ljg3IDIxLjM3IDI0MC4wNyAyMS4xOCAyNDAuMzkgQyAyMC45OSAyNDAuNzEgMjAuOTkgMjQxLjExIDIxLjE4IDI0MS40MyBDIDIxLjM3IDI0MS43NSAyMS43MiAyNDEuOTQgMjIuMDkgMjQxLjkzIEwgMjcgMjQxLjkzIEwgMjcgMjQ1LjU3IEwgMjIuMDkgMjQ1LjU3IEMgMjEuNzIgMjQ1LjU3IDIxLjM4IDI0NS43NiAyMS4yIDI0Ni4wOCBDIDIxLjAyIDI0Ni40IDIxLjAyIDI0Ni43OSAyMS4yIDI0Ny4xMSBDIDIxLjM4IDI0Ny40MyAyMS43MiAyNDcuNjIgMjIuMDkgMjQ3LjYyIEwgMjcgMjQ3LjYyIEwgMjcgMjU0LjIyIEMgMjcgMjU1LjYxIDI4LjE1IDI1Ni43NiAyOS41NSAyNTYuNzYgTCAzNi40IDI1Ni43NiBMIDM2LjQgMjYxLjkgQyAzNi40IDI2Mi4yNiAzNi42IDI2Mi42IDM2LjkyIDI2Mi43OSBDIDM3LjI0IDI2Mi45NyAzNy42MyAyNjIuOTcgMzcuOTUgMjYyLjc5IEMgMzguMjcgMjYyLjYgMzguNDYgMjYyLjI2IDM4LjQ2IDI2MS45IEwgMzguNDYgMjU2Ljc2IEwgNDIuMTIgMjU2Ljc2IEwgNDIuMTIgMjYxLjkgQyA0Mi4xMiAyNjIuMjYgNDIuMzIgMjYyLjYgNDIuNjQgMjYyLjc5IEMgNDIuOTYgMjYyLjk3IDQzLjM1IDI2Mi45NyA0My42NyAyNjIuNzkgQyA0My45OSAyNjIuNiA0NC4xOCAyNjIuMjYgNDQuMTggMjYxLjkgTCA0NC4xOCAyNTYuNzYgTCA0Ny44NCAyNTYuNzYgTCA0Ny44NCAyNjEuOSBDIDQ3Ljg0IDI2Mi40NiA0OC4zIDI2Mi45MiA0OC44NyAyNjIuOTIgQyA0OS40NCAyNjIuOTIgNDkuOSAyNjIuNDYgNDkuOSAyNjEuOSBMIDQ5LjkgMjU2Ljc2IEwgNTMuNTYgMjU2Ljc2IEwgNTMuNTYgMjYxLjkgQyA1My41NiAyNjIuNDYgNTQuMDIgMjYyLjkyIDU0LjU5IDI2Mi45MiBDIDU1LjE2IDI2Mi45MiA1NS42MiAyNjIuNDYgNTUuNjIgMjYxLjkgTCA1NS42MiAyNTYuNzYgTCA2Mi41MSAyNTYuNzYgQyA2My45IDI1Ni43NiA2NS4wNSAyNTUuNjEgNjUuMDUgMjU0LjIyIEwgNjUuMDUgMjQ3LjYyIEwgNjkuOTEgMjQ3LjYyIEMgNzAuMjggMjQ3LjYyIDcwLjYyIDI0Ny40MyA3MC44IDI0Ny4xMSBDIDcwLjk4IDI0Ni43OSA3MC45OCAyNDYuNCA3MC44IDI0Ni4wOCBDIDcwLjYyIDI0NS43NiA3MC4yOCAyNDUuNTcgNjkuOTEgMjQ1LjU3IEwgNjUuMDUgMjQ1LjU3IEwgNjUuMDUgMjQxLjkzIEwgNjkuOTEgMjQxLjkzIEMgNzAuMjggMjQxLjk0IDcwLjYzIDI0MS43NSA3MC44MiAyNDEuNDMgQyA3MS4wMSAyNDEuMTEgNzEuMDEgMjQwLjcxIDcwLjgyIDI0MC4zOSBDIDcwLjYzIDI0MC4wNyA3MC4yOCAyMzkuODcgNjkuOTEgMjM5Ljg4IEwgNjUuMDUgMjM5Ljg4IEwgNjUuMDUgMjM2LjI1IEwgNjkuOTEgMjM2LjI1IEMgNzAuNDggMjM2LjI1IDcwLjk0IDIzNS43OSA3MC45NCAyMzUuMjIgQyA3MC45NCAyMzQuNjUgNzAuNDggMjM0LjE5IDY5LjkxIDIzNC4xOSBMIDY1LjA1IDIzNC4xOSBMIDY1LjA1IDIzMC41NiBMIDY5LjkxIDIzMC41NiBDIDcwLjI4IDIzMC41NyA3MC42MyAyMzAuMzcgNzAuODIgMjMwLjA1IEMgNzEuMDEgMjI5LjczIDcxLjAxIDIyOS4zMyA3MC44MiAyMjkuMDEgQyA3MC42MyAyMjguNjkgNzAuMjggMjI4LjUgNjkuOTEgMjI4LjUxIEwgNjUuMDUgMjI4LjUxIEwgNjUuMDUgMjIxLjQzIEMgNjUuMDUgMjIwLjA0IDYzLjkgMjE4Ljg5IDYyLjUxIDIxOC44OSBMIDU1LjYyIDIxOC44OSBMIDU1LjYyIDIxNC4wMyBDIDU1LjYyIDIxMy43NiA1NS41MiAyMTMuNDkgNTUuMzIgMjEzLjI5IEMgNTUuMTIgMjEzLjEgNTQuODUgMjEyLjk5IDU0LjU3IDIxMi45OSBDIDU0LjAxIDIxMyA1My41NSAyMTMuNDcgNTMuNTYgMjE0LjAzIEwgNTMuNTYgMjE4Ljg5IEwgNDkuOSAyMTguODkgTCA0OS45IDIxNC4wMyBDIDQ5LjkxIDIxMy43NiA0OS44IDIxMy40OSA0OS42IDIxMy4yOSBDIDQ5LjQgMjEzLjEgNDkuMTMgMjEyLjk5IDQ4Ljg2IDIxMi45OSBDIDQ4LjI5IDIxMyA0Ny44MyAyMTMuNDcgNDcuODQgMjE0LjAzIEwgNDcuODQgMjE4Ljg5IEwgNDQuMTggMjE4Ljg5IEwgNDQuMTggMjE0LjAzIEMgNDQuMTkgMjEzLjc2IDQ0LjA4IDIxMy40OSA0My44OCAyMTMuMjkgQyA0My42OCAyMTMuMSA0My40MSAyMTIuOTkgNDMuMTQgMjEyLjk5IEMgNDIuNTcgMjEzIDQyLjExIDIxMy40NyA0Mi4xMiAyMTQuMDMgTCA0Mi4xMiAyMTguODkgTCAzOC40NiAyMTguODkgTCAzOC40NiAyMTQuMDMgQyAzOC40NyAyMTMuNzYgMzguMzYgMjEzLjQ5IDM4LjE2IDIxMy4yOSBDIDM3Ljk2IDIxMy4xIDM3LjcgMjEyLjk5IDM3LjQyIDIxMi45OSBaIE0gMjkuNTUgMjIwLjk0IEwgNjIuNTEgMjIwLjk0IEMgNjIuNzkgMjIwLjk0IDYyLjk5IDIyMS4xNCA2Mi45OSAyMjEuNDMgTCA2Mi45OSAyNTQuMjIgQyA2Mi45OSAyNTQuNTEgNjIuNzkgMjU0LjcgNjIuNTEgMjU0LjcgTCAyOS41NSAyNTQuNyBDIDI5LjI2IDI1NC43IDI5LjA2IDI1NC41MSAyOS4wNiAyNTQuMjIgTCAyOS4wNiAyMjEuNDMgQyAyOS4wNiAyMjEuMTQgMjkuMjYgMjIwLjk0IDI5LjU1IDIyMC45NCBaIE0gNTAuNzYgMjIzLjE2IEMgNTAuMTkgMjIzLjE2IDQ5LjcyIDIyMy42MiA0OS43MiAyMjQuMTkgQyA0OS43MiAyMjQuNzUgNTAuMTkgMjI1LjIxIDUwLjc2IDIyNS4yMSBMIDU4LjMzIDIyNS4yMSBMIDU4LjMzIDIzMi44NCBDIDU4LjMyIDIzMy4yMiA1OC41MSAyMzMuNTYgNTguODQgMjMzLjc1IEMgNTkuMTYgMjMzLjk0IDU5LjU2IDIzMy45NCA1OS44OCAyMzMuNzUgQyA2MC4yIDIzMy41NiA2MC40IDIzMy4yMiA2MC4zOSAyMzIuODQgTCA2MC4zOSAyMjQuMTkgQyA2MC4zOSAyMjMuOTIgNjAuMjggMjIzLjY1IDYwLjA5IDIyMy40NiBDIDU5Ljg5IDIyMy4yNyA1OS42MyAyMjMuMTYgNTkuMzYgMjIzLjE2IFogTSAzMi41MyAyMjMuMiBDIDMxLjk3IDIyMy4yIDMxLjUgMjIzLjY2IDMxLjUgMjI0LjIzIEwgMzEuNSAyMzIuOCBDIDMxLjUgMjMzLjM3IDMxLjk3IDIzMy44MyAzMi41MyAyMzMuODMgQyAzMy4xIDIzMy44MyAzMy41NiAyMzMuMzcgMzMuNTYgMjMyLjggTCAzMy41NiAyMjUuMjYgTCA0MS4yMiAyMjUuMjYgQyA0MS42IDIyNS4yNyA0MS45NSAyMjUuMDcgNDIuMTQgMjI0Ljc1IEMgNDIuMzMgMjI0LjQzIDQyLjMzIDIyNC4wMyA0Mi4xNCAyMjMuNzEgQyA0MS45NSAyMjMuMzkgNDEuNiAyMjMuMTkgNDEuMjIgMjIzLjIgWiBNIDMyLjU2IDI0MS42NiBDIDMxLjk5IDI0MS42NyAzMS41NCAyNDIuMTQgMzEuNTUgMjQyLjcgTCAzMS41NSAyNTEuMzYgQyAzMS41NSAyNTEuOTIgMzIuMDEgMjUyLjM4IDMyLjU4IDI1Mi4zOCBMIDQxLjE4IDI1Mi4zOCBDIDQxLjU1IDI1Mi4zOCA0MS44OSAyNTIuMTkgNDIuMDcgMjUxLjg3IEMgNDIuMjYgMjUxLjU1IDQyLjI2IDI1MS4xNiA0Mi4wNyAyNTAuODQgQyA0MS44OSAyNTAuNTMgNDEuNTUgMjUwLjMzIDQxLjE4IDI1MC4zMyBMIDMzLjYxIDI1MC4zMyBMIDMzLjYxIDI0Mi43IEMgMzMuNjEgMjQyLjQzIDMzLjUgMjQyLjE2IDMzLjMgMjQxLjk2IEMgMzMuMTEgMjQxLjc3IDMyLjg0IDI0MS42NiAzMi41NiAyNDEuNjYgWiBNIDU5LjM5IDI0MS43IEMgNTguODIgMjQxLjcxIDU4LjM2IDI0Mi4xOCA1OC4zNyAyNDIuNzUgTCA1OC4zNyAyNTAuMjkgTCA1MC43MSAyNTAuMjkgQyA1MC4xNCAyNTAuMjkgNDkuNjggMjUwLjc1IDQ5LjY4IDI1MS4zMSBDIDQ5LjY4IDI1MS44OCA1MC4xNCAyNTIuMzQgNTAuNzEgMjUyLjM0IEwgNTkuNCAyNTIuMzQgQyA1OS45NyAyNTIuMzQgNjAuNDMgMjUxLjg4IDYwLjQzIDI1MS4zMSBMIDYwLjQzIDI0Mi43NSBDIDYwLjQ0IDI0Mi40NyA2MC4zMyAyNDIuMiA2MC4xMyAyNDIgQyA1OS45MyAyNDEuODEgNTkuNjYgMjQxLjcgNTkuMzkgMjQxLjcgWiIvPjwvZz48c3dpdGNoPjxnLz48YSB0YXJnZXQ9Il9ibGFuayIgeGxpbms6aHJlZj0iaHR0cHM6Ly93d3cuZGlhZ3JhbXMubmV0L2RvYy9mYXEvc3ZnLWV4cG9ydC10ZXh0LXByb2JsZW1zIiB0cmFuc2Zvcm09InRyYW5zbGF0ZSgwLC01KSI+PHRleHQgeT0iMTAwJSIgeD0iNTAlIiBmb250LXNpemU9IjEwcHgiIHRleHQtYW5jaG9yPSJtaWRkbGUiPlRleHQgaXMgbm90IFNWRyAtIGNhbm5vdCBkaXNwbGF5PC90ZXh0PjwvYT48L3N3aXRjaD48L3N2Zz4=;" parent="9XvdeewJi5H3TVdUopXr-3" vertex="1">
                    <mxGeometry width="166" height="344" as="geometry"/>
                </mxCell>
                <mxCell id="9XvdeewJi5H3TVdUopXr-5" value="" style="endArrow=none;html=1;strokeWidth=2;strokeColor=#FF0000;" parent="9XvdeewJi5H3TVdUopXr-3" edge="1">
                    <mxGeometry width="50" height="50" relative="1" as="geometry">
                        <mxPoint x="104" y="195" as="sourcePoint"/>
                        <mxPoint x="63" y="245" as="targetPoint"/>
                    </mxGeometry>
                </mxCell>
                <mxCell id="9XvdeewJi5H3TVdUopXr-6" value="" style="endArrow=none;html=1;strokeWidth=2;strokeColor=#FF0000;" parent="9XvdeewJi5H3TVdUopXr-3" edge="1">
                    <mxGeometry width="50" height="50" relative="1" as="geometry">
                        <mxPoint x="63" y="232" as="sourcePoint"/>
                        <mxPoint x="105" y="151" as="targetPoint"/>
                    </mxGeometry>
                </mxCell>
                <mxCell id="9XvdeewJi5H3TVdUopXr-7" value="" style="endArrow=none;html=1;strokeWidth=2;strokeColor=#FF0000;" parent="9XvdeewJi5H3TVdUopXr-3" edge="1">
                    <mxGeometry width="50" height="50" relative="1" as="geometry">
                        <mxPoint x="45" y="219" as="sourcePoint"/>
                        <mxPoint x="21" y="110" as="targetPoint"/>
                    </mxGeometry>
                </mxCell>
                <mxCell id="9XvdeewJi5H3TVdUopXr-10" value="" style="group" parent="1" vertex="1" connectable="0">
                    <mxGeometry x="610" y="500" width="166" height="344" as="geometry"/>
                </mxCell>
                <mxCell id="9XvdeewJi5H3TVdUopXr-11" value="DUT: STM32" style="shape=image;imageAspect=0;aspect=fixed;verticalLabelPosition=bottom;verticalAlign=top;image=data:image/svg+xml,PHN2ZyB4bWxuczp4bGluaz0iaHR0cDovL3d3dy53My5vcmcvMTk5OS94bGluayIgeG1sbnM9Imh0dHA6Ly93d3cudzMub3JnLzIwMDAvc3ZnIiBjb250ZW50PSImbHQ7bXhmaWxlJmd0OyZsdDtkaWFncmFtIGlkPSZxdW90Ozh5SzlSM3p2VDhzUldjaEdUSWlKJnF1b3Q7IG5hbWU9JnF1b3Q7Z2VuZXJpYy10ZW50YWNsZSZxdW90OyZndDs3VmxiYzZNMkdQMDFmZ3pEelFZZVk4ZE9NbTJubVhVMlNSOFZrRUVOSUkrUUw4bXZyd1RpSWlRN2NZTzN1NTM0d1lPT2J1Zzc1N3ZJSGptemJIOU53RHI1QTBjd0hkbG10Qjg1VnlQYnRqMlhmWFBnVlFDQlZ3RXhRVkVGV1Myd1JHOVFnS1pBTnlpQ2hUU1FZcHhTdEpiQkVPYzVES21FQVVMd1RoNjJ3cW04NnhyRVVBR1dJVWhWOUJGRk5LbFEzL1phL0FhaU9LbDN0aVpCMVpPQmVyQTRTWkdBQ084NmtETWZPVE9DTWEyZXN2ME1wdHgydFYycWVZc0R2YzJMRVpqVGoweXdxd2xia0c3RTJhNWhEZ2tLR1hqUDFnQWhPM1AxcHZTMVBqN0JtenlDZkFWejVFeDNDYUp3dVFZaDc5MHh2aG1XMEN4bExZczliaUdoaUpudU1rVnh6akNLK1lDQ0V2elNHSThkZTdwQ2Fib1VleFE0NVM5WVlqT2NZbEx1NndUQmduMmEyWjBlMTNUTnNtZUZjOXJCemZJajhIcDFqWkVFeE44VjdqdVFNTm8xeEJtazVKVU5xU1hzQ2dLRmdnUFIzTFZ5c0d4QmV0S1ZnaU1HQWlIQnVGbTZaWWs5Q0tMMHBOMlM1ZXdiZUZqOGZiMS9SS3RwTXB2ZlBGMVlnVUxsVDBOY05JWis1T3FJTTAzZi95RUVOVkovajZFbXlBelBrT3BzdC9uTDg2YjRIRTg5VzY5V2NCS0dpcTF6bkVNK0R4UDB4a3dOanJQY1pjTlUzZXJLOUN1M0dvQW94M0Vrb2l4cmJIaU93cFZuYXFoeUI2QnFvbkViaGprV1A5LzM1VlFoaDRYc05YL005akZQYmdaTVdZb2gzSWJpRVY5a01FeEFYa0lGeXVNVUxuZUlodXdrVTFDc3E0UzBRbnRPOEJTbVZkK1NBc3BYeGFzVlExUHdETk1wQ0YvaVVnbzlFZzhGT1kxM2lSNDl5ME93NTdxeW0zbXFtNDExY2JBbGVYQS84NDh4T3VXcDFUYXZ2dDkvRVhzMGZrNHMyUzM5OFg5TzdBY3lITXlqUzE3Z3RUYU5RSkdVb2RTU3d5Ykg3d0Nsa09SVnlqRWRiWG83enBqQ3pHSWhtTUVzWUNQNktnTG9RVVpnSkpXYUtoOWRlMnRpWUkwUm1BS0t0bktCcW1OQTdIQ0hVVTQ3ZFB1OWRObXZVd3E4SVNFVXM3b0ZaVzhoeDVFWHN2emVRaFNRR0ZKbG9WSVF6YkUva1dTdDkwV3k1cHRETXQ4eU1nb2hoNllRTjd1YU1XWE5hRk5xTC8rNmJqQXVCNWZDdWNNRm9naHppWVdRYjlyeDJkOTdBNTR4cFRnNzZOUkF0SnAxOElhbUtHZXZVMTl5ek9vY1VoRGJRZ2d5STF4dkJnb0xubTMwQW9PamxyNnVhL2lxVkZ0MCtOTEtVMWkvdko4cnhMTkQwaE1aRlpCaS9ENUhHWW9pdm8yMldwUHJPYWtHMDFSWHpXVm1DTDU2WmZDQjZzcldSSmErNHc1SGxwcWdkZW40MXlDcnVjQU1RcGJzV2l5YWZwU3N5Y1NvZjMwWW5DL2IrVGQ1VnpiamlWbTBjUUhOZFZPMi8ySWhyaUxNN09UMVNTaWxiUHpGOXpiR2RmTnFMOTZsYXRXWkdlNFJmZW84ZDJheFZqdUpOMzZWYk42L1V6V1NPVFdidStZN0M1MDVtOXZ1RDVkZTQ5QmYwaHRHZXZaUTByUFBKVDNkdmFLNU1JNGZGTVg5M3k2S1NvYlNDT3pqdndEWW51RjdTdEk2NDEyeC9zRk96OS90bjEvOG5jS2ZZd1dHcFJZZForUXZ2TGtJSi9PSDM1YlAyOFczMjh2SHQzc3p2dENTMnVmeEJaYWNsSUh4dkpjNlppVjNyR1AvSjdubGJTUHBqdmNwUmRnVCtjN2dtSllSQktvaWppU1JFK1RBbXUzZlhWWHdidjh6ZE9iL0FBPT0mbHQ7L2RpYWdyYW0mZ3Q7Jmx0O2RpYWdyYW0gaWQ9JnF1b3Q7eDBFWHFpc1p4SUFBRkppUzdDaDEmcXVvdDsgbmFtZT0mcXVvdDtFeGFtcGxlIHRlc3RzZXR1cCZxdW90OyZndDs3WDFaazZNNHMvYXZtY3Q1ZzdXbWZWazJZRU1adVZna0REY25XUHdhczlpMEM5dkFyLzlTZ0JmYzFkUDl6Wm5wT1JkTVJJY3RXYVJTbVk5eUVaV2EzL2haWHMyUGZoSHJoMmlUL2NZeFVmVWJMLzNHY1N6L2h3QWZ0S2Z1ZXNRSjMzVnNqN3VvSDNUdnNIYk5wdTlrK3Q3VEx0cDhEQWFXaDBOVzdvcGhaM2pZN3pkaE9lanpqOGZEWlRqc3Y0ZHNPR3ZoYnpmZmRGaWhuMzNiNit5aU11NTZ2M0IvM1BzWG05MDJ2czdNdmt5NlgzTC9PcmhmeVVmc1I0ZkxReGN2LzhiUGpvZEQyWDNMcTlrbW84Szd5cVY3VHZuT3J6ZkdqcHQ5K1RNUDFMKy9YYUtkTDZIS2VPV1NCVW9iMGZ1OVY4Ylp6MDc5Z250bXkvb3FBZUM3b0Y5M2VTdXFhZnY1K2xGMDBtYWd4NzgyL3J1ck5qRGI5THc1bGp1UTRkSVBOdG43NFdOWDdnNTcrRDA0bE9VaGZ4andtdTIyOUlmeVVGd3BReXZ5Uy84My9yVnJjc3JIZWZzYk42MXlXTXpzZllFNHI1NEtnVk9kd3FZUWdubDI4aHRtNXk5TUpwUU81eVVmOFZFdDhub3Ruc004UE90MktxNnNTVGV1VnJlYk9mc1I3UFdKbXNkTXRIaDlXZFlUZUNJOFJZMStDbmh0djJ6VWl5Njlua1BlMjZ1N2FSSndJdU01SXZOdXFYbXdNUDRJMW5IdU8xV201Ukd6cXIyUFNDcFQzMUgyWWE2VTZqeEwzeTJ2aXB3SnMycGkwV295UytjTGpraHhnN01vOGVVSVcwNzJwdTBWTnVDTlA5UzVHQWNPbmx6YkhrZE8zbG9yM0pwdDUzUWQ5T0ZkNmRYZVBwSStlQ2V2ZG01REdpUjdtckdiZk1XN2lXNWdWdE56N3h4eDV2dEtVcEMzS09KTlpqSlJNaVVZZXdjZEsxOTlodVFXYjNKNlkzNllXQU5lSnI2SEk4YmVreFJodEREblJZbTRTVzV6cU1TeXNyU2xTUFZUbHpIbnF1amJjV3c1aFJvMXlBaWFhSW9jOUZWbnA5Z2c3aGxsOFQ2VUZjdklvcW5mYUxMdG1FdVlyeVoxT2ZVVVpBWno4dzM0T1poY2pGMmlFSDMraGRGNVVodGM5dTdZcEFqenFQUWE4d1huMFF0YW9ETWhadTRwU3FQejJjemdrYWJQWTRReUwzR2JMWTlaZElnUzl4SW9XOUYweUJ0V29uZWdoUWxucnNraWNzTjE5TzV6ckJYeDA3MkhKNFhGUjZxRnlUeG9pT1VvaGhnczRyM2pGTVNaeTdVelZ4akVLOWlzSnkrT0U3MEVzNG5zczhiWjVEWEpXa3lYbmp4aFF0WVRmVG1HZmszMm5Pd3J5YU0zMnlaSmxLSGpzbEVTYnk2bVZ1NnBtUG5nUGE1b1RDaytta3o1cmp0VjQ2eXpGS1VHWXpUSzBlTDBJekNnQm5tV09IYnNiYVRwbTQ0OUh1Kzl4TWZ4VjVMS1RNQk1samFaZnZYU1NnazVrbGhwVVdMZUVIMG5PdnVzTGdLOWcwdW9kRFRXYUxSNGsxZTV2OUQ4SURjNHd5blNpRTlabEdJMjNFZGZQY0Ria2luaUZZbVpqUk8vK1E2eFFiZWxuY1lYSzFOclg0a0trNWtBR2d2TlhXdXV1WWd0Z3hTSnVUNVVaSkZlMEpySWdJa1RZSHFGU2JRMzh2SXRtRWVYYU01d1RxN1lIdllrcjRsV0JvOXJaNkVKNW13aWJxenloR3o1YkswVjdEbmF4WEc4ZXBPRWpHMVBVYUM4Q2s2T0RKTmtCMGYyOW9aVlppakxjbCt1cHFZU2xVc3V0bjI1YUR5R3hhdjU5aEl0Q0xlU1RCZVJtTE5zMEsrVWdaeWp3c2swMytaQ0xseUFiR0IvK2FscElBVlZhRTdleVpvQWh2UUxTcWFzem1tenpWcmh6VlNaWWl4ZkNENHdPbWRXYnFwNHB1Slc5bHdwREVaeGpGVFV6Y2I4NnFTc1JDUjhqdXo0QkhhRXh5bjcxVnRuamJkSHJKWEdiNXVNek0zMWRPWnhiT282RWVVOXNZbG1CeWxyNnppYXJSWmhaU1NnenpsN0pQUGl6Wksxblp1V2hlbGNqZ1lYelRiN2VCSE9Tc1p4VUJMbVpVVVVUWVAxNW9aRFlEeUxySGtSQjNLWll5YzZlYndwbW5zc1luYnFBZzF6aFJYZFdCdU52WjlXcnFOOUpZMGloRXhHVmd2eTlzWjRYemR5bEc3c0RJZHJ6SHFPdHdOYk44UHorTHhrRGl6aXlVZUV0MHdrbWFzVjBjNU9hbWJPSWpvWVRTUVFmdnBpcnZXTG41WUViRTN0T0pWaE9acG96cXZDSTRXeklmRUM1TE5EVW94dE95NWdMNXdEaHAxalRIWXJpU0NMbXl3OFhKek5QS3BoK290SFlsZDNOQy9BQ3VQWTVnRXd5UUZLOW9TYmZBMllPRWJ6Q2ZaelVmVVc4Y0dXNUVaUFhCYURKUUM3ck9pNEZDS2lwTUZja3d5c2loYlJ6eUZUSmRqWjFodXNzYmJzbVM3UlZMeEF3SmZtbzBZNytvbVdoS21va0wzSEdsa21HQnhMN013czdJV1pCamFhNnc0RDFvNnB6Q1E4bWtxbU8zc3kyOHpSSW16TWxhMllzcVY0YjZHU0hXd1dsWlp5T0VQbkxGcEVlSk96SnozenlpQ1BxekR6YWhNTFRaQk9aaTRQMXN6T1JFZU9hcmZSRGthdWFTdEZlYkgyOFRsYXgwM0FWTXBHeWk0d2grY3gzZ21sMnRra1poazZXb3k1U1JMdHRkakJJZXhqYnhjcXl0ekQ4WnRWVDhBMlJMYkpvVHBLR1NGY1JLcTlCaitXaW11WHhNMXFQVjA1ZWZZUk9ldzV3c3dGTHdEN1NqeHpFdThjSmtpd3NzTXhhQXpla2hHL3laUTB5blRCU2VKWmFFY25BNXRUSzYwQUcxT0xLQWZCWHFSbk80a3Z5eVlVYkd6dUkyWjczc2dNRXluYjZvMEIveUZwbkk5bDFrMjhpMkVyUlNRcGN4MWp6a3EwRlBGVE81eFhtcjcya3NET1RvNXNKbEYrT0laenN3cm1vTGUxcWVCa3kwZnBKTkZ6c25aeHRTWks4VzVuVTl0elhCRTNpdU9uckxqQ0FvdmtMYitSeVZ1VWl3ZzFLV1BsWk9jc2lJR1RrSE5zOU5YbUJCYmJwUFNzTDRCMzFrYzhFcUs5bWRtTzZJY1o0Sk1oYTRNdlJDOVJ1RkJDeFdvdWVyYWpDcGozRm80c3h2WkNaK3o4SXBqcitHTWxNeldlZlRUMkFqUzdCejhqd1Y1SW94UHMwYjF1bGJyT3hRS1NEYzYzUGRHVDlMTXpkL2tsSDJjUkY0cElaZ1NYTDZyVlFqdThNZGxIWUpXOG5VVno0Qkg0alZRakFmb1MwOFlFUzg0c3dDN1Vyc1BrSHZoeExhK1kxYjF2Nnp2R3pjZUQ3VmVjaFFMN3FSQXNyRXpOdENod0UwbStKT2ZobXB6QngyOERpQ1U4bStuYnBiS1pLeVhJUDFNWFpoYnladU90VFRhY0RlTUNrcHNyMkFCTnhCQkRseFFqbEV2QUI0ek5WTllpY3UwM251K3hwaFpKa1Jjb0ttK1RlRzFoajQxd05YVTVrVU1Oc1cxNWV6UzVFaG1ZWER6T0JOL2pyWFd3ejBFQ01aY1N4K2IrbFRmM2NVeWNLSFlVYzI3WTJwVHc2SXdCZjJBTGRRQmFocFhZSUp4NGRKVG96Y1BheW1XVXl1U2lQWkc5Q3ZZRitDakZ4SE5sRmpiS3hjRGV5VktJYXN1VE45TlcrWUJoamtUVzFFMVc4T0NUelNWVGZvUkoxaGhaa2E0Y1FscC9JU0VqeEpoMzhhR3gwMktHODh4RHJGYlpPRHdiR05aSlpUY1gzdzJ1T29GTjA1eWN1ZmpyckRDSUlZUkVjWDNnTmNxbU01c2pvcGRtbFExZTBPQk16dUFtSEhLMDJzeEZKa2c4ejhBWllCZUpSbVBtdHFTZVE4NXNvclY1QkR1WW9iUUVmSmpZYXNDcnNJREJoUWJyQnh2TXdINW40N25MRnFLUmtOa2JWNXlKclZJOUhFUGlmUVR6clJnd1NoTHU0NVhONG92UG9tbEVQRFpneVhzRXNVekVrNHRsWjE2SUZkOUt3MXBuWk1iSDBRN0xwVzJzMWFQQm1JYk5rN21SWnJ3dmY2bDB0ckJ4V3V5TXZYWUtaTy9OYzVRM2o0RTRhVitzM0pSSUVITjgrRFp4WWIyd1I5Z1BoR1BWbGt6d1p4b3g3VXdMOWdUa3hYNVlDd1AySlJISkhsZWhuSzAzdWZZUzVHQW5KT1BvTnQ3Snp3c3RVbVFPNHFLWm5WYWxPUStGVFY2c1ZnNWFlbUJIbzczTzZiWjJjREZSd0Q3NEh2aFpoTFVpek1pTGJVZXJJTXRFc0RrazRqUUo4N0ZqYzhVeWJMSXBoRE1NWG11QTllbk9VcFJFWDc4eTdsNWhDR042NEh1ZFRUb3h6RVdoMkFTZGJCN1o3dHI3NnV4VGRzbDhzSVFwRHFFdEN5dUNLOEpVWXNpVkJHTEt5NUpqR2tkeWo0NVZycU1tbm03eUx3M0lIZlJNMGpDRkhUQlhCQ01qbHJzbXZwNW9id2hpTFY4eTlXQWZndDJOa1lVbkRNU3U0b3BrTXp2UExqWldKUEFSZGJoL2JUWnlqSWpEV2pyRXpFNFdYalp5SmtFc1VQbEo1dmgydFBRd0s0YU9lZFFicEpwejlpc2hYa3BTa1VXU2R3UmRLeGFPRTVmVExKS1poMlVqMXlhSmowRktISWpwbG1EalBsWUVsYjVqQ2xqUkxoRDdGcHZkaEFGLzYra094RmxZZk5jVDlJYlNPTEZrcjQ3V0JyZEowQnJseG5HRlJRUHNLTEwyNUFMeHZ3Kys0a3pXRUZmeU1zVFprYi9rV1AyTkU1ZzNwb3hOTzlaTjJUaGJYRndzdVhKdjVnTGtQMU9Jc1NJZUw4elMzYnZuTjY3a0lqbGtTRUppSWlFR2JPWE9rcVkxN09zbTVOeDZROHdFL0o1QjhyaUIrTEpCVE9VYmdEbVVSeGhpQUlpLzRnd3hMbzNoR0h2dGlxR2tpNlprSHIwa1MwSTJBdDFNZHFqeDBvZ2NqajRqZm13azhOa054RFNZK0poaEliNUNSU1NqTjh4NHJpbVJENXN2Vm1helBlclpWRFd6S2Y5dS80bmRyU2ZsWnU0VndSeTNmWkREY1JELzhrWStFU0NISy9XWndLb3o1ckpNOEZhM1hVNlZkQWJOMUswL0o0WEh4VFRQYTVCa1hqYlFGM0ZaR3MyM0V6V1JPYlNmQ3BRVzVHZU43MHhPTUs1YUp2THVQYWxTaUx1YVpTTjg4ZUJmbUVOK01KczIwVUk3K3h3dTd6VFVuYnBBVEpoUGptRGJkMnBqWEpBMHpiMmR1dlhBeHdjUzdVdEZML2ZhdmdkK0tyMTVoV2Vqd2x1WWg3YWRwTkJPS1YvdzJmSzNhK2V2cDBCZk9ZVWN4QWM1TTFIM0pzaEdCUHdyakdkdEg5ZGVxQW53eWtkRk5FY0hXQVBqcldOR25VT010emVBNSt2YzJpN2dxaFRXM2Y2K2RKU1R5OFVRZXpDN3dNbFNqL3FrM1RTbk9mSnlEWGpOTWVXbERoZmIzWldXQi9ZWThtVVJhS21lVTRIOFFHZWNUSDhISFYwbTZrNm4rVGI5MTY5SnZRQk5xaXNPN1ZUSSs4MWJWanpGdDZ6WXZweWpPUkVpU2ZpeTVCSHZyMDNZeGZDZEMrR0o5NFdXdWJ5eEJWOVpCMXlaTGRjMzJkVkErNnFiZnU2dDBNNTk0d2VseU1HQ0p4blFGMmVRZngwaTBJMmV5SlF2SHZZbjQ5TzJyWXJRRmp2OTZBTTlQR0Znb3ViaU9jang0eHlnWmN5NW5QNDBoekdZQXpVM21YRExKR3g2dVlpQTF6UG9iQS94UUt0Zkw1L1VBV0FLNW91RFBmcHcxMmIyMW1OOGFiK2VrSlZTbkRhQVJkaVYyMVpDWnJaWkdOdFdoak0yRG5KMENIZ1ZPR1VMYjI1K2VCWkY1ZVFFdnpYK3VzamFWWFk3b05PMjQ4V0FnSThOekdyTkljdklDZU03S0thL2c3WS9ZSHhpU3E5VXNwZGVTZ3hvYzd1NVNpNFJ0U0F2ZDlGYUIvMjF2RkN1WnBOSEhtZVRQWEI5Z2RVY2JqdkhZa3ZRZFJibVZRSHpkN3NEZHVwVjAzVGVIazJYT3kvZ0hUbVJJaldGNzBpVjVBdXlYcXVWalNGajNXN3QyV3NGbHVDMG1qMzB3ZS9JVmsvNmJqZ09KUVpZRGZCQUNSWlVtWUh2MUFyZ0dtaUNWZ1RvdTBDZklTNlRMUU45Z2w2M21zb0N5S3JDQmNxR0ZxRGprL0ovdFFCaEh1M2VKQlZTUXFDVFlIWTVlNjJSRGJ0MU42MnByUFdkMENDWXYyMUxmUnZrNnZLdE5SQ1JKYkNyR1cyM2FHUldsaUQwYVBtM2VLaUFod3ArN3hEYlc0V1F5MTdvL0JBMWRKYjJ4empNSVJzb0Fyb2IwamdMRmg3RTRsbmlXby9XODdhV0I0UzNISU1rUUV2WFBkcWdkZ1FoYUFZWWF5M2JlM0k1dDlZYkxLWC9ZTDBweHNEMmZQZ3dkN3REN2RmZGorUVhBTDh0My9BZGNGUlRESUdWdVdLbzBXdkFDV0J3TmFOeW1nSWVYY0NMQ3JoNUZUcGNYYllyU1g1b0E4NGErbnc3aGdkc1VUcGdIYWx1WDhWZXRyOUt2ejNmVi8yNlhJdjEzUmNxYzdBRWtNOWZRZzcvYUVmV0hxY2VIbWIvVUZ1T3FGL1RxTFdvbDRuT3dzNmpiYUZ2Yy9ROHR1WHdLaG5hcGh3MjdnbDI4TlVIZnU2UE9qeVVZQzhUZno2cGdRY2FhNlVRSi93bFgzWHptWjBmcmxFdHNMMTloa1NJNGdzaWpqTjRBWmtRWTJqalByTnFxYnRHQjNldDFlNjZ0ZmRiS3ZHYi82TG9tNU1hWkF2V3oyaTE4T0RIUG84eExQWU1hRTdBV2xKNVhvWitEL3hQMHZ2YzY5cHVQZ3JvcDh3V3RRZzBxaGFOa0JqQ3Y1L3piYmYyM2E4aHlUaXRCdkdVQWZ0eDIvczJtS09URzkwWlZZK2t4VFNHa1E4b3V0bndtMzhCcWlKeTJxZDd1KzVTbElBdER1SFRGVlZaMzZJRXZGOFRibEdqbmxDU2JnSFg4T2xDV3o0aHlYMW92NTUwYUJ2MUt3djJDdmJXS3djNEYra25SRTNncDJHL2dZYjFHdHF3SCs3dHFRVHpOb0JHc1BjdTdFM2N3Q2RkSGZEaEFrb045dDRPd1NPL2NoMWZJQkZKdmZPUjZNRG45czVuQXI2blVXOXR1dC83ZVhuNDVGYlcxS2QyQVNVaFBFZkhnWThDMUxSMm9SWmd6Q3VnVUlDOU90VlZ5YUQ4OGFxRXdWZTl0dllGU1RDZkhYNzJIQS8yRyticTZVc3E5WXM4eUtLQk9XR3RCdEFJSVdvT1lXMjZDTzBMdFVjZ1krQkRodkd2N1hpd1RaQTF0SE4zdjBNVW9zUHZJRjlHcDM1U011RDVyZGpSZy9XQ2ZkVGI1Mkc5alh0clU3Nm92ZW5HNjFVbnU3U1QwZlVaMEIyU1lDMVNldEl0a005TVlCRG9FVDRCVVpRSEtuY0QxaCtDclZMNWxrYjdUTnJ4VFhWdGRXdnYxdG5PU1QrdjY2YnJxTHQxMGpuVHJiT2pkcHZpeklDMWhCQVBkRHVsMVpmVTZ4RndaMU5aMUlMWWpRMzVia3g0b3JSQnpyMk1udWdvQnhwL1VEMHpWSmF3am1vNGp1SU1jSFduUlhYSG9HNE0zOHFUNHRsdTVmZE1wOVBybFUrS3c4NHZYY2RSbkRHUHRKL2JFT2VJSGE1dS9BQytVK0dKYjdxUHhDSGZtTy9rZjZNRmViVUFsdk9CYjlpUHF5SGZWenBEdm0wRE1EQWNCM2lIL2ZwSVN3WmE3b01PTVBEcER2WFUwK24wcWNNK2tSOXBkeGFwM1RjcDE4WjJyUi9HajdRYmlrOUUxMEx0Ukx2ZUlaMGg3ZHY2cnJSdk1yblREazk2RWc1bzMyVTVwRE9nZmRkbFQ1dmFRK09SemsyWHQ3bStmZVpSbDMwZjNUOXkxVDJuMHozMmdEZWRlbUwyRVpNMzJuY01EdWtNYWQvMlRrK2I2cFB2TUhHbGZkODdkOXBndDZRQjdjZTlBeG05Y0FFYndGQTcxUEZKUGM0clQrMU5aLy9jRS8yOXQxRTB1K3I2SkV4cFBqL2YyMEt3TDQweEdBZDZnV2p5U3FmRmlYaWJvOFZJK3VuNEFWMktFMmxBbDJLSmVhQUxzbjFsNzNRQkh6RHVzL0ZEdW1BbnJVY1pZSkZtaEwzY0tCWXFzSG45SEJRcmN0M0pvcmN0dytkN2Z3TzhOb081cVQzZzZiaWVEc1hCYlE2S2t3SE5wK2M3L0ZMTWhiQytMWHVMYlR1YUF0aXNldlZBZHdYK1JlLzlZVWY3MjJmQXJsN3hTL2ZOSTkxckczQUlPV2pMRC9oWmlLc2Y2Zlp5NmVqYzVUQ2cyOHY3WVV5bnd3YzYxTFpkaG11NDZ2SE96NEJPajkwZUkzZmFQZTRlYVZOYnR4clM3ckYzb3oya005d1hEN1FOd0ZMNFNKdnFteC9JcU5zcm56eUR3ZGNETHZxSWJYam04bTNFZG1zZlBDZmIrd3NheDI2SFp5ckpwK2NkMTVod0htNzdFNDQ4NExVU0tQYW5YUlhFaXZqUW5YUzh0cWRjYjJ2dEhQV25YaXY3ZFV2dEVNUjVnTDFiQk4vL1V6OC9DZnVKYk9FNWgvMzVQTFU5K1p1YjlEekV2cDd5ZExteW1vaFRJdU1mblluVW5vT1l4enp2bG5NKzVhQ0RVMFI2bnBHRWp5ZUpOYzBMdTR4S1p4NGtYdjhkRXFmWmFrcWpQKzdmT1g4Qy9RcXIrL2xUdGJLTnE1eHJrUE8zZWRuLzh1enBUMDRaR1IzaVlDOTN2NXR0QVc4Z0xiM3pnN1pMejQ0YXlDTFBmeU1QMzU1MGZzNURNK0NoTzcvNkszaGoydk93eDlQTVBndnM4TmJHNHIwK2pQOVYxa2VqQ2xpdHBJSmxFNFF1UzZHWmw4dmYrN3BzRFNMOVdxZldqR1o4TkhPQ0NBNXNEbGhNdGMvS2JuMndHMlN1bzROYjJqUXFnZXlQUnRIMFJBZm8wQWhmcHhrTkQ5YVlXdkZiWHhmOXE1UU9SR2J1TllMcGVMUWc0dDFSSGgvNmRtM0dTZWxBNWtIcFFIUXM5VkY4MHRMaDIyeXBqVnlmK3Zxb3U4dmE0Rm5Za3pTemJLUGVycTlhd1pyMTN1TzB2TmFmOW4zMjdLMnY4OVQ0UWlNbFBaRnBSdGxsMkZLWFFkLzYya3l0SFFQclM2dUhkbldMdnVscFdNc0RQVm50c2tLSVVIbDZZa285MUtyemdrSjNnZ3BadHRWbWMxUkc4SXplUG1QM1dlWjlUQ3RUdnVQaDlseWJ3WFZ6Z2RlcUg5dDBicjJsMC9mQld1VTJrelRxV3laWVU2dTU2aktJWGg1MGZxb2J0L1dZZDFsYzJpeTNvOU9ONldSR1Bha09hNkU3OVpvaDNQb29Qc1V1MnUwOGQ2ZlhsTzlPQWFtSDdYVFFaeVRVNHplUGZVOXpVSHcxejNQUUU0TXVBcnpOVWJlNGZKd0RQdnVNK3o1SDMvYzhCODBrdXd6dzJpZUxWRDRQOU1EYTBzeDZNQ2VOL3Z2VFRYb2E4TkRYWWZnNmIzdmkzbWNPRDMxcXF4djdHdEhBbkRTYkdjaXVQWm52TXBYYkhOZSs1emtBdHl2cGFRN1lkM3FYMVYzbkVHQmQxV0FkOXBhZTdqL04wZmYxVVpadURlajM3UnZ0UHFMK1h0L3pjMTI3MHdIWVBhazlZZTlQQkxyMlhRNTlwUDJkdnVmbituYWYzY2dESFhYbmZ5bGc4WW0vbTE2dmRCL3hRT25lMm85MDJlNzA1bkp0My9CM3pRUyswL2Y4WE5lK3kvbHhiM1J0YWp2dDhKSG56L3Vlbnh2c3B6YWFidTBSdGNub0htSFRQbXAzNmx2VUR6YXB0UVd0VE5vVEJvcUg2cmFXTmdzTTczM1hESUtlZkxTWUE1dVQ0R3ZHMFBZOTBCTzdVN0xIT2RQV053em5vQ2NHeHZNYzdZbmgweHkzdnZzY2JjYlBEdVpvVHdYd2NJNzJSUExiT2JvczdGRk9YYWJXZS9qdWhBWnN1ajZRVTNzU1duLyszSUErMzltdXdScHVmUS8wS0M0R2MxSTdPS1FmZHZpNjk5MVBsT2pmQWlUcS9XU29iY3YwUktIM3VaajZEc0FJYms4TjcvUWhnaDdRYnR2M2sxbHFRNVBIVEZpdDZLbGZsN0ZkWmZCcFgvMllUYmU4RFhWNm8zdHIzM2xyVCtnNmpIL1M5L3pjSGZQMEpJcTV6MzFyUC9CM3hlT25mYy9QM1dWeDNRTlhHZC9hRHpMdTl0SWp6KzJKMmdQZGZ2LzFkRCtOR0gvd3BtVDQxd2JmaVlQQkVsQ1VkRkZSTzdOYzBYZHREMzJvL1U1M3kzQWMxKzZzTm9yQTdUdGtXR0gvM281R1RpNy85SDZZbnN1QmgvbWw3Kzk2ZnYvVmQ4VFBQUHhmZUVkczA3Mm44OWN6QjdCMWtMTVM1eGU4SWE3MDF0ZlJOd3hobndIS1hCY3pYZnNvS25IZHZpVWVqS05abXNxMHVVbUhTdGdiRVBmQ1BnSi9DWHRNNy81cW9ZMGhxQjNScVg5dmZ2SGIyaXZIMTdlMVYvei95MXpJWXB2ajNVNDZ2blBlOE9PL2ZQcTVzNGh1Tllud3BjTnhleVpSSTJvZkV2M3BMeE1zL09XYk44WTkrdTduVkh2Nk50YTFwb3k3MXZZZXRYWFpaQmZNbGI3S3FTcUMvT1BGWDJpWmwvVFZVUXY5VnUza3piUFk0N1U0V091bkFQaGRjdWJaclNlNXU1YmJ5cWVsUTRSd1BxbEJIdDM2MTFQUWpQYmhPU3c5SS9xenZ6SzdMR2NNKzJaOXU3OWVMNXJWL1FVUTVFbWYvZDNZNVVmdjZkK3pqcDYvMXJld2h4aFZRWTVadjVicUhJRlZFT25iOXRSZm93dHdJajd1VzlkKytpc3hIbkVnVFZyZHhrLzcrcmZOc2R4VTN5MnNZMi9sZW5rMTN4enlUWG1zWVVqL0FNZjBGWDU5aWFNdzZkdVhlOEVnKy9MUzljVVB4WUs4MEJkSCtuMlI0dlpHKzE3SEIxLzZVcjdQeS9wZUF1dC9UTEJJVGJBclBxcDVkTmpwaDkrNW55anJTemRsR0grdmdxODQ3UGJsNWlpZlFRYVVPUmI2YmdXTTlJbkkvNGpweUxZUmwzbDJIVlFlRCtsbWRzZ09SK2paSC9hMFpEQjdxZ01NTjVUNFh5OFU5UHZXamM1L2QxbDJuZk0zam1jWTlzc1hxV081clYzTXF5MHRULzJQMzV5T20vK0VoN3c0MFFjL1YvUW5jUGl1N24vL010VDlDL2V0N2tYbVc5VUw0aitrK1o4bzZOenNvMWRhR1h2WHozZjFCN0pVRkFiK3UvMXlMWUlGbVV3MzFhNWM5OC9SN3k2RnczL0V2aVZWUFRyYVJ2M1FlTjhjZDdCYXFybTI3N3Q2K0RpY2p1SG14empmUklNaTNtKzE5UU50WFB1T204d3ZkK2RoNmU5bkt1cG5lS2U3NUFFTTNCQU1ON3BYRXQxNitxY2VTM1dmQ0xGLy9ERkVGY01QQ1pYK2Nic3B2eUhVSXVhMjdMOE9JdkZ2QWRFalZMNFBxeEZFL3hpSUprTVFpZUl2QmRFZi81OCs2TzkxT1U4ZVFRQmZLNGlmZWJwLzNEY2RUbVcyMndOLzF3c0ttRThjMC9rYy9TY3NUbitHNDU5M1Noei9NdEQ4SDFmTi95U0MvM2FuTlBtRjl1Uzc4dnMvc3IrNUwwL2JjdkprMjM5MmY0TmFuN1Q4YTUwRXk0NWF2U3ZqaGYxelpmeTBWaWZjazlWKythZTBhaEIvcWpMTzduKzIvdGM2aTRNWUc5cnZ3cWpVdXk1RTVrbXAzRjlVS3M4UGxjcHgvNVJTUDczbDVTZDI2bmpMeTNqTHkzakx5M2pMeTNqTHkzakx5M2pMeTNqTHkzakx5M2pMeTNqTHkzakx5M2pMeTNqTHkzakx5M2pMeTNqTHkzakx5M2pMeTNqTHkzakx5M2pMeTNqTHkzakx5M2pMeTNqTHkzakx5M2pMeTNqTHkzakx5M2pMeTNqTHkzakx5M2pMeTNqTHkzakx5M2pMeTNqTHkzakx5M2pMeTNqTHkzakx5M2pMeTNqTHkzakx5M2pMeTNqTHkzakx5M2pMeTNqTHk3Ly9qbmk4NVdXODVXVzg1V1c4NWVVdjNQTHlPL3RVbUM5OCtaWFh2SHhhMS9jejE3eU1kWDFqWGQ5WTF6Zlc5WTExZldOZDMxalhOOWIxalhWOVkxM2ZXTmMzMXZXTmRYMWpYZDlZMXpmVzlZMTFmV05kMzFqWE45YjFqWFY5WTEzZldOYzMxdldOZFgxalhkOVkxemZXOVkxMWZXTmQzMWpYTjliMWpYVjlZMTNmV05jMzF2V05kWDFqWGQ5WTF6Zlc5WTExZldOZDMxalhOOWIxalhWOVkxM2ZXTmMzMXZXTmRYMWpYZCsvL281NHJPc2I2L3JHdXI2eHJ1OHYxZld4di9CLzN3N040K0ZRUHY3di9lai8vMVUvUkJzNjR2OEImbHQ7L2RpYWdyYW0mZ3Q7Jmx0Oy9teGZpbGUmZ3Q7IiB2aWV3Qm94PSItMC41IC0wLjUgMTY2IDM0NCIgaGVpZ2h0PSIzNDRweCIgd2lkdGg9IjE2NnB4IiB2ZXJzaW9uPSIxLjEiPjxkZWZzLz48Zz48cmVjdCBzdHJva2Utd2lkdGg9IjIiIHN0cm9rZT0iIzQwNDBmZiIgZmlsbD0iIzk5ZmZmZiIgaGVpZ2h0PSIxMzAiIHdpZHRoPSIxMjkiIHk9IjEiIHg9IjEiLz48ZyB0cmFuc2Zvcm09InRyYW5zbGF0ZSgtMC41IC0wLjUpIj48c3dpdGNoPjx0ZXh0IGZvbnQtd2VpZ2h0PSJib2xkIiB0ZXh0LWFuY2hvcj0ibWlkZGxlIiBmb250LXNpemU9IjEycHgiIGZvbnQtZmFtaWx5PSJIZWx2ZXRpY2EiIGZpbGw9IiMwMDAwMDAiIHk9IjIwIiB4PSI2NiI+R2VuZXJpYyBUZW50YWNsZTwvdGV4dD48L3N3aXRjaD48L2c+PHJlY3Qgc3Ryb2tlLXdpZHRoPSIyIiBzdHJva2U9IiMwMDg4MDAiIGZpbGw9IiNkNWU4ZDQiIGhlaWdodD0iMjEwIiB3aWR0aD0iMTI5IiB5PSIxMzMiIHg9IjEiLz48cmVjdCBzdHJva2U9Im5vbmUiIGZpbGw9IiNmZmU2Y2MiIGhlaWdodD0iMjQwIiB3aWR0aD0iNzAiIHk9IjI2LjczIiB4PSI5NCIvPjxnIHRyYW5zZm9ybT0idHJhbnNsYXRlKC0wLjUgLTAuNSkiPjxzd2l0Y2g+PHRleHQgdGV4dC1hbmNob3I9Im1pZGRsZSIgZm9udC1zaXplPSIxMnB4IiBmb250LWZhbWlseT0iSGVsdmV0aWNhIiBmaWxsPSIjRDA4MDAwIiB5PSI0NiIgeD0iMTI5Ij5JbmtidXM8L3RleHQ+PC9zd2l0Y2g+PC9nPjxwYXRoIHN0cm9rZS1taXRlcmxpbWl0PSIxMCIgc3Ryb2tlPSIjMDAwMDAwIiBmaWxsPSJub25lIiBkPSJNIDEwNSAxOTUuNTggTCAxMTYuOCAxOTUuNTggTSAxNTIuMiAxOTUuNTggTCAxNjQgMTk1LjU4IE0gMTIxLjUyIDE5NC44IEwgMTQ5Ljg0IDE4MyIvPjxlbGxpcHNlIHN0cm9rZT0iIzAwMDAwMCIgZmlsbD0icmdiKDI1NSwgMjU1LCAyNTUpIiByeT0iMi4zNTk1IiByeD0iMi4zNiIgY3k9IjE5NS41OCIgY3g9IjE0OS44NCIvPjxlbGxpcHNlIHN0cm9rZT0iIzAwMDAwMCIgZmlsbD0icmdiKDI1NSwgMjU1LCAyNTUpIiByeT0iMi4zNTk1IiByeD0iMi4zNiIgY3k9IjE5NS41OCIgY3g9IjExOS4xNiIvPjxnIGZvbnQtc2l6ZT0iMTJweCIgdGV4dC1hbmNob3I9Im1pZGRsZSIgZm9udC1mYW1pbHk9IkhlbHZldGljYSIgZmlsbD0iIzAwMDAwMCI+PHRleHQgeT0iMjE0LjUiIHg9IjEzNCI+VVNCPC90ZXh0PjwvZz48cGF0aCBzdHJva2UtbWl0ZXJsaW1pdD0iMTAiIHN0cm9rZT0iIzAwMDAwMCIgZmlsbD0ibm9uZSIgZD0iTSAyMiAxMDguNTggTCAzMy44IDEwOC41OCBNIDY5LjIgMTA4LjU4IEwgODEgMTA4LjU4IE0gMzguNTIgMTA3LjggTCA2Ni44NCA5NiIvPjxlbGxpcHNlIHN0cm9rZT0iIzAwMDAwMCIgZmlsbD0icmdiKDI1NSwgMjU1LCAyNTUpIiByeT0iMi4zNTk1IiByeD0iMi4zNiIgY3k9IjEwOC41OCIgY3g9IjY2Ljg0Ii8+PGVsbGlwc2Ugc3Ryb2tlPSIjMDAwMDAwIiBmaWxsPSJyZ2IoMjU1LCAyNTUsIDI1NSkiIHJ5PSIyLjM1OTUiIHJ4PSIyLjM2IiBjeT0iMTA4LjU4IiBjeD0iMzYuMTYiLz48ZyBmb250LXNpemU9IjEycHgiIHRleHQtYW5jaG9yPSJtaWRkbGUiIGZvbnQtZmFtaWx5PSJIZWx2ZXRpY2EiIGZpbGw9IiMwMDAwMDAiPjx0ZXh0IHk9IjEyNy41IiB4PSI1MSI+Qm9vdCBEVVQ8L3RleHQ+PC9nPjxwYXRoIHN0cm9rZS1kYXNoYXJyYXk9IjIgNiIgc3Ryb2tlLW1pdGVybGltaXQ9IjEwIiBzdHJva2Utd2lkdGg9IjIiIHN0cm9rZS1vcGFjaXR5PSIwIiBzdHJva2U9IiNmZjAwMDAiIGZpbGw9Im5vbmUiIGQ9Ik0gNDEgMTQxIEwgOTEgOTEiLz48cmVjdCBzdHJva2U9Im5vbmUiIGZpbGw9Im5vbmUiIGhlaWdodD0iNDQuOCIgd2lkdGg9IjQ0LjgiIHk9IjQxIiB4PSIzMy4xIi8+PHBhdGggc3Ryb2tlPSJub25lIiBmaWxsPSIjNDQ5NWQxIiBkPSJNIDYyLjMyIDcyLjY5IEMgNjAuNzcgNzIuNjkgNTkuNjYgNzEuNDYgNTkuNjYgNzAuMDYgQyA1OS42NiA2OC45NiA2MC42MiA2Ny41MyA2Mi4zMiA2Ny41MyBDIDYzLjU0IDY3LjUzIDY0LjgyIDY4LjQ1IDY0LjgyIDcwLjA2IEMgNjQuODIgNzEuNDYgNjMuNzggNzIuNjkgNjIuMzIgNzIuNjkgTCA2Mi4zMiA3Mi42OSBaIE0gNjcuNzIgNzUuNjIgTCA2Ny43MiA1MS4wOCBMIDQzLjU3IDUxLjA4IEwgNDMuNTcgNzUuNjIgTCA2Ny43MiA3NS42MiBaIE0gNDIuOCA3OC4zOSBDIDQxLjc2IDc4LjM5IDQwLjggNzcuNzEgNDAuOCA3Ni40MSBMIDQwLjggNTAuMzEgQyA0MC44IDQ4Ljg5IDQxLjkgNDguMzEgNDIuNzYgNDguMzEgTCA2OC41IDQ4LjMxIEMgNjkuNjkgNDguMzEgNzAuNDcgNDkuMSA3MC40NyA1MC4zMyBMIDcwLjQ3IDc2LjI3IEMgNzAuNDkgNzcuNiA2OS43MiA3OC4zOSA2OC4zOSA3OC4zOSBMIDQyLjggNzguMzkgWiBNIDcyLjQ4IDc1LjQxIEwgNzIuNDggNzIuNzcgTCA3Ny45IDcyLjc3IEwgNzcuOSA3NS40MSBMIDcyLjQ4IDc1LjQxIFogTSA3Mi40OCA3MC4xMSBMIDcyLjQ4IDY3LjQ1IEwgNzcuOSA2Ny40NSBMIDc3LjkgNzAuMTEgTCA3Mi40OCA3MC4xMSBaIE0gNzIuNDggNjQuOTggTCA3Mi40OCA2Mi40IEwgNzcuOSA2Mi40IEwgNzcuOSA2NC45OCBMIDcyLjQ4IDY0Ljk4IFogTSA3Mi40OCA1OS45MSBMIDcyLjQ4IDU3LjI3IEwgNzcuOSA1Ny4yNyBMIDc3LjkgNTkuOTEgTCA3Mi40OCA1OS45MSBaIE0gNzIuNDggNTQuNjEgTCA3Mi40OCA1MS45NiBMIDc3LjkgNTEuOTYgTCA3Ny45IDU0LjYxIEwgNzIuNDggNTQuNjEgWiBNIDMzLjEgNTQuNjEgTCAzMy4xIDUxLjk2IEwgMzguNTUgNTEuOTYgTCAzOC41NSA1NC42MSBMIDMzLjEgNTQuNjEgWiBNIDMzLjEgNTkuOTEgTCAzMy4xIDU3LjI3IEwgMzguNTUgNTcuMjcgTCAzOC41NSA1OS45MSBMIDMzLjEgNTkuOTEgWiBNIDMzLjEgNjQuOTggTCAzMy4xIDYyLjQgTCAzOC41NSA2Mi40IEwgMzguNTUgNjQuOTggTCAzMy4xIDY0Ljk4IFogTSAzMy4xIDcwLjExIEwgMzMuMSA2Ny40NSBMIDM4LjU1IDY3LjQ1IEwgMzguNTUgNzAuMTEgTCAzMy4xIDcwLjExIFogTSAzMy4xIDc1LjQxIEwgMzMuMSA3Mi43NyBMIDM4LjU1IDcyLjc3IEwgMzguNTUgNzUuNDEgTCAzMy4xIDc1LjQxIFogTSA0NC4wNyA0Ni40NSBMIDQ0LjA3IDQxIEwgNDYuNyA0MSBMIDQ2LjcgNDYuNDUgTCA0NC4wNyA0Ni40NSBaIE0gNDkuMzQgNDYuNDUgTCA0OS4zNCA0MSBMIDUxLjk5IDQxIEwgNTEuOTkgNDYuNDUgTCA0OS4zNCA0Ni40NSBaIE0gNTQuNDQgNDYuNDUgTCA1NC40NCA0MSBMIDU3LjA1IDQxIEwgNTcuMDUgNDYuNDUgTCA1NC40NCA0Ni40NSBaIE0gNTkuNSA0Ni40NSBMIDU5LjUgNDEgTCA2Mi4xMiA0MSBMIDYyLjEyIDQ2LjQ1IEwgNTkuNSA0Ni40NSBaIE0gNjQuNzUgNDYuNDUgTCA2NC43NSA0MSBMIDY3LjQgNDEgTCA2Ny40IDQ2LjQ1IEwgNjQuNzUgNDYuNDUgWiBNIDY0Ljc1IDg1LjggTCA2NC43NSA4MC4yOSBMIDY3LjQgODAuMjkgTCA2Ny40IDg1LjggTCA2NC43NSA4NS44IFogTSA1OS41IDg1LjggTCA1OS41IDgwLjI5IEwgNjIuMTIgODAuMjkgTCA2Mi4xMiA4NS44IEwgNTkuNSA4NS44IFogTSA1NC40NCA4NS44IEwgNTQuNDQgODAuMjkgTCA1Ny4wNSA4MC4yOSBMIDU3LjA1IDg1LjggTCA1NC40NCA4NS44IFogTSA0OS4zNCA4NS44IEwgNDkuMzQgODAuMjkgTCA1MS45OSA4MC4yOSBMIDUxLjk5IDg1LjggTCA0OS4zNCA4NS44IFogTSA0NC4wNyA4NS44IEwgNDQuMDcgODAuMjkgTCA0Ni43IDgwLjI5IEwgNDYuNyA4NS44IEwgNDQuMDcgODUuOCBaIi8+PHJlY3Qgc3Ryb2tlPSJub25lIiBmaWxsPSJub25lIiBoZWlnaHQ9IjgwIiB3aWR0aD0iMjAiIHk9IjI2LjczIiB4PSIxIi8+PGcgdHJhbnNmb3JtPSJ0cmFuc2xhdGUoLTAuNSAtMC41KXJvdGF0ZSgtOTAgMTEgNjYuNzMwMDAwMDAwMDAwMDIpIj48c3dpdGNoPjx0ZXh0IHRleHQtYW5jaG9yPSJtaWRkbGUiIGZvbnQtc2l6ZT0iMTJweCIgZm9udC1mYW1pbHk9IkhlbHZldGljYSIgZmlsbD0iIzQwNDBGRiIgeT0iNzAiIHg9IjExIj5BVEU8L3RleHQ+PC9zd2l0Y2g+PC9nPjxyZWN0IHN0cm9rZT0ibm9uZSIgZmlsbD0ibm9uZSIgaGVpZ2h0PSI2Ni4yNyIgd2lkdGg9IjIwIiB5PSIxMzQuNzMiIHg9IjIiLz48ZyB0cmFuc2Zvcm09InRyYW5zbGF0ZSgtMC41IC0wLjUpcm90YXRlKC05MCAxMiAxNjcuODY1KSI+PHN3aXRjaD48dGV4dCB0ZXh0LWFuY2hvcj0ibWlkZGxlIiBmb250LXNpemU9IjEycHgiIGZvbnQtZmFtaWx5PSJIZWx2ZXRpY2EiIGZpbGw9IiMwMDg4MDAiIHk9IjE3MSIgeD0iMTIiPkRVVDwvdGV4dD48L3N3aXRjaD48L2c+PHBhdGggc3Ryb2tlLW1pdGVybGltaXQ9IjEwIiBzdHJva2Utd2lkdGg9IjIiIHN0cm9rZT0iIzQwNDBmZiIgZmlsbD0ibm9uZSIgZD0iTSA5NCAxMzEgTCAxNjQgMTMxIi8+PHBhdGggc3Ryb2tlLW1pdGVybGltaXQ9IjEwIiBzdHJva2Utd2lkdGg9IjIiIHN0cm9rZT0iIzAwODgwMCIgZmlsbD0ibm9uZSIgZD0iTSA5NCAxMzMgTCAxNjQgMTMzIi8+PHBhdGggc3Ryb2tlLW1pdGVybGltaXQ9IjEwIiBzdHJva2U9IiMwMDAwMDAiIGZpbGw9Im5vbmUiIGQ9Ik0gMTA1IDE1MS40NSBMIDExNi44IDE1MS40NSBNIDE1Mi4yIDE1MS40NSBMIDE2NCAxNTEuNDUgTSAxMjEuNTIgMTUwLjY3IEwgMTQ5Ljg0IDEzOC44NyIvPjxlbGxpcHNlIHN0cm9rZT0iIzAwMDAwMCIgZmlsbD0icmdiKDI1NSwgMjU1LCAyNTUpIiByeT0iMi4zNTk1IiByeD0iMi4zNiIgY3k9IjE1MS40NSIgY3g9IjE0OS44NCIvPjxlbGxpcHNlIHN0cm9rZT0iIzAwMDAwMCIgZmlsbD0icmdiKDI1NSwgMjU1LCAyNTUpIiByeT0iMi4zNTk1IiByeD0iMi4zNiIgY3k9IjE1MS40NSIgY3g9IjExOS4xNiIvPjxnIGZvbnQtc2l6ZT0iMTJweCIgdGV4dC1hbmNob3I9Im1pZGRsZSIgZm9udC1mYW1pbHk9IkhlbHZldGljYSIgZmlsbD0iIzAwMDAwMCI+PHRleHQgeT0iMTcwLjM3IiB4PSIxMzQiPjVWPC90ZXh0PjwvZz48cGF0aCBzdHJva2UtbWl0ZXJsaW1pdD0iMTAiIHN0cm9rZT0iIzAwMDAwMCIgZmlsbD0ibm9uZSIgZD0iTSAxMDUgMjQyLjcxIEwgMTE2LjggMjQyLjcxIE0gMTUyLjIgMjQyLjcxIEwgMTY0IDI0Mi43MSBNIDEyMS41MiAyNDEuOTMgTCAxNDkuODQgMjMwLjEzIi8+PGVsbGlwc2Ugc3Ryb2tlPSIjMDAwMDAwIiBmaWxsPSJyZ2IoMjU1LCAyNTUsIDI1NSkiIHJ5PSIyLjM1OTUiIHJ4PSIyLjM2IiBjeT0iMjQyLjcxIiBjeD0iMTQ5Ljg0Ii8+PGVsbGlwc2Ugc3Ryb2tlPSIjMDAwMDAwIiBmaWxsPSJyZ2IoMjU1LCAyNTUsIDI1NSkiIHJ5PSIyLjM1OTUiIHJ4PSIyLjM2IiBjeT0iMjQyLjcxIiBjeD0iMTE5LjE2Ii8+PGcgZm9udC1zaXplPSIxMnB4IiB0ZXh0LWFuY2hvcj0ibWlkZGxlIiBmb250LWZhbWlseT0iSGVsdmV0aWNhIiBmaWxsPSIjMDAwMDAwIj48dGV4dCB5PSIyNjEuNjMiIHg9IjEzNCI+SU88L3RleHQ+PC9nPjxyZWN0IHN0cm9rZT0ibm9uZSIgZmlsbD0ibm9uZSIgaGVpZ2h0PSI1MCIgd2lkdGg9IjUwIiB5PSIyMTIuOTkiIHg9IjIxIi8+PHBhdGggc3Ryb2tlPSJub25lIiBmaWxsPSIjNDM0NDQ1IiBkPSJNIDM3LjQyIDIxMi45OSBDIDM2Ljg1IDIxMyAzNi4zOSAyMTMuNDcgMzYuNCAyMTQuMDMgTCAzNi40IDIxOC44OSBMIDI5LjU1IDIxOC44OSBDIDI4LjE1IDIxOC44OSAyNyAyMjAuMDQgMjcgMjIxLjQzIEwgMjcgMjI4LjUxIEwgMjIuMDkgMjI4LjUxIEMgMjEuNzIgMjI4LjUgMjEuMzcgMjI4LjY5IDIxLjE4IDIyOS4wMSBDIDIwLjk5IDIyOS4zMyAyMC45OSAyMjkuNzMgMjEuMTggMjMwLjA1IEMgMjEuMzcgMjMwLjM3IDIxLjcyIDIzMC41NyAyMi4wOSAyMzAuNTYgTCAyNyAyMzAuNTYgTCAyNyAyMzQuMTkgTCAyMi4wOSAyMzQuMTkgQyAyMS41MiAyMzQuMTkgMjEuMDYgMjM0LjY1IDIxLjA2IDIzNS4yMiBDIDIxLjA2IDIzNS43OSAyMS41MiAyMzYuMjUgMjIuMDkgMjM2LjI1IEwgMjcgMjM2LjI1IEwgMjcgMjM5Ljg4IEwgMjIuMDkgMjM5Ljg4IEMgMjEuNzIgMjM5Ljg3IDIxLjM3IDI0MC4wNyAyMS4xOCAyNDAuMzkgQyAyMC45OSAyNDAuNzEgMjAuOTkgMjQxLjExIDIxLjE4IDI0MS40MyBDIDIxLjM3IDI0MS43NSAyMS43MiAyNDEuOTQgMjIuMDkgMjQxLjkzIEwgMjcgMjQxLjkzIEwgMjcgMjQ1LjU3IEwgMjIuMDkgMjQ1LjU3IEMgMjEuNzIgMjQ1LjU3IDIxLjM4IDI0NS43NiAyMS4yIDI0Ni4wOCBDIDIxLjAyIDI0Ni40IDIxLjAyIDI0Ni43OSAyMS4yIDI0Ny4xMSBDIDIxLjM4IDI0Ny40MyAyMS43MiAyNDcuNjIgMjIuMDkgMjQ3LjYyIEwgMjcgMjQ3LjYyIEwgMjcgMjU0LjIyIEMgMjcgMjU1LjYxIDI4LjE1IDI1Ni43NiAyOS41NSAyNTYuNzYgTCAzNi40IDI1Ni43NiBMIDM2LjQgMjYxLjkgQyAzNi40IDI2Mi4yNiAzNi42IDI2Mi42IDM2LjkyIDI2Mi43OSBDIDM3LjI0IDI2Mi45NyAzNy42MyAyNjIuOTcgMzcuOTUgMjYyLjc5IEMgMzguMjcgMjYyLjYgMzguNDYgMjYyLjI2IDM4LjQ2IDI2MS45IEwgMzguNDYgMjU2Ljc2IEwgNDIuMTIgMjU2Ljc2IEwgNDIuMTIgMjYxLjkgQyA0Mi4xMiAyNjIuMjYgNDIuMzIgMjYyLjYgNDIuNjQgMjYyLjc5IEMgNDIuOTYgMjYyLjk3IDQzLjM1IDI2Mi45NyA0My42NyAyNjIuNzkgQyA0My45OSAyNjIuNiA0NC4xOCAyNjIuMjYgNDQuMTggMjYxLjkgTCA0NC4xOCAyNTYuNzYgTCA0Ny44NCAyNTYuNzYgTCA0Ny44NCAyNjEuOSBDIDQ3Ljg0IDI2Mi40NiA0OC4zIDI2Mi45MiA0OC44NyAyNjIuOTIgQyA0OS40NCAyNjIuOTIgNDkuOSAyNjIuNDYgNDkuOSAyNjEuOSBMIDQ5LjkgMjU2Ljc2IEwgNTMuNTYgMjU2Ljc2IEwgNTMuNTYgMjYxLjkgQyA1My41NiAyNjIuNDYgNTQuMDIgMjYyLjkyIDU0LjU5IDI2Mi45MiBDIDU1LjE2IDI2Mi45MiA1NS42MiAyNjIuNDYgNTUuNjIgMjYxLjkgTCA1NS42MiAyNTYuNzYgTCA2Mi41MSAyNTYuNzYgQyA2My45IDI1Ni43NiA2NS4wNSAyNTUuNjEgNjUuMDUgMjU0LjIyIEwgNjUuMDUgMjQ3LjYyIEwgNjkuOTEgMjQ3LjYyIEMgNzAuMjggMjQ3LjYyIDcwLjYyIDI0Ny40MyA3MC44IDI0Ny4xMSBDIDcwLjk4IDI0Ni43OSA3MC45OCAyNDYuNCA3MC44IDI0Ni4wOCBDIDcwLjYyIDI0NS43NiA3MC4yOCAyNDUuNTcgNjkuOTEgMjQ1LjU3IEwgNjUuMDUgMjQ1LjU3IEwgNjUuMDUgMjQxLjkzIEwgNjkuOTEgMjQxLjkzIEMgNzAuMjggMjQxLjk0IDcwLjYzIDI0MS43NSA3MC44MiAyNDEuNDMgQyA3MS4wMSAyNDEuMTEgNzEuMDEgMjQwLjcxIDcwLjgyIDI0MC4zOSBDIDcwLjYzIDI0MC4wNyA3MC4yOCAyMzkuODcgNjkuOTEgMjM5Ljg4IEwgNjUuMDUgMjM5Ljg4IEwgNjUuMDUgMjM2LjI1IEwgNjkuOTEgMjM2LjI1IEMgNzAuNDggMjM2LjI1IDcwLjk0IDIzNS43OSA3MC45NCAyMzUuMjIgQyA3MC45NCAyMzQuNjUgNzAuNDggMjM0LjE5IDY5LjkxIDIzNC4xOSBMIDY1LjA1IDIzNC4xOSBMIDY1LjA1IDIzMC41NiBMIDY5LjkxIDIzMC41NiBDIDcwLjI4IDIzMC41NyA3MC42MyAyMzAuMzcgNzAuODIgMjMwLjA1IEMgNzEuMDEgMjI5LjczIDcxLjAxIDIyOS4zMyA3MC44MiAyMjkuMDEgQyA3MC42MyAyMjguNjkgNzAuMjggMjI4LjUgNjkuOTEgMjI4LjUxIEwgNjUuMDUgMjI4LjUxIEwgNjUuMDUgMjIxLjQzIEMgNjUuMDUgMjIwLjA0IDYzLjkgMjE4Ljg5IDYyLjUxIDIxOC44OSBMIDU1LjYyIDIxOC44OSBMIDU1LjYyIDIxNC4wMyBDIDU1LjYyIDIxMy43NiA1NS41MiAyMTMuNDkgNTUuMzIgMjEzLjI5IEMgNTUuMTIgMjEzLjEgNTQuODUgMjEyLjk5IDU0LjU3IDIxMi45OSBDIDU0LjAxIDIxMyA1My41NSAyMTMuNDcgNTMuNTYgMjE0LjAzIEwgNTMuNTYgMjE4Ljg5IEwgNDkuOSAyMTguODkgTCA0OS45IDIxNC4wMyBDIDQ5LjkxIDIxMy43NiA0OS44IDIxMy40OSA0OS42IDIxMy4yOSBDIDQ5LjQgMjEzLjEgNDkuMTMgMjEyLjk5IDQ4Ljg2IDIxMi45OSBDIDQ4LjI5IDIxMyA0Ny44MyAyMTMuNDcgNDcuODQgMjE0LjAzIEwgNDcuODQgMjE4Ljg5IEwgNDQuMTggMjE4Ljg5IEwgNDQuMTggMjE0LjAzIEMgNDQuMTkgMjEzLjc2IDQ0LjA4IDIxMy40OSA0My44OCAyMTMuMjkgQyA0My42OCAyMTMuMSA0My40MSAyMTIuOTkgNDMuMTQgMjEyLjk5IEMgNDIuNTcgMjEzIDQyLjExIDIxMy40NyA0Mi4xMiAyMTQuMDMgTCA0Mi4xMiAyMTguODkgTCAzOC40NiAyMTguODkgTCAzOC40NiAyMTQuMDMgQyAzOC40NyAyMTMuNzYgMzguMzYgMjEzLjQ5IDM4LjE2IDIxMy4yOSBDIDM3Ljk2IDIxMy4xIDM3LjcgMjEyLjk5IDM3LjQyIDIxMi45OSBaIE0gMjkuNTUgMjIwLjk0IEwgNjIuNTEgMjIwLjk0IEMgNjIuNzkgMjIwLjk0IDYyLjk5IDIyMS4xNCA2Mi45OSAyMjEuNDMgTCA2Mi45OSAyNTQuMjIgQyA2Mi45OSAyNTQuNTEgNjIuNzkgMjU0LjcgNjIuNTEgMjU0LjcgTCAyOS41NSAyNTQuNyBDIDI5LjI2IDI1NC43IDI5LjA2IDI1NC41MSAyOS4wNiAyNTQuMjIgTCAyOS4wNiAyMjEuNDMgQyAyOS4wNiAyMjEuMTQgMjkuMjYgMjIwLjk0IDI5LjU1IDIyMC45NCBaIE0gNTAuNzYgMjIzLjE2IEMgNTAuMTkgMjIzLjE2IDQ5LjcyIDIyMy42MiA0OS43MiAyMjQuMTkgQyA0OS43MiAyMjQuNzUgNTAuMTkgMjI1LjIxIDUwLjc2IDIyNS4yMSBMIDU4LjMzIDIyNS4yMSBMIDU4LjMzIDIzMi44NCBDIDU4LjMyIDIzMy4yMiA1OC41MSAyMzMuNTYgNTguODQgMjMzLjc1IEMgNTkuMTYgMjMzLjk0IDU5LjU2IDIzMy45NCA1OS44OCAyMzMuNzUgQyA2MC4yIDIzMy41NiA2MC40IDIzMy4yMiA2MC4zOSAyMzIuODQgTCA2MC4zOSAyMjQuMTkgQyA2MC4zOSAyMjMuOTIgNjAuMjggMjIzLjY1IDYwLjA5IDIyMy40NiBDIDU5Ljg5IDIyMy4yNyA1OS42MyAyMjMuMTYgNTkuMzYgMjIzLjE2IFogTSAzMi41MyAyMjMuMiBDIDMxLjk3IDIyMy4yIDMxLjUgMjIzLjY2IDMxLjUgMjI0LjIzIEwgMzEuNSAyMzIuOCBDIDMxLjUgMjMzLjM3IDMxLjk3IDIzMy44MyAzMi41MyAyMzMuODMgQyAzMy4xIDIzMy44MyAzMy41NiAyMzMuMzcgMzMuNTYgMjMyLjggTCAzMy41NiAyMjUuMjYgTCA0MS4yMiAyMjUuMjYgQyA0MS42IDIyNS4yNyA0MS45NSAyMjUuMDcgNDIuMTQgMjI0Ljc1IEMgNDIuMzMgMjI0LjQzIDQyLjMzIDIyNC4wMyA0Mi4xNCAyMjMuNzEgQyA0MS45NSAyMjMuMzkgNDEuNiAyMjMuMTkgNDEuMjIgMjIzLjIgWiBNIDMyLjU2IDI0MS42NiBDIDMxLjk5IDI0MS42NyAzMS41NCAyNDIuMTQgMzEuNTUgMjQyLjcgTCAzMS41NSAyNTEuMzYgQyAzMS41NSAyNTEuOTIgMzIuMDEgMjUyLjM4IDMyLjU4IDI1Mi4zOCBMIDQxLjE4IDI1Mi4zOCBDIDQxLjU1IDI1Mi4zOCA0MS44OSAyNTIuMTkgNDIuMDcgMjUxLjg3IEMgNDIuMjYgMjUxLjU1IDQyLjI2IDI1MS4xNiA0Mi4wNyAyNTAuODQgQyA0MS44OSAyNTAuNTMgNDEuNTUgMjUwLjMzIDQxLjE4IDI1MC4zMyBMIDMzLjYxIDI1MC4zMyBMIDMzLjYxIDI0Mi43IEMgMzMuNjEgMjQyLjQzIDMzLjUgMjQyLjE2IDMzLjMgMjQxLjk2IEMgMzMuMTEgMjQxLjc3IDMyLjg0IDI0MS42NiAzMi41NiAyNDEuNjYgWiBNIDU5LjM5IDI0MS43IEMgNTguODIgMjQxLjcxIDU4LjM2IDI0Mi4xOCA1OC4zNyAyNDIuNzUgTCA1OC4zNyAyNTAuMjkgTCA1MC43MSAyNTAuMjkgQyA1MC4xNCAyNTAuMjkgNDkuNjggMjUwLjc1IDQ5LjY4IDI1MS4zMSBDIDQ5LjY4IDI1MS44OCA1MC4xNCAyNTIuMzQgNTAuNzEgMjUyLjM0IEwgNTkuNCAyNTIuMzQgQyA1OS45NyAyNTIuMzQgNjAuNDMgMjUxLjg4IDYwLjQzIDI1MS4zMSBMIDYwLjQzIDI0Mi43NSBDIDYwLjQ0IDI0Mi40NyA2MC4zMyAyNDIuMiA2MC4xMyAyNDIgQyA1OS45MyAyNDEuODEgNTkuNjYgMjQxLjcgNTkuMzkgMjQxLjcgWiIvPjwvZz48c3dpdGNoPjxnLz48YSB0YXJnZXQ9Il9ibGFuayIgeGxpbms6aHJlZj0iaHR0cHM6Ly93d3cuZGlhZ3JhbXMubmV0L2RvYy9mYXEvc3ZnLWV4cG9ydC10ZXh0LXByb2JsZW1zIiB0cmFuc2Zvcm09InRyYW5zbGF0ZSgwLC01KSI+PHRleHQgeT0iMTAwJSIgeD0iNTAlIiBmb250LXNpemU9IjEwcHgiIHRleHQtYW5jaG9yPSJtaWRkbGUiPlRleHQgaXMgbm90IFNWRyAtIGNhbm5vdCBkaXNwbGF5PC90ZXh0PjwvYT48L3N3aXRjaD48L3N2Zz4=;" parent="9XvdeewJi5H3TVdUopXr-10" vertex="1">
                    <mxGeometry width="166" height="344" as="geometry"/>
                </mxCell>
                <mxCell id="9XvdeewJi5H3TVdUopXr-12" value="" style="endArrow=none;html=1;strokeWidth=2;strokeColor=#FF0000;" parent="9XvdeewJi5H3TVdUopXr-10" edge="1">
                    <mxGeometry width="50" height="50" relative="1" as="geometry">
                        <mxPoint x="104" y="195" as="sourcePoint"/>
                        <mxPoint x="63" y="245" as="targetPoint"/>
                    </mxGeometry>
                </mxCell>
                <mxCell id="9XvdeewJi5H3TVdUopXr-13" value="" style="endArrow=none;html=1;strokeWidth=2;strokeColor=#FF0000;" parent="9XvdeewJi5H3TVdUopXr-10" edge="1">
                    <mxGeometry width="50" height="50" relative="1" as="geometry">
                        <mxPoint x="63" y="232" as="sourcePoint"/>
                        <mxPoint x="105" y="151" as="targetPoint"/>
                    </mxGeometry>
                </mxCell>
                <mxCell id="9XvdeewJi5H3TVdUopXr-14" value="" style="endArrow=none;html=1;strokeWidth=2;strokeColor=#FF0000;" parent="9XvdeewJi5H3TVdUopXr-10" edge="1">
                    <mxGeometry width="50" height="50" relative="1" as="geometry">
                        <mxPoint x="45" y="219" as="sourcePoint"/>
                        <mxPoint x="21" y="110" as="targetPoint"/>
                    </mxGeometry>
                </mxCell>
                <mxCell id="9XvdeewJi5H3TVdUopXr-18" value="USB&lt;br&gt;low speed" style="rounded=0;whiteSpace=wrap;html=1;" parent="1" vertex="1">
                    <mxGeometry x="60" y="638" width="70" height="70" as="geometry"/>
                </mxCell>
                <mxCell id="9XvdeewJi5H3TVdUopXr-19" value="USB" style="endArrow=none;html=1;strokeColor=#FF0000;strokeWidth=2;entryX=0.5;entryY=0;entryDx=0;entryDy=0;" parent="1" target="9XvdeewJi5H3TVdUopXr-4" edge="1">
                    <mxGeometry width="50" height="50" relative="1" as="geometry">
                        <mxPoint x="60" y="450" as="sourcePoint"/>
                        <mxPoint x="293" y="511" as="targetPoint"/>
                    </mxGeometry>
                </mxCell>
                <mxCell id="9XvdeewJi5H3TVdUopXr-20" value="USB" style="endArrow=none;html=1;strokeColor=#FF0000;strokeWidth=2;exitX=1;exitY=0.385;exitDx=0;exitDy=0;exitPerimeter=0;entryX=0.5;entryY=0;entryDx=0;entryDy=0;" parent="1" source="6bS_RCBzzbipsxGdoiMo-2" target="9XvdeewJi5H3TVdUopXr-11" edge="1">
                    <mxGeometry width="50" height="50" relative="1" as="geometry">
                        <mxPoint x="-33.299999999999955" y="443.32000000000005" as="sourcePoint"/>
                        <mxPoint x="303" y="521" as="targetPoint"/>
                    </mxGeometry>
                </mxCell>
            </root>
        </mxGraphModel>
    </diagram>
</mxfile>